<?xml version="1.0" encoding="UTF-8"?>
<!DOCTYPE svg PUBLIC "-//W3C//DTD SVG 1.1//EN" "http://www.w3.org/Graphics/SVG/1.1/DTD/svg11.dtd">
<!-- Creator: CorelDRAW X8 -->
<svg xmlns="http://www.w3.org/2000/svg" xml:space="preserve" width="401px" height="402px" version="1.1" style="shape-rendering:geometricPrecision; text-rendering:geometricPrecision; image-rendering:optimizeQuality; fill-rule:evenodd; clip-rule:evenodd"
viewBox="0 0 403 404"
 xmlns:xlink="http://www.w3.org/1999/xlink">
 <defs>
  <style type="text/css">
   <![CDATA[
    .str0 {stroke:#2E0303;stroke-width:0.216832}
    .fil0 {fill:#2E0303;fill-rule:nonzero}
   ]]>
  </style>
 </defs>
 <g id="Camada_x0020_1">
  <metadata id="CorelCorpID_0Corel-Layer"/>
  <g id="_1868890848944">
   <path class="fil0 str0" d="M35 27c8,-3 16,-6 25,-8 0,-1 -1,-1 -1,-1 -2,3 -4,6 -7,9 -1,2 -2,3 -2,6 0,7 0,15 0,23 0,0 1,0 1,0 0,-8 0,-15 0,-23 0,0 0,-2 0,-2 0,-1 2,-3 2,-4 3,-3 5,-6 7,-9 0,0 0,0 -1,0 -8,2 -16,5 -25,8 0,1 0,2 1,1l0 0z"/>
   <path class="fil0 str0" d="M34 27c-1,8 -1,16 -1,24 0,0 0,0 0,0 6,-2 12,-4 17,-6 1,-1 1,-2 0,-1 -4,1 -9,3 -13,5 -1,0 -2,1 -3,1 0,0 -1,0 -1,0 1,1 1,-4 1,-4 0,-6 0,-13 1,-19 0,-1 -1,-1 -1,0l0 0z"/>
   <path class="fil0 str0" d="M51 32c5,0 11,1 17,0 5,0 10,-1 15,-3 5,-2 9,-7 5,-12 -2,-3 -6,-5 -10,-6 -6,-3 -12,-4 -19,-5 -10,-1 -24,-1 -32,6 -4,3 -4,6 -1,10 2,2 5,5 9,5 0,0 0,-1 0,-1 -3,0 -7,-2 -8,-4 -4,-5 -2,-8 3,-11 8,-5 19,-5 29,-4 9,1 20,3 27,9 5,5 2,11 -4,13 -5,2 -10,2 -15,2 -6,1 -11,0 -16,0 -1,0 -1,0 0,1l0 0z"/>
   <path class="fil0 str0" d="M23 43c3,4 6,7 10,8 1,0 1,0 0,-1 -3,-1 -7,-4 -9,-8 0,0 -1,0 -1,1l0 0z"/>
   <path class="fil0 str0" d="M24 18c0,8 -1,17 -1,25 0,0 1,0 1,0 0,-8 1,-17 1,-25 0,0 -1,0 -1,0l0 0z"/>
   <path class="fil0 str0" d="M50 56c13,3 27,3 38,-4 1,0 0,-1 0,-1 -11,7 -25,7 -37,5 -1,-1 -1,0 -1,0l0 0z"/>
   <path class="fil0 str0" d="M89 22c-1,10 -1,20 -2,30 0,0 1,0 1,0 1,-10 1,-20 2,-30 0,0 -1,0 -1,0l0 0z"/>
   <path class="fil0 str0" d="M62 27c0,0 1,-1 2,-1 0,0 0,-1 -1,-1 -1,0 -1,1 -2,1 -1,1 0,2 1,1l0 0z"/>
   <path class="fil0 str0" d="M72 25c1,0 2,0 3,0 0,0 0,-1 0,-1 -1,0 -2,0 -3,0 0,0 0,1 0,1l0 0z"/>
   <path class="fil0 str0" d="M68 19c0,0 1,0 2,0 1,0 0,-1 0,-1 -1,0 -2,0 -3,1 0,0 0,1 1,0l0 0z"/>
   <path class="fil0 str0" d="M79 18c0,1 1,2 1,2 1,1 2,0 1,0 0,-1 -1,-2 -1,-2 -1,-1 -1,0 -1,0l0 0z"/>
   <path class="fil0 str0" d="M62 12c1,0 1,0 2,0 1,0 1,-1 0,-1 0,0 -1,0 -2,0 0,0 -1,1 0,1l0 0z"/>
   <path class="fil0 str0" d="M53 15c0,-1 0,-2 1,-2 0,-1 0,-1 -1,-1 0,1 -1,1 -1,2 0,1 0,1 1,1l0 0z"/>
   <path class="fil0 str0" d="M42 11c1,0 1,1 1,1 1,0 1,0 1,0 0,0 0,0 0,-1 0,0 -1,-1 -1,-1 -1,0 -1,1 -1,1l0 0z"/>
   <path class="fil0 str0" d="M36 16c0,0 1,0 2,0 1,0 1,-1 0,-1 -1,0 -2,0 -2,0 -1,0 -1,1 0,1l0 0z"/>
   <path class="fil0 str0" d="M37 22c0,-1 0,-1 1,-1 0,0 0,-1 0,-1 0,0 0,0 -1,0 0,0 -1,1 -1,1 0,1 0,1 0,1 0,0 0,0 1,0l0 0z"/>
   <path class="fil0 str0" d="M45 18c0,-1 1,-1 1,-1 1,0 1,-1 0,-1 0,0 -1,0 -1,1 -1,0 -1,1 0,1l0 0z"/>
   <path class="fil0 str0" d="M51 50c2,-2 3,0 6,0 1,0 2,0 3,-1 1,0 2,-1 4,0 1,0 1,0 2,0 2,1 3,0 5,0 1,0 3,1 4,1 1,0 2,-1 3,-2 1,0 3,1 4,0 2,-1 4,-4 6,-2 0,1 1,0 0,0 0,-1 -1,-1 -2,-1 -1,0 -1,0 -2,1 0,0 -1,0 -1,1 -1,0 -2,0 -4,0 -1,0 -1,1 -2,1 -3,1 -4,0 -7,0 -1,0 -2,0 -3,0 -2,0 -2,0 -4,0 -1,-1 -2,0 -3,0 -1,0 -1,1 -2,1 -2,0 -3,0 -4,-1 0,0 -1,0 -1,0 -1,0 -2,1 -3,1 -1,1 0,1 1,1l0 0z"/>
   <path class="fil0 str0" d="M23 38c2,-1 2,1 3,2 1,0 1,0 2,0 1,1 1,1 1,2 0,1 0,1 1,2 0,0 0,0 0,0 2,0 2,1 3,2 0,0 1,0 1,-1 -1,-1 -1,-1 -2,-2 -1,0 -2,0 -2,-1 0,-1 0,-1 0,-1 -1,-1 -1,-1 -1,-1 0,-1 -1,-1 -1,-1 0,0 -1,0 -1,0 -1,0 -1,-1 -1,-1 -1,-1 -2,-1 -3,-1 0,0 0,1 0,1l0 0z"/>
   <path class="fil0 str0" d="M50 42c6,3 14,3 20,3 7,0 13,-2 19,-6 0,0 0,-1 -1,-1 -5,4 -11,6 -18,6 -6,0 -13,0 -19,-2 -1,-1 -1,0 -1,0l0 0z"/>
   <path class="fil0 str0" d="M51 40c12,3 26,4 38,-3 0,0 0,-1 -1,0 -11,6 -25,5 -37,2 -1,0 -1,1 0,1l0 0z"/>
   <path class="fil0 str0" d="M24 32c1,3 6,6 9,7 1,1 1,0 1,0 -4,-2 -8,-4 -10,-8 0,0 -1,0 0,1l0 0z"/>
   <path class="fil0 str0" d="M23 29c3,4 6,7 11,7 0,0 0,0 0,0 -4,-1 -7,-4 -10,-7 0,-1 -1,0 -1,0l0 0z"/>
   <path class="fil0 str0" d="M23 37c-3,1 -7,2 -9,6 -1,2 -1,5 0,7 3,5 9,8 15,10 10,4 21,5 32,5 6,1 12,0 18,-1 5,0 10,-1 14,-4 3,-1 6,-4 5,-8 -1,-4 -6,-7 -10,-8 0,0 0,1 0,1 6,2 13,7 7,13 -4,3 -10,5 -15,5 -12,2 -24,2 -36,0 -8,-1 -16,-3 -23,-7 -3,-2 -6,-5 -7,-8 -1,-6 5,-9 9,-10 1,0 1,-1 0,-1l0 0z"/>
  </g>
  <g id="_1868890854864">
   <path class="fil0 str0" d="M319 182c9,-5 19,-10 28,-15 0,0 0,0 0,-1 -2,4 -5,9 -7,13 -1,3 -2,4 -2,7 2,9 3,18 5,28 0,1 1,0 1,0 -2,-9 -3,-19 -4,-28 0,0 -1,-3 -1,-3 1,-1 2,-3 3,-4 2,-4 4,-8 6,-12 0,-1 -1,-1 -1,-1 -10,5 -19,10 -28,15 -1,1 -1,2 0,1l0 0z"/>
   <path class="fil0 str0" d="M318 182c1,10 2,19 3,29 0,0 1,1 1,0 6,-3 13,-7 19,-11 1,0 0,-1 0,-1 -5,3 -10,6 -15,9 -1,1 -3,2 -4,2 0,0 0,0 0,0 1,1 0,-5 0,-5 -1,-8 -2,-15 -3,-23 0,-1 -1,-1 -1,0l0 0z"/>
   <path class="fil0 str0" d="M339 184c7,0 14,-1 21,-2 6,-1 12,-3 18,-6 5,-4 9,-10 3,-16 -3,-3 -8,-5 -13,-6 -8,-2 -16,-2 -24,-2 -12,1 -29,3 -37,13 -4,4 -4,9 0,12 3,3 8,6 12,5 1,0 0,-1 0,-1 -4,1 -8,-2 -11,-4 -5,-4 -3,-9 2,-13 9,-8 22,-10 34,-11 11,-1 25,0 34,7 7,4 5,11 -2,15 -5,3 -12,5 -18,6 -6,1 -12,2 -19,2 -1,0 -1,1 0,1l0 0z"/>
   <path class="fil0 str0" d="M309 203c3,4 8,7 13,8 0,1 1,0 0,-1 -5,-1 -9,-4 -13,-7 0,-1 -1,0 0,0l0 0z"/>
   <path class="fil0 str0" d="M304 173c2,10 3,20 4,30 1,1 2,1 2,0 -2,-10 -3,-20 -5,-30 0,0 -1,0 -1,0l0 0z"/>
   <path class="fil0 str0" d="M344 214c15,1 32,-2 44,-12 1,0 0,-1 -1,-1 -11,10 -28,13 -43,12 -1,0 -1,1 0,1l0 0z"/>
   <path class="fil0 str0" d="M383 166c1,12 3,24 4,36 0,0 1,0 1,-1 -1,-11 -3,-23 -4,-35 0,-1 -1,-1 -1,0l0 0z"/>
   <path class="fil0 str0" d="M351 177c1,-1 2,-1 2,-2 1,0 0,-1 0,-1 -1,1 -2,2 -3,2 0,1 1,2 1,1l0 0z"/>
   <path class="fil0 str0" d="M364 172c1,0 2,0 3,0 0,0 0,-2 -1,-1 -1,0 -1,0 -2,0 -1,0 -1,1 0,1l0 0z"/>
   <path class="fil0 str0" d="M357 167c1,-1 2,-1 3,-1 1,0 0,-1 -1,-1 0,0 -1,0 -2,1 -1,0 0,1 0,1l0 0z"/>
   <path class="fil0 str0" d="M371 163c0,1 1,1 2,2 0,1 1,0 0,-1 0,0 -1,-1 -2,-2 0,0 -1,1 0,1l0 0z"/>
   <path class="fil0 str0" d="M349 159c1,0 2,0 3,0 0,0 1,-2 0,-2 -1,0 -2,0 -3,0 -1,0 -1,2 0,2l0 0z"/>
   <path class="fil0 str0" d="M338 164c1,-1 1,-2 1,-3 1,0 0,-1 -1,0 0,0 -1,1 -1,2 0,1 1,1 1,1l0 0z"/>
   <path class="fil0 str0" d="M325 161c1,1 1,1 2,1 0,1 0,1 1,0 0,0 0,0 -1,0 0,-1 -1,-1 -2,-2 0,0 -1,1 0,1l0 0z"/>
   <path class="fil0 str0" d="M318 169c1,0 2,-1 3,-1 1,0 0,-1 0,-1 -1,0 -2,0 -3,1 -1,0 -1,1 0,1l0 0z"/>
   <path class="fil0 str0" d="M320 176c1,-1 1,-2 2,-2 0,0 0,-1 0,-1 0,0 -1,0 -1,0 -1,1 -1,1 -2,2 0,0 0,1 1,1 0,0 0,0 0,0l0 0z"/>
   <path class="fil0 str0" d="M329 169c1,-1 1,-1 2,-1 1,0 0,-1 0,-1 -1,0 -1,0 -2,1 -1,0 0,1 0,1l0 0z"/>
   <path class="fil0 str0" d="M342 207c3,-3 5,-1 8,-1 1,-1 2,-1 3,-2 2,-1 3,-2 5,-2 1,1 2,1 3,1 2,0 4,-1 6,-1 1,0 3,0 5,0 1,-1 2,-2 3,-2 2,-2 3,-1 5,-2 2,-1 4,-5 6,-3 1,1 2,0 1,-1 -1,-1 -2,-1 -3,0 -1,0 -2,0 -2,1 -1,0 -1,1 -2,1 -1,1 -2,2 -3,1 -2,1 -2,1 -4,2 -3,3 -4,1 -7,1 -2,0 -3,1 -4,1 -2,1 -3,0 -5,0 -1,0 -2,1 -4,1 0,1 -1,2 -2,2 -2,0 -3,0 -5,0 0,0 0,-1 -1,-1 -1,1 -3,2 -3,3 -1,0 0,1 0,1l0 0z"/>
   <path class="fil0 str0" d="M308 197c2,-1 2,2 4,2 0,0 1,0 2,0 1,1 0,1 1,2 0,1 0,2 1,2 0,0 1,0 1,0 2,0 3,1 4,2 0,0 1,0 1,-1 -1,-1 -2,-2 -4,-2 -1,0 -2,0 -2,-1 0,-1 0,-1 0,-1 -1,-1 -1,-2 -1,-2 -1,0 -1,0 -2,0 0,0 -1,0 -1,0 -1,0 -1,-1 -1,-1 -1,-1 -2,-1 -4,-1 0,0 0,1 1,1l0 0z"/>
   <path class="fil0 str0" d="M341 198c8,2 17,0 24,-1 8,-2 16,-5 21,-11 1,0 0,-1 0,0 -6,5 -13,8 -21,10 -7,1 -16,3 -24,0 0,0 -1,1 0,2l0 0z"/>
   <path class="fil0 str0" d="M341 195c15,1 32,-1 45,-11 0,0 0,-1 -1,-1 -12,10 -29,12 -44,11 -1,0 -1,1 0,1l0 0z"/>
   <path class="fil0 str0" d="M307 190c2,4 8,6 13,7 0,0 1,-1 0,-1 -4,-1 -10,-3 -13,-7 0,0 -1,0 0,1l0 0z"/>
   <path class="fil0 str0" d="M306 187c4,3 8,6 13,7 1,0 1,-2 1,-2 -6,0 -10,-3 -13,-6 -1,0 -2,1 -1,1l0 0z"/>
   <path class="fil0 str0" d="M307 196c-4,2 -8,5 -10,9 -1,3 0,6 2,9 4,5 13,8 19,9 13,2 27,2 40,0 7,-1 15,-2 22,-5 5,-1 11,-3 15,-7 3,-3 6,-7 5,-11 -2,-5 -8,-7 -13,-8 -1,0 -1,1 0,1 7,1 16,7 10,15 -4,5 -11,7 -16,9 -14,4 -29,6 -44,6 -9,0 -19,0 -28,-4 -4,-2 -9,-4 -11,-8 -3,-7 5,-11 10,-14 0,0 0,-1 -1,-1l0 0z"/>
  </g>
  <g id="_1868890863408">
   <path class="fil0 str0" d="M374 22c-9,13 -19,26 -26,40 0,1 0,1 0,1 3,1 6,0 9,0 4,-2 9,-3 13,-4 9,-3 18,-6 27,-9 0,0 0,-1 -1,-1 -7,2 -15,5 -22,7 -4,1 -8,3 -11,4 -2,0 -4,1 -6,1 -2,1 -7,3 -7,0 0,-1 2,-4 3,-5 1,-1 2,-3 3,-5 2,-3 4,-6 6,-9 4,-7 8,-13 13,-20 0,0 -1,-1 -1,0l0 0z"/>
   <path class="fil0 str0" d="M374 22c12,4 25,13 22,27 0,1 1,1 2,0 3,-15 -11,-24 -24,-28 0,0 -1,1 0,1l0 0z"/>
   <path class="fil0 str0" d="M373 21c2,-1 3,-3 5,-4 1,0 1,1 2,1 1,0 2,1 3,1 1,1 3,2 5,3 3,2 6,5 9,9 2,3 3,6 4,9 0,2 1,4 1,7 0,3 -3,3 -5,2 -1,0 -2,1 -1,1 2,1 4,1 6,0 1,0 1,0 1,-1 0,-11 -5,-21 -14,-28 -3,-2 -11,-7 -15,-5 -3,1 -4,4 -1,6 0,1 1,0 0,-1l0 0z"/>
   <path class="fil0 str0" d="M348 63c1,2 4,3 6,3 3,0 5,-1 8,-2 3,0 6,-1 9,-2 10,-3 22,-7 31,-12 1,0 0,-1 0,-1 -8,4 -17,7 -25,10 -5,1 -9,3 -14,4 -3,1 -12,5 -14,-1 0,0 -1,0 -1,1l0 0z"/>
   <path class="fil0 str0" d="M384 42c-1,1 -1,1 -1,2 0,0 0,1 0,1 2,0 3,0 5,0 0,0 1,-1 0,-1 0,-1 2,-2 2,-3 1,-1 1,-1 0,-2 0,-1 -2,-1 -4,-1 -1,0 -3,0 -4,2 0,1 1,2 2,2 1,0 1,-1 0,-1 -1,-1 -1,-1 0,-2 1,0 1,0 2,0 0,0 1,0 1,0 1,0 1,0 2,0 1,1 0,2 -1,2 -1,1 -2,2 -1,4 0,-1 1,-1 1,-1 -2,0 -3,0 -4,0 0,0 0,0 0,0 0,0 0,-1 1,-1 0,-1 -1,-1 -1,-1l0 0z"/>
   <path class="fil0 str0" d="M375 34c0,-1 0,-1 -1,-2 0,0 -1,0 -1,1 -1,1 -1,2 -1,4 -1,0 0,1 0,0 1,0 2,3 2,3 1,1 2,1 2,1 2,0 3,-2 3,-3 0,-2 1,-4 -1,-5 -1,-1 -2,0 -3,1 0,1 1,1 1,1 1,-1 1,-1 2,0 0,0 0,0 0,1 0,0 0,1 0,1 0,1 0,2 -1,2 -1,0 -1,0 -2,0 0,0 0,0 0,-1 -1,-1 -2,-2 -3,-2 0,1 0,1 1,1 0,-1 0,-3 1,-4 0,0 0,0 -1,0 1,1 1,1 2,2 0,0 1,-1 0,-1l0 0z"/>
   <path class="fil0 str0" d="M377 28c-1,-1 -2,0 -2,2 1,1 3,1 4,0 1,0 1,-2 0,-3 -1,-1 -3,0 -4,1 0,0 1,1 1,1 1,-1 1,-2 2,-2 1,1 1,1 1,2 -1,0 -1,0 -2,0 0,0 -1,0 -1,0 0,0 0,0 0,0 1,0 2,-1 1,-1l0 0z"/>
   <path class="fil0 str0" d="M361 50c-1,0 -2,1 -1,2 0,1 1,1 2,1 1,0 1,0 2,0 0,-1 0,-1 1,-1 0,0 0,0 1,0 1,0 1,-1 1,-2 1,-2 -2,-5 -4,-4 -3,0 -4,3 -1,4 0,1 1,0 0,-1 -1,0 -1,-1 0,-2 1,0 2,0 2,0 1,0 2,1 2,1 0,1 1,2 0,3 0,0 -1,0 -2,0 0,0 0,0 -1,0 0,1 0,1 -1,1 -1,0 -1,-1 0,-1 0,-1 0,-2 -1,-1l0 0z"/>
   <path class="fil0 str0" d="M372 48c1,0 1,-1 0,-1 0,0 0,1 0,1l0 0z"/>
   <path class="fil0 str0" d="M383 34c1,0 1,-1 0,-1 -1,0 -1,1 0,1l0 0z"/>
   <path class="fil0 str0" d="M370 54c1,0 1,-1 0,-1 -1,0 -1,1 0,1l0 0z"/>
   <path class="fil0 str0" d="M386 49c1,0 1,-1 0,-1 0,0 0,1 0,1l0 0z"/>
   <path class="fil0 str0" d="M393 46c0,0 0,-1 0,-1 -1,0 -1,1 0,1l0 0z"/>
   <path class="fil0 str0" d="M370 36c0,0 0,0 0,-1 0,0 -1,0 -1,0 0,1 0,1 0,1 0,0 1,0 1,0l0 0z"/>
   <path class="fil0 str0" d="M390 35c1,0 1,-1 0,-1 -1,0 -1,1 0,1l0 0z"/>
   <path class="fil0 str0" d="M382 48c-1,0 -1,1 -1,2 0,2 1,2 2,2 1,-1 2,-1 2,-3 0,-1 -1,-1 -2,-1 -1,0 0,1 0,1 1,0 1,0 1,1 0,0 0,0 -1,1 0,0 -1,0 -1,-1 0,0 0,-1 1,-1 0,0 0,-1 -1,-1l0 0z"/>
   <path class="fil0 str0" d="M383 31c0,1 -1,2 0,3 0,1 2,1 3,0 0,-1 1,-2 1,-3 -1,-1 -2,-1 -3,-1 -1,1 0,2 0,1 1,0 2,0 2,1 0,0 -1,1 -1,1 0,0 -1,1 -1,0 -1,0 0,-1 0,-1 1,-1 0,-1 -1,-1l0 0z"/>
   <path class="fil0 str0" d="M391 44c0,1 -1,2 0,3 1,1 2,0 3,0 0,-1 1,-2 1,-3 0,-1 -2,-1 -3,-1 -1,0 0,1 1,1 0,0 1,0 1,1 0,0 -1,0 -1,1 0,0 -1,0 -1,0 -1,0 0,-1 0,-1 1,-1 0,-2 -1,-1l0 0z"/>
   <path class="fil0 str0" d="M372 50c-1,0 -2,0 -2,2 0,1 1,2 2,2 1,0 2,-1 3,-2 0,-1 -1,-2 -2,-2 -1,0 -1,1 0,1 0,0 1,1 0,1 0,0 -1,1 -1,1 -1,-1 -1,-1 -1,-1 0,-1 1,-1 1,-1 1,0 1,-1 0,-1l0 0z"/>
   <path class="fil0 str0" d="M369 41c0,-1 -1,-1 -2,0 -1,1 0,2 1,3 1,0 3,0 3,-1 1,-1 0,-2 -1,-3 -1,0 -1,1 -1,1 1,1 1,1 1,2 0,0 0,0 -1,0 0,0 -1,0 -1,-1 0,0 0,0 0,0 0,-1 0,-1 0,-1 1,1 2,0 1,0l0 0z"/>
   <path class="fil0 str0" d="M356 55c-1,0 -1,1 -1,2 1,1 2,2 3,2 1,-1 2,-2 2,-3 0,-1 -2,-1 -3,-1 0,0 0,1 0,1 1,0 1,0 2,0 0,1 -1,1 -1,2 0,0 -1,0 -1,-1 -1,0 -1,-1 0,-1 0,0 0,-1 -1,-1l0 0z"/>
   <path class="fil0 str0" d="M378 46c0,0 0,-1 0,-1 0,0 -1,0 -1,0 0,0 0,1 0,1 0,0 1,0 1,0l0 0z"/>
   <path class="fil0 str0" d="M392 36c0,0 0,0 0,0 0,-1 -1,-1 -1,0 0,0 0,0 0,0 0,1 1,1 1,0l0 0z"/>
   <path class="fil0 str0" d="M366 55c0,0 0,0 0,0 0,-1 -1,-1 -1,0 0,0 0,0 0,0 0,1 1,1 1,0l0 0z"/>
   <path class="fil0 str0" d="M389 49c0,0 0,-1 0,-1 0,0 -2,0 -2,0 0,0 0,1 0,1 0,0 2,0 2,0l0 0z"/>
   <path class="fil0 str0" d="M372 47c0,0 0,0 0,0 0,-1 -1,-1 -1,0 0,0 0,0 0,0 0,1 1,1 1,0l0 0z"/>
  </g>
  <g id="_1868890868720">
   <path class="fil0 str0" d="M20 338c25,3 50,6 75,12 0,0 0,0 0,1 -1,4 -5,6 -9,9 -6,4 -12,8 -18,12 -13,8 -25,15 -38,23 -1,0 -2,-1 -1,-2 11,-6 21,-12 32,-19 5,-3 10,-6 16,-10 2,-1 5,-3 7,-5 3,-1 11,-6 7,-8 -2,-2 -6,-2 -9,-2 -2,-1 -5,-1 -8,-2 -6,-1 -12,-2 -18,-3 -12,-1 -25,-3 -37,-4 -1,0 -1,-2 1,-2l0 0z"/>
   <path class="fil0 str0" d="M20 340c-9,17 -11,43 9,54 1,0 0,2 -1,1 -21,-11 -19,-37 -9,-56 0,-1 2,0 1,1l0 0z"/>
   <path class="fil0 str0" d="M20 338c-4,0 -7,0 -10,0 -1,2 -1,3 -1,4 -1,2 -1,3 -2,4 0,4 -1,7 -1,10 -1,7 -1,13 1,19 2,6 4,11 7,15 2,3 4,5 7,7 4,4 6,1 8,-3 0,-1 2,-1 2,0 -2,4 -4,6 -7,8 0,0 0,0 -1,0 -14,-11 -21,-28 -19,-45 0,-7 2,-21 9,-24 3,-2 9,0 8,4 0,2 -1,2 -1,1l0 0z"/>
   <path class="fil0 str0" d="M95 350c2,4 0,8 -2,11 -3,3 -7,5 -10,7 -4,3 -8,5 -12,8 -15,10 -30,20 -47,26 -1,0 -2,-1 -1,-2 14,-5 27,-12 38,-20 7,-4 12,-8 19,-12 4,-3 18,-9 14,-17 -1,-1 1,-2 1,-1l0 0z"/>
   <path class="fil0 str0" d="M34 371c1,1 2,1 3,1 1,1 1,1 1,2 -2,2 -3,3 -5,5 0,0 -1,0 -1,0 -1,-2 -5,-1 -6,-1 -1,0 -2,-1 -2,-2 -2,-2 0,-4 2,-6 1,-2 4,-4 6,-3 2,1 3,3 2,5 -1,1 -2,0 -2,-1 0,-2 -1,-3 -2,-2 -1,0 -2,1 -2,1 -1,1 -1,1 -2,2 0,0 -1,1 -1,2 0,3 2,2 3,2 2,0 5,0 5,2 0,0 -1,0 -1,0 1,-2 3,-3 4,-5 0,0 0,1 0,1 -1,0 -2,-1 -2,-1 -2,0 -1,-2 0,-2l0 0z"/>
   <path class="fil0 str0" d="M32 353c0,-1 0,-2 0,-3 0,-1 1,-1 1,-1 3,0 5,1 7,2 1,1 1,1 0,2 -1,1 1,4 1,5 0,1 0,3 -1,3 -2,2 -5,1 -7,0 -2,-1 -4,-3 -4,-5 0,-2 2,-4 4,-3 1,0 0,2 -1,2 -1,0 -1,0 -1,2 0,0 0,1 1,1 1,1 2,1 2,2 1,0 2,1 3,0 1,0 2,-1 2,-2 0,0 0,-1 0,-1 -1,-2 -2,-4 0,-6 0,1 0,1 0,2 -2,-1 -4,-2 -6,-2 0,-1 1,-1 1,-1 0,1 0,2 0,3 0,1 -2,1 -2,0l0 0z"/>
   <path class="fil0 str0" d="M24 348c0,-2 3,-2 4,0 1,2 -1,4 -3,5 -2,1 -5,0 -5,-2 0,-3 3,-5 5,-5 1,0 2,2 0,2 -1,0 -2,0 -3,1 0,1 0,3 1,3 1,0 2,-1 3,-2 0,0 0,-1 0,-1 0,0 -1,-1 -1,0 0,1 -1,1 -1,-1l0 0z"/>
   <path class="fil0 str0" d="M66 352c2,0 4,0 5,1 0,2 -1,3 -2,4 0,1 -1,1 -2,1 -1,0 -1,0 -2,1 0,1 0,1 0,1 -1,1 -3,1 -5,0 -3,-2 -3,-8 0,-10 2,-2 7,-1 6,3 0,1 -2,1 -1,0 0,-2 -1,-3 -3,-2 -1,0 -2,1 -2,2 -1,1 -1,2 0,4 0,0 1,2 3,2 1,0 1,-1 1,-2 1,0 1,-1 2,-1 1,0 2,1 3,-1 0,-1 -1,-2 -2,-1 -1,0 -2,-1 -1,-2l0 0z"/>
   <path class="fil0 str0" d="M52 363c0,1 -2,0 -1,-1 1,-1 2,1 1,1l0 0z"/>
   <path class="fil0 str0" d="M24 362c0,1 -2,0 -1,-1 1,-1 2,0 1,1l0 0z"/>
   <path class="fil0 str0" d="M63 367c-1,1 -2,0 -2,-1 1,-1 3,0 2,1l0 0z"/>
   <path class="fil0 str0" d="M39 381c-1,1 -2,0 -1,-1 1,-1 2,1 1,1l0 0z"/>
   <path class="fil0 str0" d="M29 386c0,1 -2,0 -1,-1 1,-1 2,0 1,1l0 0z"/>
   <path class="fil0 str0" d="M41 348c-1,0 -1,0 -1,0 -1,-1 1,-2 1,-2 1,0 1,1 1,1 1,0 -1,2 -1,1l0 0z"/>
   <path class="fil0 str0" d="M19 372c-1,0 -2,-1 -1,-2 0,0 2,1 1,2l0 0z"/>
   <path class="fil0 str0" d="M42 376c2,-1 4,-1 5,0 1,2 0,4 -1,5 -2,1 -4,1 -5,0 -1,-1 -1,-3 0,-4 1,-1 2,1 1,1 0,1 0,1 1,2 0,0 1,0 2,-1 0,0 1,-1 0,-1 0,-1 -1,-1 -2,-1 -1,1 -2,-1 -1,-1l0 0z"/>
   <path class="fil0 str0" d="M21 360c2,0 4,0 4,2 1,2 -1,3 -3,3 -1,1 -4,0 -4,-1 -2,-2 0,-4 2,-4 1,-1 1,1 0,1 0,1 -2,2 0,2 0,0 1,1 2,1 1,0 2,-1 2,-2 0,-1 -2,-1 -3,-1 -1,0 -1,-1 0,-1l0 0z"/>
   <path class="fil0 str0" d="M28 382c2,0 4,0 4,3 1,2 -1,3 -3,3 -1,0 -4,0 -5,-1 -1,-2 1,-4 3,-5 1,0 1,2 0,2 -1,0 -2,1 -1,2 1,0 2,0 3,0 0,0 1,0 2,-1 0,-1 -2,-1 -3,-1 -1,0 -1,-2 0,-2l0 0z"/>
   <path class="fil0 str0" d="M55 365c2,-1 3,-2 5,-1 1,2 1,4 0,5 -1,1 -3,3 -5,2 -2,0 -2,-3 -1,-4 1,-2 2,-1 2,0 -1,1 -1,2 0,2 1,0 2,-1 3,-1 0,-1 0,-2 -1,-2 0,0 -1,1 -2,1 -1,1 -2,-1 -1,-2l0 0z"/>
   <path class="fil0 str0" d="M47 353c0,-2 1,-3 3,-3 2,1 2,3 2,5 -1,1 -2,3 -4,3 -2,-1 -2,-3 -2,-5 0,-1 2,-1 2,1 0,0 0,1 0,2 1,0 1,0 2,-1 0,-1 0,-1 0,-2 0,0 0,-1 -1,-1 0,0 0,0 0,0 0,1 -2,2 -2,1l0 0z"/>
   <path class="fil0 str0" d="M77 352c2,-1 4,0 4,1 1,2 1,4 -1,5 -1,1 -3,1 -5,-1 -1,-1 0,-3 1,-4 1,-1 2,0 2,1 -1,0 -1,1 -1,2 0,1 1,1 2,0 1,0 1,-1 1,-1 0,-1 -1,-2 -2,-2 -1,1 -2,0 -1,-1l0 0z"/>
   <path class="fil0 str0" d="M44 368c0,0 0,0 0,0 -1,-1 0,-2 1,-1 0,0 0,0 0,0 1,1 0,2 -1,1l0 0z"/>
   <path class="fil0 str0" d="M18 375c0,0 -1,0 -1,0 -1,-1 1,-2 1,-2 1,1 1,1 1,1 1,1 0,2 -1,1l0 0z"/>
   <path class="fil0 str0" d="M68 364c0,0 0,0 0,0 -1,-1 0,-2 1,-2 0,0 0,1 0,1 1,0 0,2 -1,1l0 0z"/>
   <path class="fil0 str0" d="M37 384c0,0 0,0 -1,0 0,-1 1,-3 2,-2 0,0 0,0 0,1 1,0 0,2 -1,1l0 0z"/>
   <path class="fil0 str0" d="M52 362c0,0 0,0 -1,0 0,-1 1,-2 2,-1 0,0 0,0 0,0 1,1 0,2 -1,1l0 0z"/>
  </g>
  <g id="_1868890876784">
   <path class="fil0 str0" d="M349 339c0,16 -2,33 -2,49 0,0 0,1 1,1 3,0 7,1 11,2 2,0 3,1 5,1 2,0 4,1 5,1 1,0 2,-1 2,-2 1,-2 2,-5 3,-7 6,-12 10,-25 15,-38 0,0 0,-1 -1,0 -4,10 -7,20 -11,30 -2,4 -3,8 -5,11 -1,2 -1,4 -3,5 -1,0 -3,-1 -4,-1 -1,0 -3,-1 -4,-1 -3,0 -6,-1 -8,-1 -1,-1 -4,-1 -4,-2 -1,0 -1,-2 -1,-3 0,-5 0,-10 0,-15 1,-10 2,-20 2,-30 0,-1 -1,0 -1,0l0 0z"/>
   <path class="fil0 str0" d="M347 338c13,8 29,10 44,8 1,0 1,0 1,0 0,-2 0,-3 0,-4 0,0 0,-1 -1,-1 -15,1 -30,-1 -43,-8 0,0 -1,0 -1,0 0,2 0,3 -1,4 0,1 1,1 1,1 1,-1 1,-2 1,-3 0,0 0,-1 0,-1 0,0 0,0 0,0 1,0 2,2 3,2 4,2 8,3 12,4 8,2 17,4 26,3 2,-1 2,-1 2,1 0,0 0,1 0,1 0,1 -1,1 -2,1 -5,0 -10,0 -15,0 -10,-1 -19,-4 -27,-9 0,0 -1,1 0,1z"/>
   <path class="fil0 str0" d="M375 327c7,3 13,7 14,15 0,1 1,1 1,0 -1,-8 -8,-13 -15,-16 0,0 -1,1 0,1l0 0z"/>
   <path class="fil0 str0" d="M350 334c4,-7 13,-9 21,-7 1,0 1,-1 0,-1 -8,-2 -17,0 -22,8 0,0 0,1 1,0l0 0z"/>
   <path class="fil0 str0" d="M376 307c-2,7 -4,15 -6,22 0,1 1,1 1,1 2,-8 4,-15 6,-23 0,-1 -1,-1 -1,0l0 0z"/>
   <path class="fil0 str0" d="M376 307c5,1 10,2 15,2 0,0 1,-1 0,-1 -5,0 -10,-1 -14,-2 -1,0 -1,1 -1,1l0 0z"/>
   <path class="fil0 str0" d="M390 309c1,1 0,2 0,2 -1,1 0,2 0,1 1,-1 2,-2 1,-3 0,-1 -1,-1 -1,0l0 0z"/>
   <path class="fil0 str0" d="M379 311c4,0 7,1 11,1 0,0 1,-1 0,-1 -3,0 -7,-1 -10,-1 -1,0 -1,1 -1,1l0 0z"/>
   <path class="fil0 str0" d="M379 310c-2,7 -4,14 -6,21 -1,0 0,1 1,0 2,-7 4,-14 6,-21 0,0 -1,0 -1,0l0 0z"/>
   <path class="fil0 str0" d="M371 326c-1,-1 -3,0 -3,2 0,1 1,2 3,2 1,1 3,2 5,1 2,0 1,-2 0,-3 0,-1 -1,0 -1,0 1,1 2,2 1,2 0,1 -1,1 -2,1 -1,-1 -2,-1 -2,-1 -1,0 -2,-1 -3,-1 -1,-1 0,-3 2,-2 0,0 1,-1 0,-1l0 0z"/>
   <path class="fil0 str0" d="M367 354c-12,-6 -20,16 -6,19 6,2 11,-2 13,-7 1,-6 -3,-12 -9,-13 -1,0 -1,1 0,1 4,1 8,5 8,10 -1,6 -5,9 -11,9 -13,-2 -7,-24 5,-18 0,0 1,-1 0,-1l0 0z"/>
  </g>
  <g id="_1868890881488">
   <path class="fil0 str0" d="M230 227c8,17 15,35 24,52 1,0 1,0 1,0 4,-1 8,-3 13,-4 2,-1 4,-1 6,-2 2,0 4,-1 6,-2 1,0 1,-1 1,-2 0,-3 0,-7 -1,-10 -1,-15 -3,-31 -5,-47 0,0 -1,0 -1,0 1,13 3,25 4,38 1,5 1,9 1,14 1,2 1,5 0,6 -1,1 -3,1 -5,2 -1,0 -3,1 -4,1 -4,1 -7,2 -10,3 -1,0 -3,2 -5,1 -1,0 -1,-2 -2,-3 -3,-5 -5,-10 -8,-16 -4,-10 -9,-21 -14,-32 -1,0 -2,0 -1,1l0 0z"/>
   <path class="fil0 str0" d="M227 227c18,1 35,-5 50,-16 0,0 1,0 0,-1 0,-1 -1,-2 -2,-4 0,0 0,0 0,0 -16,10 -32,15 -50,15 0,0 0,1 0,1 0,2 1,3 1,5 0,0 1,0 1,-1 0,-1 -1,-2 -1,-3 0,0 0,0 0,-1 0,0 0,0 0,0 1,0 3,1 4,1 5,-1 10,-1 14,-2 10,-3 20,-7 29,-12 1,-1 1,-2 2,0 0,0 1,1 1,2 0,0 -1,0 -2,1 -5,3 -10,6 -15,8 -10,4 -21,6 -32,6 -1,0 -1,1 0,1z"/>
   <path class="fil0 str0" d="M250 201c8,-1 17,-1 22,7 1,1 2,0 1,0 -5,-9 -14,-10 -23,-8 -1,0 -1,1 0,1l0 0z"/>
   <path class="fil0 str0" d="M228 222c1,-10 9,-17 18,-20 1,0 0,-1 -1,-1 -9,3 -17,10 -18,20 -1,1 1,1 1,1l0 0z"/>
   <path class="fil0 str0" d="M240 179c2,9 4,18 6,27 0,0 1,0 1,-1 -2,-9 -4,-18 -6,-26 0,-1 -1,-1 -1,0l0 0z"/>
   <path class="fil0 str0" d="M241 179c5,-2 10,-4 15,-6 1,0 1,-1 0,-1 -5,2 -11,4 -16,6 0,1 0,2 1,1l0 0z"/>
   <path class="fil0 str0" d="M256 173c1,1 1,2 0,3 0,1 1,1 1,1 1,-2 1,-4 0,-5 -1,0 -2,1 -1,1l0 0z"/>
   <path class="fil0 str0" d="M246 181c3,-1 7,-3 11,-4 1,0 0,-1 0,-1 -4,1 -8,3 -12,4 0,0 0,2 1,1l0 0z"/>
   <path class="fil0 str0" d="M245 181c1,8 3,16 4,24 1,1 2,1 2,0 -2,-8 -3,-16 -5,-24 0,-1 -1,-1 -1,0l0 0z"/>
   <path class="fil0 str0" d="M245 201c-1,1 -3,2 -2,4 0,1 3,1 4,1 2,0 4,0 6,-1 2,-2 0,-4 -2,-5 0,0 -1,1 0,1 0,1 2,1 2,2 -1,1 -2,1 -2,1 -1,1 -2,1 -3,1 -1,0 -2,0 -3,0 -2,0 -1,-2 0,-3 1,0 1,-1 0,-1l0 0z"/>
   <path class="fil0 str0" d="M256 233c-15,0 -11,27 5,23 6,-2 10,-9 8,-15 -2,-7 -9,-10 -15,-8 -1,0 -1,1 0,1 5,-2 12,1 14,6 2,6 -1,12 -6,14 -15,6 -20,-20 -6,-20 1,0 1,-1 0,-1l0 0z"/>
  </g>
  <g id="_1868890882512">
   <path class="fil0 str0" d="M3 105c4,13 6,25 10,37 0,0 0,0 1,0 2,0 5,0 8,-1 2,0 3,0 5,0 1,0 3,0 4,0 0,-1 1,-1 1,-2 0,-2 0,-4 1,-6 1,-11 1,-21 2,-32 0,0 -1,0 -1,0 0,9 -1,17 -2,25 0,3 0,7 -1,10 0,1 0,3 -1,4 -1,0 -2,0 -3,0 -1,0 -2,0 -3,1 -2,0 -5,0 -7,0 -1,0 -2,1 -3,0 -1,0 -1,-1 -1,-2 -1,-4 -2,-7 -3,-11 -2,-8 -4,-15 -6,-23 0,0 -1,0 -1,0l0 0z"/>
   <path class="fil0 str0" d="M1 105c12,3 24,1 35,-4 1,0 1,0 1,-1 -1,-1 -1,-2 -1,-3 0,0 -1,0 -1,0 -11,4 -22,6 -34,4 0,0 0,0 0,1 0,1 0,2 0,3 0,0 1,0 1,-1 0,0 0,-1 0,-2 -1,0 -1,0 -1,0 0,-1 0,-1 1,0 0,0 1,0 2,0 3,1 6,1 10,1 6,0 14,-2 20,-4 1,-1 1,-2 1,0 0,0 1,1 1,1 0,1 -1,1 -2,1 -3,1 -7,3 -11,3 -7,2 -14,2 -22,0 0,0 0,1 0,1z"/>
   <path class="fil0 str0" d="M20 91c5,0 11,2 13,7 1,1 1,1 1,0 -2,-6 -8,-8 -14,-8 -1,0 -1,1 0,1l0 0z"/>
   <path class="fil0 str0" d="M3 101c2,-6 8,-9 14,-10 0,0 0,-1 0,-1 -7,1 -13,5 -15,11 0,1 1,1 1,0l0 0z"/>
   <path class="fil0 str0" d="M16 75c0,6 0,12 1,18 0,1 0,1 0,0 0,-6 0,-12 0,-18 0,-1 -1,0 -1,0l0 0z"/>
   <path class="fil0 str0" d="M16 75c4,0 8,-1 11,-2 1,0 1,0 0,0 -3,0 -7,1 -11,2 0,0 0,0 0,0l0 0z"/>
   <path class="fil0 str0" d="M27 73c1,1 1,2 0,2 0,1 0,1 1,1 0,-1 0,-2 0,-3 -1,-1 -1,0 -1,0l0 0z"/>
   <path class="fil0 str0" d="M19 77c3,0 6,-1 8,-1 1,0 1,-1 0,-1 -2,1 -5,1 -8,1 0,1 0,1 0,1l0 0z"/>
   <path class="fil0 str0" d="M19 77c0,5 0,11 0,17 0,0 1,0 1,0 0,-6 0,-12 0,-17 0,-1 -1,-1 -1,0l0 0z"/>
   <path class="fil0 str0" d="M17 90c-1,0 -3,1 -2,2 0,1 1,2 2,2 2,0 3,0 4,-1 2,-1 1,-2 0,-3 -1,0 -1,1 -1,1 1,0 2,1 1,2 0,0 -1,0 -1,0 -1,0 -1,0 -2,0 -1,0 -1,0 -2,0 -1,-1 -1,-2 1,-2 0,0 0,-1 0,-1l0 0z"/>
   <path class="fil0 str0" d="M20 112c-10,-1 -11,17 0,16 5,0 8,-4 8,-9 -1,-4 -5,-7 -10,-7 0,0 0,1 0,1 4,-1 8,2 9,6 0,4 -2,7 -6,8 -10,2 -11,-16 -1,-14 0,0 1,-1 0,-1l0 0z"/>
  </g>
  <g id="_1868890887920">
   <path class="fil0 str0" d="M326 9c-4,7 -8,14 -11,22 0,0 0,0 0,0 1,1 3,2 5,4 0,0 1,1 2,1 0,1 1,1 2,2 0,0 1,0 1,-1 1,0 2,-1 3,-2 5,-5 10,-10 15,-14 0,0 -1,-1 -1,-1 -4,4 -7,8 -11,12 -2,1 -3,2 -5,4 0,0 -1,1 -2,1 -1,0 -1,-1 -2,-1 0,0 -1,-1 -1,-1 -2,-1 -3,-2 -4,-3 0,0 -1,-1 -1,-1 -1,-1 0,-1 0,-2 1,-2 2,-4 3,-6 3,-5 5,-9 7,-14 1,0 0,0 0,0l0 0z"/>
   <path class="fil0 str0" d="M325 8c5,7 11,11 19,13 0,0 0,0 0,0 0,-1 0,-1 1,-2 0,0 0,0 0,0 -8,-3 -14,-7 -18,-13 0,0 -1,0 -1,0 0,1 -1,1 -1,2 0,0 0,0 1,0 0,0 0,-1 0,-1 0,0 0,0 0,0 1,0 1,0 1,0 0,0 0,1 0,1 2,2 3,3 5,5 3,2 7,5 11,6 1,0 1,0 1,1 0,0 0,1 -1,1 0,0 0,0 -1,-1 -2,-1 -4,-1 -6,-3 -4,-2 -8,-5 -10,-9 -1,0 -1,0 -1,0z"/>
   <path class="fil0 str0" d="M340 9c3,3 5,6 3,10 0,0 1,0 1,0 1,-4 -1,-7 -4,-10 0,0 0,0 0,0l0 0z"/>
   <path class="fil0 str0" d="M327 7c4,-2 8,-1 12,1 0,0 0,0 0,0 -4,-3 -8,-4 -12,-1 0,0 0,0 0,0l0 0z"/>
   <path class="fil0 str0" d="M345 0c-3,3 -5,6 -8,9 0,0 1,1 1,0 2,-3 5,-6 7,-9 0,0 0,0 0,0l0 0z"/>
   <path class="fil0 str0" d="M345 1c2,1 4,2 6,3 0,1 1,0 0,0 -2,-1 -4,-3 -6,-4 0,0 0,0 0,1l0 0z"/>
   <path class="fil0 str0" d="M351 4c0,1 -1,1 -1,1 0,0 0,1 0,1 1,-1 1,-1 1,-2 0,0 0,0 0,0l0 0z"/>
   <path class="fil0 str0" d="M345 3c2,1 3,2 5,3 0,0 0,-1 0,-1 -1,-1 -3,-2 -4,-3 -1,0 -1,1 -1,1l0 0z"/>
   <path class="fil0 str0" d="M345 2c-2,3 -4,6 -7,8 0,1 0,1 1,1 2,-3 4,-6 7,-8 0,-1 0,-1 -1,-1l0 0z"/>
   <path class="fil0 str0" d="M339 8c-1,-1 -2,-1 -2,0 -1,0 0,1 0,2 1,0 2,1 3,1 1,1 1,-1 1,-1 -1,-1 -1,-1 -1,0 0,0 0,1 0,1 0,0 -1,0 -1,0 0,-1 -1,-1 -1,-1 0,-1 -1,-1 -1,-1 0,-1 1,-1 1,-1 1,0 1,0 1,0l0 0z"/>
   <path class="fil0 str0" d="M331 20c-4,-6 -12,3 -7,7 2,2 6,2 7,-1 2,-2 2,-6 -1,-7 0,0 0,0 0,0 2,2 3,4 1,7 -1,2 -4,2 -6,1 -6,-3 2,-12 5,-7 1,0 1,0 1,0l0 0z"/>
  </g>
  <g id="_1868890889168">
   <path class="fil0 str0" d="M10 302c3,8 4,16 7,23 1,0 1,0 1,0 2,0 3,0 5,-1 1,0 2,0 3,0 1,0 2,0 3,0 0,-1 0,-1 0,-2 0,-1 0,-2 1,-3 0,-7 0,-14 0,-21 0,0 -1,0 -1,0 0,6 0,11 0,16 0,3 0,5 0,7 0,0 0,2 -1,2 0,0 -1,0 -2,0 0,1 -1,1 -2,1 -1,0 -3,0 -4,1 0,0 -1,0 -2,0 0,-1 -1,-1 -1,-2 -1,-2 -1,-4 -2,-7 -2,-5 -3,-9 -5,-14 0,0 0,0 0,0l0 0z"/>
   <path class="fil0 str0" d="M9 302c7,1 15,0 22,-4 0,0 0,0 0,0 0,-1 -1,-1 -1,-2 0,0 0,0 0,0 -7,3 -14,5 -22,4 0,0 0,0 0,0 0,0 0,1 0,2 0,0 1,0 1,0 0,-1 0,-1 0,-2 0,0 0,0 0,0 -1,0 0,0 0,0 0,0 1,0 1,0 2,0 4,0 6,0 5,0 9,-1 13,-3 1,-1 1,-1 1,0 0,0 0,1 0,1 0,0 0,0 -1,0 -2,1 -4,2 -6,3 -5,1 -10,1 -14,0 -1,0 -1,1 0,1z"/>
   <path class="fil0 str0" d="M20 292c3,0 7,1 9,5 0,0 0,0 0,-1 -1,-3 -5,-4 -9,-4 0,0 -1,0 0,0l0 0z"/>
   <path class="fil0 str0" d="M9 300c1,-4 5,-7 9,-8 0,0 0,0 0,0 -4,1 -8,3 -9,8 0,0 0,0 0,0l0 0z"/>
   <path class="fil0 str0" d="M17 282c0,4 1,8 1,12 0,0 0,0 0,0 0,-4 0,-8 -1,-12 0,0 0,0 0,0l0 0z"/>
   <path class="fil0 str0" d="M17 283c2,-1 5,-1 7,-2 0,0 0,-1 0,-1 -2,1 -5,1 -7,2 0,0 0,1 0,1l0 0z"/>
   <path class="fil0 str0" d="M24 281c0,0 0,1 0,1 0,0 0,1 0,0 1,0 1,-1 0,-1 0,-1 0,0 0,0l0 0z"/>
   <path class="fil0 str0" d="M19 284c2,-1 3,-1 5,-1 0,-1 0,-1 0,-1 -2,0 -3,1 -5,1 0,0 0,1 0,1l0 0z"/>
   <path class="fil0 str0" d="M19 283c0,4 0,8 0,11 0,0 1,0 1,0 0,-3 0,-7 -1,-11 0,0 0,0 0,0l0 0z"/>
   <path class="fil0 str0" d="M18 292c-1,0 -2,1 -1,1 0,1 1,1 1,1 1,0 2,0 3,0 1,-1 0,-2 -1,-2 0,0 0,0 0,0 0,1 1,1 1,1 0,1 -1,1 -1,1 0,0 -1,0 -1,0 -1,0 -1,0 -1,0 -1,-1 -1,-1 0,-1 0,-1 0,-1 0,-1l0 0z"/>
   <path class="fil0 str0" d="M21 306c-7,-1 -6,11 0,10 3,0 5,-3 5,-6 -1,-3 -3,-5 -6,-4 -1,0 -1,0 0,0 2,0 5,1 5,4 1,2 -1,5 -3,5 -7,2 -7,-9 -1,-8 0,0 0,-1 0,-1l0 0z"/>
  </g>
  <g id="_1868890825904">
   <path class="fil0 str0" d="M321 362c-2,-5 -4,-10 -5,-15 0,0 -1,-1 -1,-2 1,0 1,0 2,0 1,0 2,0 4,0 2,0 5,0 7,0 2,0 5,0 7,0 2,0 3,0 4,1 1,-1 1,-1 2,0 0,1 -1,1 -1,2 -1,5 -3,9 -6,14 0,0 1,1 1,0 3,-5 5,-11 7,-17 0,0 0,0 -1,0 -9,-1 -17,-1 -26,-1 -1,0 -1,0 -1,1 2,6 4,11 6,17 0,0 1,0 1,0l0 0z"/>
   <path class="fil0 str0" d="M329 365c3,-7 6,-13 9,-20 0,0 0,0 -1,0 -2,6 -5,13 -8,19 0,1 0,1 0,1l0 0z"/>
   <path class="fil0 str0" d="M325 363c3,-6 6,-12 8,-18 0,0 0,-1 0,0 -3,6 -6,11 -9,17 0,1 1,1 1,1l0 0z"/>
   <path class="fil0 str0" d="M320 360c3,-5 6,-10 9,-15 0,0 -1,-1 -1,0 -3,5 -6,10 -8,15 -1,0 0,0 0,0l0 0z"/>
   <path class="fil0 str0" d="M318 354c2,-3 4,-6 5,-9 0,-1 0,-1 0,-1 -2,4 -4,7 -6,9 0,1 1,1 1,1l0 0z"/>
   <path class="fil0 str0" d="M319 345c2,6 4,12 7,18 0,0 0,0 0,0 -2,-6 -4,-12 -6,-19 0,0 -1,0 -1,1l0 0z"/>
   <path class="fil0 str0" d="M324 345c2,6 4,12 7,18 0,0 1,0 0,0 -2,-6 -4,-12 -6,-19 0,0 -1,0 -1,1l0 0z"/>
   <path class="fil0 str0" d="M330 345c1,5 3,10 5,15 0,1 1,1 1,0 -2,-5 -4,-10 -6,-15 0,-1 0,-1 0,0l0 0z"/>
   <path class="fil0 str0" d="M334 345c2,3 3,6 4,9 0,0 1,0 1,0 -1,-3 -3,-6 -4,-9 0,-1 -1,0 -1,0l0 0z"/>
   <path class="fil0 str0" d="M313 376c0,4 0,7 1,11 0,3 0,6 1,9 1,6 7,7 11,7 5,0 10,-1 12,-6 1,-6 2,-11 3,-17 0,0 -1,0 -1,0 -1,4 -1,8 -2,12 -1,2 -1,5 -2,7 -2,3 -6,3 -9,3 -3,0 -6,0 -8,-2 -3,-1 -4,-4 -4,-7 -1,-6 -1,-11 -2,-17 0,0 0,0 0,0l0 0z"/>
   <path class="fil0 str0" d="M326 380c5,1 10,0 14,-3 1,0 0,-1 0,0 -4,2 -9,3 -14,2 0,0 0,1 0,1l0 0z"/>
   <path class="fil0 str0" d="M312 376c2,1 3,1 5,2 0,0 1,-1 0,-1 -1,0 -3,-1 -4,-2 -1,0 -1,1 -1,1l0 0z"/>
   <path class="fil0 str0" d="M317 378c0,-3 2,-5 4,-6 2,-2 4,-3 7,-3 5,0 9,4 10,9 0,0 1,0 1,-1 -1,-5 -6,-9 -12,-9 -2,0 -5,1 -7,3 -1,2 -3,4 -3,7 0,0 0,0 0,0l0 0z"/>
   <path class="fil0 str0" d="M313 376c-5,-5 0,-12 5,-13 5,-2 12,0 12,6 0,1 1,1 1,0 0,-7 -9,-9 -14,-7 -5,2 -10,9 -4,14 0,0 1,0 0,0l0 0z"/>
   <path class="fil0 str0" d="M329 365c3,-3 7,-4 11,-2 3,2 5,6 4,9 0,1 1,1 1,1 1,-4 -1,-8 -5,-10 -3,-2 -8,-2 -11,1 0,0 0,1 0,1l0 0z"/>
   <path class="fil0 str0" d="M317 378c2,3 1,6 0,10 0,1 0,3 2,3 3,2 2,-5 2,-6 0,-1 0,-2 0,-3 0,0 1,0 1,0 0,1 0,2 0,2 0,1 0,2 0,3 0,1 1,1 2,1 3,0 0,-8 2,-8 1,0 1,-1 0,-1 -3,1 0,6 -1,8 -1,2 -2,0 -2,-1 0,-1 0,-2 0,-3 0,-1 0,-2 -1,-2 -3,-1 -1,7 -2,8 0,1 -2,1 -2,0 0,-1 0,-2 0,-2 1,-1 1,-2 1,-3 0,-3 0,-5 -2,-7 0,0 0,0 0,1l0 0z"/>
   <path class="fil0 str0" d="M344 372c0,2 0,3 -1,4 -1,0 -1,0 -1,1 0,0 -1,3 -1,3 0,0 0,-2 0,-2 0,-1 0,-1 -1,-1 0,-1 -1,0 0,0 0,1 0,2 0,3 0,1 0,1 1,1 1,0 1,-2 1,-2 0,-1 0,-2 1,-3 0,0 1,0 1,0 1,-1 1,-2 1,-4 0,0 -1,0 -1,0l0 0z"/>
   <path class="fil0 str0" d="M315 366c-1,1 -1,1 -1,2 0,0 0,1 1,1 1,1 2,-1 2,-2 1,0 0,0 0,0 -1,1 -1,2 -2,1 -1,0 0,-1 0,-1 1,-1 0,-1 0,-1l0 0z"/>
   <path class="fil0 str0" d="M340 371c0,1 0,4 2,3 1,-1 2,-3 1,-4 0,-1 -1,-1 0,0 0,1 0,2 -1,3 0,0 -1,0 -1,0 -1,-1 -1,-2 -1,-2 0,-1 0,-1 0,0l0 0z"/>
   <path class="fil0 str0" d="M328 374c0,1 0,3 1,3 1,1 1,1 1,1 1,-1 1,-1 1,-1 0,-1 0,-1 1,-1 0,0 0,0 0,1 0,0 0,0 1,0 0,0 1,0 1,0 1,-1 1,-2 1,-3 0,0 -1,0 -1,0 0,1 0,2 0,2 -1,0 -1,0 -2,0 0,-1 -1,-1 -1,-1 0,1 0,1 -1,2 0,0 0,0 0,0 -1,-1 -1,-1 -1,-1 0,-1 0,-1 0,-2 0,0 -1,0 -1,0l0 0z"/>
   <path class="fil0 str0" d="M333 365c0,0 0,1 0,2 0,0 0,0 1,0 0,0 0,0 0,0 0,0 0,1 0,1 0,0 1,1 1,1 1,0 1,0 2,-1 0,0 -1,-1 -1,0 0,0 -1,1 -1,0 0,-1 0,-1 0,-1 0,0 -1,-1 -1,-1 0,0 0,0 0,0 -1,0 0,0 0,-1 0,0 0,0 -1,0l0 0z"/>
   <path class="fil0 str0" d="M324 366c1,0 1,1 0,1 0,-1 0,-1 0,-1 0,0 -1,0 -1,0 0,0 0,1 0,1 0,0 0,0 0,0 -1,1 -1,0 -1,0 0,0 -1,0 -1,1 0,0 1,0 2,0 0,0 0,0 0,0 0,0 0,0 0,-1 0,0 1,0 1,0 0,0 0,0 -1,0 0,0 0,0 0,0 1,0 1,0 1,0 0,0 0,0 0,0 0,0 1,0 1,0 1,0 0,-1 0,-1 0,-1 -1,-1 -1,0l0 0z"/>
  </g>
  <g id="_1868890841232">
   <path class="fil0 str0" d="M63 290c-4,-5 -8,-10 -12,-15 0,0 -1,-1 -1,-1 0,-1 0,-1 1,-1 1,-1 3,-2 4,-2 3,-1 6,-2 9,-3 3,-2 6,-3 9,-4 1,0 3,-1 4,-1 1,-1 2,-1 2,0 0,1 0,1 0,2 1,6 1,13 0,19 0,1 1,1 1,0 1,-7 1,-15 0,-22 0,-1 0,-1 -1,-1 -10,4 -20,7 -31,12 0,0 0,0 0,0 5,6 10,12 15,18 0,0 1,-1 0,-1l0 0z"/>
   <path class="fil0 str0" d="M75 289c0,-8 1,-17 1,-26 0,-1 -1,0 -1,0 0,9 -1,18 -1,26 0,1 1,1 1,0l0 0z"/>
   <path class="fil0 str0" d="M68 289c1,-8 2,-16 2,-24 0,0 -1,-1 -1,0 0,8 -1,16 -2,24 0,1 1,1 1,0l0 0z"/>
   <path class="fil0 str0" d="M62 288c1,-7 2,-14 3,-21 0,-1 -1,-1 -1,0 -1,7 -2,14 -3,21 0,1 1,1 1,0l0 0z"/>
   <path class="fil0 str0" d="M57 282c0,-4 1,-8 1,-13 0,0 0,0 0,0 -1,5 -1,9 -2,13 -1,1 0,1 1,0l0 0z"/>
   <path class="fil0 str0" d="M53 271c5,6 11,12 16,18 1,1 1,0 1,0 -5,-6 -11,-12 -16,-18 0,-1 -1,0 -1,0l0 0z"/>
   <path class="fil0 str0" d="M59 269c5,6 11,12 16,18 1,0 1,0 1,-1 -6,-5 -11,-11 -16,-18 0,0 -1,0 -1,1l0 0z"/>
   <path class="fil0 str0" d="M66 267c4,5 9,10 13,15 1,0 1,0 1,-1 -5,-5 -9,-10 -13,-15 -1,0 -1,0 -1,1l0 0z"/>
   <path class="fil0 str0" d="M72 265c2,3 5,5 8,8 0,1 1,0 0,0 -2,-3 -5,-6 -8,-9 0,0 -1,0 0,1l0 0z"/>
   <path class="fil0 str0" d="M60 310c2,4 4,8 6,12 2,4 4,8 6,11 3,5 10,4 16,2 6,-2 11,-5 10,-12 0,-7 -2,-14 -3,-21 0,0 -1,0 -1,1 1,4 2,9 2,14 1,3 2,6 1,9 0,4 -5,6 -9,8 -3,1 -6,2 -10,2 -4,-1 -6,-4 -8,-8 -3,-6 -6,-12 -9,-18 0,-1 -1,0 -1,0l0 0z"/>
   <path class="fil0 str0" d="M78 309c6,-2 11,-5 15,-10 0,0 -1,-1 -1,0 -4,4 -9,7 -14,9 -1,0 -1,1 0,1l0 0z"/>
   <path class="fil0 str0" d="M60 310c2,0 4,1 6,0 1,0 1,0 0,0 -2,0 -4,0 -6,-1 0,0 -1,1 0,1l0 0z"/>
   <path class="fil0 str0" d="M66 310c-1,-3 1,-6 2,-8 1,-3 4,-6 7,-7 6,-2 12,1 15,6 1,0 1,0 1,-1 -4,-6 -11,-8 -17,-5 -3,1 -6,3 -7,6 -1,3 -3,6 -1,9 0,1 1,0 0,0l0 0z"/>
   <path class="fil0 str0" d="M61 309c-8,-3 -6,-13 -1,-17 5,-3 15,-4 17,2 1,1 2,1 1,0 -3,-8 -14,-6 -19,-2 -5,5 -7,15 1,18 1,0 1,0 1,-1l0 0z"/>
   <path class="fil0 str0" d="M75 290c2,-5 6,-7 11,-7 4,1 8,5 9,9 0,0 1,0 1,0 -1,-5 -5,-9 -10,-9 -5,-1 -10,2 -12,6 -1,1 0,1 1,1l0 0z"/>
   <path class="fil0 str0" d="M66 310c4,3 4,7 5,12 0,1 1,3 3,3 4,0 0,-8 0,-9 -1,-1 -1,-1 -1,-2 0,0 1,-1 1,-1 0,0 1,2 1,2 0,1 0,2 1,3 0,1 1,2 3,1 4,-1 -4,-9 -1,-10 0,0 0,-1 0,-1 -4,2 1,6 1,9 0,3 -2,1 -3,0 0,-1 0,-3 -1,-4 0,0 -1,-2 -2,-2 -4,1 2,9 2,11 0,2 -2,2 -3,0 0,0 0,-1 0,-2 -1,-1 -1,-3 -1,-4 -1,-3 -2,-5 -5,-6 0,-1 -1,0 0,0l0 0z"/>
   <path class="fil0 str0" d="M95 292c0,2 1,3 0,4 0,1 -1,1 -1,2 0,0 1,4 0,4 0,0 0,-2 0,-2 -1,-1 -1,-1 -2,-1 0,-1 -1,0 0,0 1,1 1,3 2,4 0,0 1,0 1,0 1,0 1,-2 1,-3 -1,-1 -1,-2 -1,-3 1,0 1,-1 1,-1 1,-2 0,-3 0,-4 0,-1 -1,-1 -1,0l0 0z"/>
   <path class="fil0 str0" d="M58 298c0,1 0,1 0,2 0,1 1,1 1,1 2,0 3,-2 3,-3 0,-1 -1,-1 -1,0 0,1 0,2 -1,2 -2,1 -1,-1 -1,-2 0,0 -1,-1 -1,0l0 0z"/>
   <path class="fil0 str0" d="M89 292c1,2 2,4 4,3 1,-2 1,-5 0,-6 -1,-1 -1,0 -1,0 1,1 1,3 1,4 0,1 -1,2 -2,1 0,-1 -1,-2 -1,-2 0,-1 -1,0 -1,0l0 0z"/>
   <path class="fil0 str0" d="M78 301c0,1 1,3 2,3 0,0 1,0 1,0 1,0 1,-1 1,-2 0,0 0,0 0,0 1,0 1,0 1,0 0,0 0,0 1,0 0,0 1,0 1,-1 1,-1 0,-2 0,-3 -1,0 -1,0 -1,1 0,0 1,1 1,2 -1,1 -2,0 -3,0 0,0 0,0 -1,0 0,1 0,2 0,2 0,0 -1,0 -1,0 0,0 0,0 -1,0 0,-1 0,-2 -1,-2 0,-1 -1,-1 0,0l0 0z"/>
   <path class="fil0 str0" d="M79 288c0,1 0,2 0,2 1,1 1,1 1,1 1,0 1,-1 1,-1 0,1 0,1 0,1 1,1 1,1 2,1 1,0 1,-1 1,-2 1,-1 0,-1 0,0 -1,1 -1,2 -2,1 0,-1 0,-1 0,-1 -1,-1 -1,-1 -1,-1 -1,1 -1,1 -1,1 0,-1 0,-1 0,-2 0,0 -1,0 -1,0l0 0z"/>
   <path class="fil0 str0" d="M69 293c1,0 1,1 0,1 0,0 0,0 0,0 -1,0 -1,0 -1,0 0,0 0,1 0,1 0,0 0,0 0,1 0,0 -1,0 -1,0 -1,-1 -1,0 -1,1 1,0 2,0 2,0 0,0 1,-1 1,-1 0,0 0,0 0,-1 0,0 0,0 0,0 0,0 0,0 0,0 -1,0 -1,0 0,0 0,0 0,0 0,0 0,0 0,0 0,0 1,0 1,0 1,0 1,-1 1,-2 0,-2 0,-1 -1,0 -1,0l0 0z"/>
  </g>
  <g id="_1868863274320">
   <path class="fil0 str0" d="M218 96c-8,-2 -16,-4 -24,-6 -1,0 -2,-1 -3,-1 -1,-1 -1,-2 0,-2 1,-2 3,-4 4,-6 2,-3 4,-6 6,-10 3,-3 5,-6 8,-10 1,-1 2,-4 3,-5 1,-1 1,-2 2,-1 1,0 2,1 2,2 5,6 10,13 14,20 1,1 2,0 1,0 -5,-9 -10,-17 -17,-24 0,-1 -1,-1 -1,0 -8,11 -17,24 -25,36 0,0 0,1 1,1 9,3 19,5 29,7 1,0 1,-1 0,-1l0 0z"/>
   <path class="fil0 str0" d="M230 87c-6,-10 -13,-20 -19,-30 -1,0 -2,1 -1,1 6,10 12,20 19,29 0,1 1,0 1,0l0 0z"/>
   <path class="fil0 str0" d="M223 91c-6,-9 -11,-18 -17,-27 0,-1 -1,0 -1,1 6,8 11,18 17,27 0,0 1,0 1,-1l0 0z"/>
   <path class="fil0 str0" d="M215 95c-4,-8 -9,-17 -13,-25 0,-1 -1,0 -1,1 4,8 8,16 13,25 0,1 1,0 1,-1l0 0z"/>
   <path class="fil0 str0" d="M205 93c-3,-5 -5,-11 -8,-15 -1,-1 -2,-1 -1,0 3,5 5,10 7,15 1,1 2,1 2,0l0 0z"/>
   <path class="fil0 str0" d="M193 83c10,3 20,6 31,8 1,0 1,-1 0,-2 -10,-2 -21,-4 -31,-7 -1,0 -1,1 0,1l0 0z"/>
   <path class="fil0 str0" d="M197 76c11,3 21,6 31,8 1,0 2,-1 1,-1 -11,-3 -21,-5 -31,-8 -1,0 -1,1 -1,1l0 0z"/>
   <path class="fil0 str0" d="M203 69c8,2 17,4 26,6 1,0 1,-1 0,-1 -8,-2 -17,-4 -26,-6 -1,-1 -1,1 0,1l0 0z"/>
   <path class="fil0 str0" d="M207 62c5,1 11,2 16,3 1,1 1,-1 0,-1 -5,-1 -10,-2 -15,-3 -1,0 -2,1 -1,1l0 0z"/>
   <path class="fil0 str0" d="M230 120c6,3 11,6 16,9 5,2 9,5 14,7 8,3 15,-4 19,-10 5,-7 8,-14 2,-21 -6,-7 -13,-14 -19,-20 -1,0 -2,0 -1,1 4,5 9,9 14,14 2,2 6,5 8,9 2,5 -1,10 -4,15 -3,4 -5,8 -10,10 -5,3 -9,0 -14,-2 -8,-4 -16,-8 -24,-13 -1,0 -1,1 -1,1l0 0z"/>
   <path class="fil0 str0" d="M248 105c5,-6 8,-13 9,-22 0,0 -2,0 -2,0 0,9 -3,15 -8,22 0,0 1,1 1,0l0 0z"/>
   <path class="fil0 str0" d="M230 121c2,-2 5,-3 7,-5 0,0 0,-1 -1,-1 -2,2 -4,3 -6,5 -1,0 -1,1 0,1l0 0z"/>
   <path class="fil0 str0" d="M237 115c-3,-2 -4,-6 -5,-10 -1,-4 0,-9 3,-12 4,-7 13,-9 20,-6 1,0 1,-1 1,-1 -9,-4 -18,-1 -23,7 -2,4 -3,8 -2,13 0,3 2,8 5,10 1,1 1,0 1,-1l0 0z"/>
   <path class="fil0 str0" d="M230 119c-11,3 -16,-10 -13,-18 2,-8 11,-16 20,-11 0,0 1,-1 0,-1 -9,-6 -20,4 -22,13 -2,9 4,21 15,18 1,0 1,-1 0,-1l0 0z"/>
   <path class="fil0 str0" d="M230 87c-1,-6 2,-13 7,-15 5,-3 12,-2 17,2 0,0 1,-1 0,-1 -4,-5 -11,-5 -17,-3 -6,4 -9,11 -8,17 0,1 1,1 1,0l0 0z"/>
   <path class="fil0 str0" d="M236 116c8,0 10,5 15,8 1,2 4,3 5,2 6,-4 -5,-9 -7,-10 -1,0 -1,-1 -2,-2 0,0 0,-1 1,-1 0,0 1,1 2,1 1,1 2,2 3,3 2,0 3,0 4,-1 3,-5 -10,-7 -9,-11 1,0 0,-1 -1,0 -2,4 7,5 8,8 3,4 -1,3 -3,2 -1,-1 -2,-2 -3,-3 -1,0 -3,-2 -4,0 -3,3 9,8 10,9 1,2 0,4 -2,3 -1,0 -2,-1 -3,-2 -1,-1 -2,-3 -4,-4 -2,-2 -6,-3 -9,-3 -1,0 -1,1 -1,1l0 0z"/>
   <path class="fil0 str0" d="M254 74c1,1 2,2 3,4 0,1 0,2 0,2 1,1 5,4 4,5 -1,0 -2,-2 -3,-2 -1,0 -1,0 -2,0 -1,0 -1,1 0,1 2,0 3,2 5,2 0,0 1,0 1,0 2,-1 0,-3 -1,-4 -1,-1 -2,-2 -3,-3 0,-1 0,-1 0,-2 -1,-2 -2,-3 -4,-4 0,-1 -1,0 0,1l0 0z"/>
   <path class="fil0 str0" d="M218 108c1,2 1,3 2,3 1,1 2,1 3,0 1,-1 1,-4 0,-5 -1,-1 -2,0 -1,1 0,1 1,2 0,3 -1,1 -2,-1 -2,-2 -1,-1 -2,0 -2,0l0 0z"/>
   <path class="fil0 str0" d="M248 78c1,2 5,4 5,0 1,-3 -2,-5 -4,-6 -1,0 -1,1 0,1 1,1 2,2 3,3 0,2 0,3 -1,3 -1,0 -2,-1 -3,-2 0,0 -1,1 0,1l0 0z"/>
   <path class="fil0 str0" d="M242 97c1,1 3,2 5,2 1,-1 1,-1 1,-2 0,-1 0,-1 0,-2 -1,0 -1,0 0,-1 0,0 0,0 0,0 1,0 1,0 1,-1 1,0 1,-1 1,-1 1,-2 -1,-3 -3,-4 0,0 -1,1 0,1 1,1 2,1 2,2 0,2 -1,2 -2,2 0,0 -1,1 -1,1 0,1 1,2 1,3 0,0 0,0 -1,1 0,-1 -1,-1 -1,-1 -1,0 -2,-1 -2,-1 -1,-1 -2,0 -1,1l0 0z"/>
   <path class="fil0 str0" d="M234 82c0,1 1,2 2,2 0,0 1,0 1,0 0,-1 0,-1 1,-1 0,0 0,0 0,0 1,1 2,1 3,0 1,-1 0,-2 0,-3 0,-1 -2,0 -1,0 0,1 0,3 -1,2 -1,0 -1,0 -1,0 -1,0 -1,0 -2,0 0,0 0,1 0,1 -1,0 -1,-1 -1,-2 0,0 -1,0 -1,1l0 0z"/>
   <path class="fil0 str0" d="M227 95c0,0 2,0 0,1 0,0 0,0 0,0 -1,0 -1,1 -1,1 0,0 0,1 1,1 0,0 0,0 0,1 0,0 0,1 -1,1 -1,0 -1,1 0,1 1,0 2,0 2,-1 1,-1 1,-1 0,-2 0,0 0,0 0,0 0,0 0,-1 0,-1 0,0 0,0 0,0 -1,0 -1,0 0,0 0,0 0,0 0,0 0,0 0,0 1,0 0,0 0,-1 0,-1 0,-2 -1,-2 -2,-2 0,0 -1,1 0,1l0 0z"/>
  </g>
  <g id="_1868875358928">
   <path class="fil0 str0" d="M87 111c1,0 6,1 7,2 1,2 -1,5 -2,7 0,1 0,1 1,1 2,1 6,1 7,3 1,2 -1,5 -2,7 0,1 0,1 1,1 1,1 5,2 6,2 1,2 -1,4 -1,6 0,2 0,2 1,3 0,1 3,1 4,2 3,2 1,3 0,6 0,1 0,1 1,1 1,0 5,1 6,2 1,1 -1,4 -1,6 0,1 0,1 1,1 1,1 4,1 5,3 1,2 -1,4 -2,6 0,1 2,2 2,1 1,-3 2,-5 2,-8 0,0 0,-1 0,-1 -2,0 -5,-1 -6,-2 0,-2 1,-5 2,-7 0,0 -1,-1 -1,-1 -2,0 -5,0 -6,-1 -1,-2 1,-4 2,-5 0,0 0,-1 -1,-1 -1,-1 -4,-1 -5,-2 -2,-3 -1,-6 0,-9 0,0 0,-1 -1,-1 -2,0 -6,-1 -7,-3 0,-1 2,-6 2,-7 1,0 0,-1 0,-1 -2,0 -6,-1 -7,-3 -1,-1 1,-5 1,-6 1,-1 0,-1 0,-2 -3,0 -6,-1 -9,-2 -1,0 -2,2 0,2l0 0z"/>
   <path class="fil0 str0" d="M86 109c-10,7 -19,13 -29,20 -2,1 -6,3 -7,5 -1,3 -1,8 -1,10 2,17 14,36 28,46 1,0 2,-1 1,-2 -13,-9 -24,-26 -27,-41 0,-6 -1,-10 4,-15 3,-2 7,-4 11,-7 7,-5 13,-9 20,-14 1,-1 0,-2 0,-2l0 0z"/>
   <path class="fil0 str0" d="M121 170c-15,7 -29,12 -44,18 -1,0 -1,2 1,2 14,-6 29,-12 44,-18 1,-1 0,-2 -1,-2l0 0z"/>
   <path class="fil0 str0" d="M87 109c-2,-4 0,-8 2,-11 3,-5 7,-8 13,-7 5,1 10,1 15,2 5,2 9,7 13,11 6,4 11,6 15,13 6,9 10,25 7,36 -2,6 -6,11 -10,14 -5,5 -15,10 -21,4 -1,-1 -2,1 -2,1 11,10 27,-3 32,-13 3,-6 4,-12 3,-19 -1,-9 -4,-19 -8,-26 -5,-7 -14,-10 -20,-16 -5,-6 -10,-6 -18,-7 -8,-1 -12,-4 -18,3 -4,4 -7,10 -5,16 1,1 2,0 2,-1l0 0z"/>
   <path class="fil0 str0" d="M110 101c3,1 5,2 7,3 0,-1 0,-1 0,-1 -1,1 -1,2 -2,3 0,0 1,0 1,0 -2,-1 -6,-3 -4,-5 1,-1 0,-2 -1,-1 -1,1 -2,3 -1,4 1,2 3,3 5,4 1,0 1,0 1,-1 1,-1 2,-2 2,-4 0,0 0,-1 0,-1 -2,-1 -5,-2 -7,-3 -1,0 -2,2 -1,2l0 0z"/>
   <path class="fil0 str0" d="M131 123c-1,1 -2,2 -3,3 -1,0 -1,1 -1,1 1,2 2,4 4,5 2,1 3,-1 5,-2 1,-1 3,-2 2,-4 -2,-2 -4,-3 -6,-4 -1,0 -1,2 0,2 1,0 2,1 3,2 1,1 1,1 1,2 0,0 -1,1 -1,1 -1,1 -2,2 -4,1 -1,0 -2,-2 -2,-4 0,1 0,1 0,1 1,0 2,-1 3,-3 1,0 0,-2 -1,-1l0 0z"/>
   <path class="fil0 str0" d="M129 153c2,0 4,0 6,0 0,0 0,-1 0,-1 -1,1 -1,3 -3,3 -1,0 -3,0 -4,0 0,0 0,1 0,1 2,-1 3,-3 3,-4 1,-2 -1,-2 -1,-1 -1,2 -2,3 -3,4 0,1 0,1 1,2 1,0 2,0 3,0 1,0 2,0 3,0 1,-1 2,-3 2,-4 0,-1 0,-2 -1,-2 -2,0 -4,0 -6,0 -1,0 -1,2 0,2l0 0z"/>
   <path class="fil0 str0" d="M116 125c1,2 2,3 3,4 0,0 0,-1 0,-1 -2,1 -4,2 -6,2 1,1 1,1 1,1 0,-1 -1,-2 -2,-4 0,1 0,1 0,2 2,-1 4,-3 6,-4 1,0 0,-2 -1,-1 -2,1 -4,2 -6,3 0,0 0,1 0,1 0,1 1,3 2,4 0,0 0,0 1,0 2,0 4,-1 6,-3 1,0 1,-1 0,-1 -1,-1 -2,-2 -2,-4 -1,-1 -2,0 -2,1l0 0z"/>
   <path class="fil0 str0" d="M142 140c-1,1 -1,1 -2,1 -1,0 -1,0 -1,1 0,0 0,0 1,0 1,1 2,0 3,0 1,-1 0,-2 -1,-2l0 0z"/>
   <path class="fil0 str0" d="M130 113c0,0 -1,0 -2,0 -1,1 -1,2 1,2 0,0 1,-1 2,-1 1,0 0,-2 -1,-1l0 0z"/>
   <path class="fil0 str0" d="M98 102c1,1 1,2 1,3 1,1 3,0 2,-1 0,-1 -1,-2 -1,-2 -1,-1 -2,-1 -2,0l0 0z"/>
   <path class="fil0 str0" d="M112 114c-1,0 -2,1 -3,1 -1,1 0,2 1,2 1,-1 2,-1 3,-2 1,0 0,-2 -1,-1l0 0z"/>
   <path class="fil0 str0" d="M117 142c1,1 2,2 3,2 1,1 2,0 1,-1 -1,-1 -1,-1 -2,-2 -1,-1 -2,0 -2,1l0 0z"/>
   <path class="fil0 str0" d="M141 154c0,1 0,2 -1,3 0,1 1,2 2,1 1,-1 1,-3 1,-4 0,-1 -2,-1 -2,0l0 0z"/>
   <path class="fil0 str0" d="M131 166c1,0 2,0 3,0 1,0 1,-1 0,-2 -1,0 -2,0 -3,0 -1,0 -1,2 0,2l0 0z"/>
   <path class="fil0 str0" d="M140 122c1,0 1,1 1,1 0,1 1,1 1,1 1,0 1,-1 1,-1 0,-1 -1,-1 -1,-2 0,0 -1,-1 -1,0 -1,0 -1,1 -1,1l0 0z"/>
   <path class="fil0 str0" d="M93 119c-14,8 -28,17 -42,26 -1,1 0,2 1,2 13,-10 28,-18 42,-26 1,-1 0,-2 -1,-2l0 0z"/>
   <path class="fil0 str0" d="M100 130c-16,9 -32,17 -47,25 -1,1 0,3 1,2 15,-8 31,-17 46,-25 1,-1 1,-2 0,-2l0 0z"/>
   <path class="fil0 str0" d="M106 141c-16,9 -32,17 -48,25 -1,1 0,3 1,2 16,-8 32,-17 48,-26 1,0 0,-2 -1,-1l0 0z"/>
   <path class="fil0 str0" d="M111 150c-16,8 -32,16 -49,24 -1,1 0,2 1,2 16,-8 32,-16 48,-25 1,0 1,-2 0,-1l0 0z"/>
   <path class="fil0 str0" d="M116 159c-16,7 -32,14 -48,21 -1,1 0,2 1,2 16,-7 32,-14 48,-21 1,-1 0,-2 -1,-2l0 0z"/>
  </g>
  <g id="_1868891629072">
   <path class="fil0 str0" d="M305 104c1,-1 3,-3 4,-3 1,0 2,3 3,4 0,0 0,0 0,0 1,-1 3,-3 4,-3 1,1 2,3 3,4 0,0 0,1 0,0 1,0 3,-2 4,-2 1,0 1,2 2,3 1,0 1,1 1,1 1,0 3,-1 3,-2 2,0 2,1 3,3 0,0 1,0 1,0 0,0 2,-2 3,-2 1,0 2,2 2,3 0,0 1,0 1,0 1,-1 2,-2 3,-2 1,1 2,3 2,3 1,1 2,0 1,0 0,-2 -1,-3 -2,-4 0,0 -1,0 -1,0 -1,0 -2,2 -3,1 -1,0 -2,-2 -2,-3 -1,0 -1,0 -1,0 -1,1 -2,2 -3,2 -1,0 -1,-1 -1,-2 -1,-1 -1,-1 -1,0 -1,0 -2,1 -3,1 -2,0 -3,-2 -4,-3 0,0 -1,0 -1,0 -1,0 -3,2 -4,2 0,-1 -2,-3 -2,-4 0,0 -1,0 -1,0 -1,1 -3,2 -4,2 -1,0 -2,-2 -2,-3 0,-1 -1,-1 -1,0 -1,1 -3,2 -4,3 -1,0 0,1 0,1l0 0z"/>
   <path class="fil0 str0" d="M304 103c-1,7 -1,14 -2,21 0,1 -1,4 0,5 0,2 3,3 4,4 8,6 21,8 31,5 1,0 0,-1 0,-1 -9,2 -21,1 -29,-4 -3,-2 -5,-3 -5,-7 0,-3 0,-5 1,-8 0,-5 1,-9 1,-14 0,-1 -1,-1 -1,-1l0 0z"/>
   <path class="fil0 str0" d="M345 111c-3,9 -6,18 -9,26 0,1 1,1 1,1 3,-9 6,-18 9,-27 0,-1 -1,-1 -1,0l0 0z"/>
   <path class="fil0 str0" d="M304 103c-2,-1 -3,-4 -4,-6 -1,-3 -1,-6 2,-8 3,-2 5,-4 7,-6 3,-2 6,-1 10,-2 4,-1 7,-2 11,-2 7,2 16,6 19,11 2,3 3,7 3,10 0,4 -2,11 -7,11 0,0 0,1 1,1 8,-1 8,-13 6,-19 -2,-4 -4,-7 -8,-9 -4,-3 -10,-5 -15,-6 -5,-1 -9,2 -14,3 -5,0 -7,2 -11,5 -3,3 -6,4 -5,9 0,4 2,8 5,9 1,0 1,-1 0,-1l0 0z"/>
   <path class="fil0 str0" d="M310 89c1,-1 2,-1 4,-2 -1,0 -1,0 -1,0 0,1 1,1 1,2 0,0 0,0 0,-1 -1,1 -3,2 -4,0 0,-1 -1,0 -1,0 0,1 1,2 2,2 1,1 3,0 4,-1 0,0 0,0 0,0 0,-1 -1,-2 -1,-3 0,0 -1,0 -1,0 -1,1 -2,1 -4,2 0,1 0,2 1,1l0 0z"/>
   <path class="fil0 str0" d="M328 88c0,1 0,2 0,3 0,0 0,0 0,0 1,1 3,1 4,1 1,-1 1,-2 1,-3 0,-1 0,-2 -1,-3 -2,0 -3,1 -4,1 -1,1 0,2 0,1 1,0 2,-1 3,-1 0,0 1,0 1,1 0,0 0,0 0,1 0,0 0,1 -1,2 -1,0 -2,0 -2,-1 0,1 0,1 0,1 0,-1 0,-2 0,-3 0,-1 -1,-1 -1,0l0 0z"/>
   <path class="fil0 str0" d="M341 100c0,-1 1,-1 2,-2 0,0 -1,0 -1,-1 0,1 1,2 1,3 -1,1 -2,1 -2,2 0,0 0,0 1,0 0,-1 -1,-2 -1,-3 -1,-1 -1,0 -1,0 0,1 1,2 1,3 0,1 0,1 1,0 0,0 1,0 1,-1 0,0 1,-1 1,-1 0,-1 -1,-2 -1,-3 0,0 -1,0 -1,0 -1,1 -1,2 -2,3 -1,0 0,1 1,0l0 0z"/>
   <path class="fil0 str0" d="M323 96c1,0 2,0 3,0 0,0 -1,-1 -1,-1 0,2 0,3 -1,4 0,0 1,0 1,0 -1,0 -2,-1 -2,-1 0,0 0,1 0,1 0,-1 0,-3 1,-4 0,-1 -1,-1 -1,0 -1,1 -1,2 -1,4 0,0 0,0 0,0 1,0 2,1 3,1 0,0 0,0 0,-1 1,-1 1,-2 1,-4 0,0 0,0 0,0 -1,0 -2,0 -3,0 0,-1 -1,0 0,1l0 0z"/>
   <path class="fil0 str0" d="M340 90c0,0 -1,1 -1,1 0,0 0,0 0,1 0,0 1,0 1,0 0,-1 1,-1 1,-2 0,-1 -1,-1 -1,0l0 0z"/>
   <path class="fil0 str0" d="M323 84c0,1 -1,1 -1,2 0,0 1,1 1,0 0,0 0,-1 1,-1 0,-1 -1,-1 -1,-1l0 0z"/>
   <path class="fil0 str0" d="M306 95c0,0 1,0 1,0 1,1 1,-1 1,-1 -1,0 -1,0 -2,0 -1,0 -1,1 0,1l0 0z"/>
   <path class="fil0 str0" d="M316 93c0,1 0,1 0,2 0,1 1,1 1,0 0,0 0,-1 0,-2 0,0 -1,-1 -1,0l0 0z"/>
   <path class="fil0 str0" d="M331 102c1,-1 1,-1 2,-1 1,0 1,-1 0,-1 -1,0 -1,0 -2,1 -1,0 -1,1 0,1l0 0z"/>
   <path class="fil0 str0" d="M346 95c0,1 0,1 1,2 0,1 1,0 1,0 -1,-1 -1,-2 -2,-3 0,0 -1,1 0,1l0 0z"/>
   <path class="fil0 str0" d="M347 105c0,-1 1,-1 1,-2 1,0 0,-1 0,0 -1,0 -1,1 -2,1 0,0 1,1 1,1l0 0z"/>
   <path class="fil0 str0" d="M331 83c0,0 0,1 1,1 0,0 0,0 0,0 1,-1 0,-1 0,-1 0,0 -1,-1 -1,-1 0,0 -1,1 -1,1 0,0 1,0 1,0l0 0z"/>
   <path class="fil0 str0" d="M312 104c-2,9 -4,19 -5,29 0,1 1,1 1,0 1,-10 3,-19 5,-29 0,-1 -1,-1 -1,0l0 0z"/>
   <path class="fil0 str0" d="M319 105c-2,10 -4,21 -7,31 0,0 1,1 1,0 3,-10 5,-21 7,-31 0,0 -1,-1 -1,0l0 0z"/>
   <path class="fil0 str0" d="M326 106c-2,11 -4,21 -7,32 0,0 1,1 1,0 3,-11 5,-21 7,-32 0,0 -1,0 -1,0l0 0z"/>
   <path class="fil0 str0" d="M332 108c-2,10 -5,20 -8,31 0,0 1,1 1,0 3,-10 6,-21 8,-31 0,-1 -1,-1 -1,0l0 0z"/>
   <path class="fil0 str0" d="M338 109c-3,10 -6,20 -9,30 0,0 1,0 1,0 3,-10 6,-20 9,-30 1,-1 0,-1 -1,0l0 0z"/>
  </g>
  <g id="_1868891633072">
   <path class="fil0 str0" d="M124 46c-2,-4 -4,-8 -5,-13 -1,0 -1,-1 -1,-1 0,-1 0,-1 1,-1 1,0 2,0 4,0 2,0 4,0 6,-1 2,0 5,0 7,0 1,0 2,0 3,0 1,0 1,0 1,0 0,1 0,1 0,2 -1,4 -2,8 -4,13 0,0 1,0 1,0 2,-5 3,-10 4,-16 0,0 0,0 0,0 -8,0 -16,1 -24,2 0,0 0,0 0,0 2,5 4,10 7,15 0,0 1,0 0,0l0 0z"/>
   <path class="fil0 str0" d="M132 48c2,-6 4,-12 6,-18 0,-1 0,-1 -1,-1 -1,6 -3,12 -5,18 -1,1 0,1 0,1l0 0z"/>
   <path class="fil0 str0" d="M128 46c2,-5 4,-11 6,-16 0,0 -1,-1 -1,0 -2,5 -4,10 -6,16 0,0 1,1 1,0l0 0z"/>
   <path class="fil0 str0" d="M124 44c2,-4 4,-9 6,-14 0,0 -1,0 -1,0 -2,5 -4,9 -6,14 0,0 0,1 1,0l0 0z"/>
   <path class="fil0 str0" d="M121 39c2,-3 3,-5 4,-8 0,-1 -1,-1 -1,-1 -1,3 -2,6 -3,9 -1,0 0,0 0,0l0 0z"/>
   <path class="fil0 str0" d="M121 31c2,5 5,10 8,15 0,1 0,1 0,0 -2,-5 -5,-10 -7,-15 0,-1 -1,0 -1,0l0 0z"/>
   <path class="fil0 str0" d="M126 30c2,6 4,11 7,16 0,0 1,0 1,0 -3,-5 -6,-10 -8,-16 0,0 -1,0 0,0l0 0z"/>
   <path class="fil0 str0" d="M131 30c2,5 4,9 6,13 0,1 1,0 1,0 -3,-4 -5,-9 -7,-13 0,-1 -1,0 0,0l0 0z"/>
   <path class="fil0 str0" d="M135 30c1,2 2,5 4,7 0,1 1,1 0,0 -1,-2 -2,-5 -4,-7 0,-1 0,-1 0,0l0 0z"/>
   <path class="fil0 str0" d="M118 59c1,3 2,7 2,10 1,2 1,5 2,8 2,4 7,5 11,4 4,0 8,-1 9,-6 1,-5 1,-10 2,-15 0,0 -1,0 -1,0 0,4 -1,7 -1,11 0,2 0,4 -1,6 -1,3 -5,3 -8,4 -2,0 -5,0 -7,-1 -3,-1 -3,-4 -4,-6 -1,-5 -2,-10 -3,-15 0,0 -1,0 -1,0l0 0z"/>
   <path class="fil0 str0" d="M131 62c4,0 8,-2 12,-4 0,-1 0,-1 -1,-1 -3,3 -7,4 -11,4 -1,0 -1,1 0,1l0 0z"/>
   <path class="fil0 str0" d="M118 59c2,1 3,1 4,1 1,1 1,0 0,0 -1,0 -2,-1 -4,-1 0,0 0,0 0,0l0 0z"/>
   <path class="fil0 str0" d="M123 60c-1,-2 1,-4 2,-5 2,-2 4,-3 6,-3 5,-1 9,2 10,6 0,1 1,0 1,0 -2,-5 -6,-8 -11,-7 -3,0 -5,2 -6,3 -2,2 -3,4 -3,6 0,1 1,1 1,0l0 0z"/>
   <path class="fil0 str0" d="M119 59c-5,-4 -2,-10 3,-12 4,-2 11,-1 11,5 0,0 1,0 1,-1 -1,-5 -8,-7 -13,-4 -5,2 -8,9 -3,12 1,0 1,0 1,0l0 0z"/>
   <path class="fil0 str0" d="M132 48c2,-3 6,-4 9,-2 3,1 5,4 5,7 0,1 0,1 0,0 1,-3 -1,-7 -5,-8 -3,-2 -7,0 -9,2 -1,1 0,1 0,1l0 0z"/>
   <path class="fil0 str0" d="M122 60c3,3 2,6 2,9 0,1 0,3 1,3 3,1 2,-5 1,-6 0,-1 0,-1 0,-2 1,0 1,0 1,0 1,0 0,1 0,1 1,1 0,2 1,3 0,0 0,1 1,1 3,0 0,-7 2,-7 0,0 0,-1 0,-1 -3,0 0,5 -1,6 -1,2 -2,1 -2,0 0,-1 0,-2 0,-3 0,0 0,-2 -1,-2 -3,0 0,7 -1,8 0,1 -1,1 -2,0 0,-1 0,-1 0,-2 1,-1 1,-2 1,-3 0,-2 -1,-4 -2,-5 -1,0 -1,0 -1,0l0 0z"/>
   <path class="fil0 str0" d="M146 53c0,1 0,2 -1,3 0,0 -1,1 -1,1 0,0 0,3 0,3 0,0 0,-2 -1,-2 0,0 0,0 0,-1 0,0 -1,0 -1,1 1,0 1,1 1,2 0,1 0,1 1,1 1,0 1,-1 1,-2 0,-1 0,-2 0,-2 0,0 1,-1 1,-1 0,-1 1,-2 0,-3 0,0 0,0 0,0l0 0z"/>
   <path class="fil0 str0" d="M119 50c0,1 0,1 0,2 0,0 0,1 1,1 1,0 2,-1 2,-2 0,0 -1,0 -1,0 0,1 0,1 -1,1 -1,0 -1,-1 0,-1 0,-1 0,-1 -1,-1l0 0z"/>
   <path class="fil0 str0" d="M142 52c0,1 0,3 2,3 1,-1 1,-3 1,-4 0,-1 -1,-1 -1,0 1,1 1,2 0,2 0,1 -1,1 -1,1 -1,-1 -1,-1 -1,-2 0,0 0,0 0,0l0 0z"/>
   <path class="fil0 str0" d="M132 56c0,1 0,2 1,3 0,0 1,0 1,0 1,0 0,-1 1,-1 0,0 0,0 0,0 0,0 1,0 1,0 0,0 0,0 0,0 1,0 1,0 1,0 1,-1 1,-2 1,-3 0,0 -1,0 -1,1 0,0 0,1 0,1 -1,1 -1,0 -2,0 0,0 0,0 0,0 -1,0 -1,1 -1,1 0,0 0,0 -1,0 0,0 0,0 0,0 0,-1 0,-1 0,-2 0,0 -1,0 -1,0l0 0z"/>
   <path class="fil0 str0" d="M136 47c-1,1 -1,2 -1,2 1,0 1,0 1,0 0,0 0,0 1,1 0,0 0,0 0,0 0,1 0,1 1,1 0,0 1,-1 1,-1 0,-1 -1,-1 -1,0 0,0 0,1 -1,0 0,0 0,-1 0,-1 0,0 0,0 -1,0 0,0 0,0 0,0 0,-1 0,-1 0,-1 0,0 0,-1 0,-1l0 0z"/>
   <path class="fil0 str0" d="M128 49c0,0 0,1 0,1 -1,0 -1,0 -1,0 0,-1 0,-1 0,0 0,0 0,0 0,0 -1,0 0,0 -1,1 0,0 0,0 0,0 -1,-1 -1,0 -1,0 0,0 1,1 1,0 1,0 1,0 1,0 0,0 0,0 0,0 0,0 0,-1 0,-1 0,0 0,0 0,0 0,0 0,0 0,0 0,0 0,0 0,0 0,0 0,0 1,1 0,0 0,0 0,-1 1,0 1,-1 1,-1 -1,0 -1,0 -1,0l0 0z"/>
  </g>
  <g id="_1868891639728">
   <path class="fil0 str0" d="M361 265c0,-1 2,-2 2,-2 1,0 2,2 2,2 0,1 1,1 1,1 1,-1 2,-2 3,-2 1,0 1,2 2,3 0,0 0,0 0,0 1,0 2,-2 3,-2 1,0 1,2 2,2 0,1 0,1 1,1 0,0 1,-1 2,-1 1,-1 1,0 2,2 0,0 0,0 0,0 1,0 2,-2 3,-2 1,0 1,2 2,2 0,1 0,1 0,0 1,0 2,-1 3,-1 1,1 1,2 1,3 1,0 1,0 1,-1 -1,-1 -1,-2 -2,-3 0,0 0,0 0,0 -1,1 -2,1 -3,1 -1,0 -1,-1 -2,-2 0,0 0,0 0,0 -1,0 -2,2 -3,2 0,0 0,-2 -1,-2 0,-1 0,-1 0,-1 -1,1 -2,2 -2,2 -2,0 -3,-2 -3,-3 0,0 -1,0 -1,0 -1,1 -2,2 -3,2 0,-1 -1,-3 -2,-3 0,0 0,0 0,0 -1,0 -2,1 -3,1 -1,0 -2,-1 -2,-2 0,0 0,0 -1,0 -1,0 -2,1 -3,2 0,0 0,1 1,1l0 0z"/>
   <path class="fil0 str0" d="M360 265c-1,5 -1,10 -2,15 0,1 -1,3 0,4 0,1 2,2 3,3 6,5 16,6 24,4 0,0 0,-1 -1,-1 -6,2 -15,1 -21,-3 -3,-1 -4,-2 -4,-5 0,-2 0,-4 0,-6 1,-4 1,-8 1,-11 0,-1 0,-1 0,0l0 0z"/>
   <path class="fil0 str0" d="M391 270c-2,7 -4,14 -7,20 0,1 1,1 1,1 2,-7 5,-14 7,-21 0,0 -1,0 -1,0l0 0z"/>
   <path class="fil0 str0" d="M360 264c-2,0 -3,-2 -3,-4 -1,-3 -1,-4 1,-6 2,-2 4,-3 5,-5 2,-1 5,-1 8,-1 3,-1 5,-2 9,-2 4,1 11,4 14,9 1,2 2,5 2,7 0,3 -1,8 -5,9 0,0 0,0 0,0 6,-1 7,-10 5,-14 -1,-3 -3,-5 -6,-7 -3,-2 -7,-4 -11,-5 -4,0 -8,2 -11,2 -4,1 -5,2 -8,4 -3,3 -5,3 -4,8 0,2 1,5 4,6 0,0 0,-1 0,-1l0 0z"/>
   <path class="fil0 str0" d="M364 254c1,-1 2,-1 3,-2 0,0 0,0 -1,0 1,1 1,1 1,2 0,0 0,-1 0,-1 0,1 -2,2 -2,0 0,0 -1,0 -1,0 0,1 0,1 1,2 1,0 2,-1 3,-1 0,0 0,0 0,-1 0,0 -1,-1 -1,-1 0,-1 0,-1 0,-1 -1,1 -2,1 -3,2 -1,0 0,1 0,1l0 0z"/>
   <path class="fil0 str0" d="M378 253c0,1 0,1 0,2 0,0 0,0 0,0 1,1 2,1 3,1 1,-1 0,-2 0,-3 0,0 0,-1 0,-1 -1,0 -2,0 -3,0 -1,1 0,1 0,1 1,0 1,-1 2,-1 0,0 1,0 1,1 0,0 0,0 0,0 0,1 0,2 -1,2 0,0 -1,0 -2,0 0,0 0,0 0,0 1,-1 1,-1 0,-2 0,-1 0,0 0,0l0 0z"/>
   <path class="fil0 str0" d="M387 262c1,0 2,-1 2,-2 0,0 0,0 0,0 0,1 0,1 0,2 0,0 -1,1 -1,1 0,0 0,0 0,1 0,-1 0,-2 -1,-3 0,0 0,0 0,1 0,0 0,1 0,2 0,0 1,0 1,0 0,0 1,-1 1,-1 1,0 1,-1 1,-1 0,-1 0,-2 -1,-2 0,0 0,-1 0,0 -1,0 -2,1 -2,2 -1,0 0,1 0,0l0 0z"/>
   <path class="fil0 str0" d="M374 259c1,0 1,0 2,0 0,0 0,0 0,-1 0,1 -1,2 -1,3 0,0 0,0 0,0 0,0 -1,0 -1,0 0,0 0,0 0,0 0,-1 0,-2 1,-3 0,0 -1,-1 -1,0 0,1 -1,2 -1,3 0,0 0,0 1,0 0,1 1,1 1,1 0,0 1,0 1,0 0,-1 1,-2 1,-4 0,0 -1,0 -1,0 -1,0 -1,0 -2,0 0,0 0,1 0,1l0 0z"/>
   <path class="fil0 str0" d="M387 254c0,1 -1,1 -1,1 0,0 0,1 0,1 0,0 1,0 1,0 0,-1 0,-1 1,-2 0,0 -1,0 -1,0l0 0z"/>
   <path class="fil0 str0" d="M374 250c0,0 0,1 -1,1 0,1 1,1 1,0 0,0 0,0 1,0 0,-1 -1,-1 -1,-1l0 0z"/>
   <path class="fil0 str0" d="M361 258c0,0 1,0 1,1 1,0 1,-1 0,-1 0,0 0,0 -1,-1 0,0 -1,1 0,1l0 0z"/>
   <path class="fil0 str0" d="M369 257c0,0 0,1 0,1 -1,1 0,1 0,1 0,-1 1,-2 1,-2 0,-1 -1,-1 -1,0l0 0z"/>
   <path class="fil0 str0" d="M380 263c1,0 1,0 2,0 0,0 0,-1 0,-1 -1,0 -1,0 -2,0 0,0 0,1 0,1l0 0z"/>
   <path class="fil0 str0" d="M391 258c1,1 1,1 1,2 0,0 1,0 1,-1 0,0 -1,-1 -1,-1 -1,-1 -1,0 -1,0l0 0z"/>
   <path class="fil0 str0" d="M392 266c1,-1 1,-1 1,-1 1,-1 0,-1 0,-1 -1,0 -1,1 -1,1 -1,0 0,1 0,1l0 0z"/>
   <path class="fil0 str0" d="M380 249c0,1 0,1 1,1 0,0 0,0 0,0 0,-1 0,-1 0,-1 0,0 -1,0 -1,0 0,0 0,0 0,0 0,0 0,0 0,0l0 0z"/>
   <path class="fil0 str0" d="M365 265c-1,7 -2,14 -3,22 0,0 1,1 1,0 0,-7 2,-15 3,-22 0,-1 0,-1 -1,0l0 0z"/>
   <path class="fil0 str0" d="M371 266c-2,8 -3,15 -5,23 0,1 1,1 1,0 1,-7 3,-15 5,-23 0,-1 -1,-1 -1,0l0 0z"/>
   <path class="fil0 str0" d="M376 267c-1,8 -3,16 -5,24 0,0 1,0 1,0 2,-8 4,-16 5,-24 0,-1 -1,-1 -1,0l0 0z"/>
   <path class="fil0 str0" d="M381 268c-2,8 -4,16 -6,23 0,1 1,1 1,1 2,-8 4,-16 6,-24 0,-1 -1,-1 -1,0l0 0z"/>
   <path class="fil0 str0" d="M386 269c-3,7 -5,15 -7,22 0,1 0,1 1,0 2,-7 4,-15 7,-22 0,-1 -1,-1 -1,0l0 0z"/>
  </g>
  <g id="_1868891645168">
   <path class="fil0 str0" d="M129 326c0,-1 0,-3 0,-4 1,0 2,0 3,0 0,0 1,0 1,0 0,-1 -1,-3 0,-4 1,0 3,0 3,0 1,0 1,0 1,0 0,0 0,-2 0,-3 1,-1 2,0 3,0 0,0 1,0 1,-1 0,0 0,-1 0,-2 1,-1 2,-1 3,-1 0,0 0,0 0,0 0,0 0,-3 0,-3 1,0 2,0 3,0 1,0 1,0 1,0 0,-1 0,-3 0,-3 1,-1 2,0 3,0 1,0 1,-1 0,-1 -1,0 -2,0 -3,0 0,0 -1,0 -1,0 0,1 0,2 0,3 -1,0 -2,0 -3,0 0,0 -1,0 0,1 0,0 0,2 -1,2 0,1 -1,0 -2,0 0,0 0,0 0,0 0,1 0,2 -1,3 0,1 -2,1 -3,1 0,0 -1,0 -1,0 0,1 1,3 0,3 -1,1 -3,0 -4,0 0,0 0,0 0,1 0,1 0,2 0,3 -1,1 -3,0 -3,0 -1,0 -1,0 -1,0 0,2 0,3 0,4 0,1 1,1 1,1l0 0z"/>
   <path class="fil0 str0" d="M128 326c4,4 8,7 12,10 1,1 2,3 3,3 1,0 3,0 4,-1 8,-2 14,-9 17,-16 0,-1 0,-1 -1,-1 -2,7 -8,13 -15,16 -2,1 -4,2 -7,0 -1,-1 -2,-3 -4,-4 -3,-2 -5,-5 -8,-7 -1,-1 -1,0 -1,0l0 0z"/>
   <path class="fil0 str0" d="M151 304c4,6 8,12 12,18 1,0 1,0 1,-1 -4,-6 -8,-12 -12,-17 -1,-1 -1,0 -1,0l0 0z"/>
   <path class="fil0 str0" d="M128 326c-1,1 -4,0 -5,0 -3,-1 -4,-2 -4,-5 0,-2 -1,-5 -1,-7 0,-2 2,-4 3,-7 1,-3 2,-5 4,-8 4,-3 10,-7 15,-6 3,0 6,1 8,2 2,2 5,6 3,9 0,1 1,1 1,1 3,-6 -4,-11 -9,-13 -3,0 -6,0 -9,1 -3,1 -7,4 -10,6 -3,3 -3,7 -5,10 -2,4 -2,6 -1,9 0,4 -1,6 3,8 2,1 5,2 8,0 0,0 -1,-1 -1,0l0 0z"/>
   <path class="fil0 str0" d="M122 316c0,-1 0,-2 0,-3 0,0 0,0 0,0 1,0 1,0 2,1 0,-1 0,-1 0,-1 -1,1 -1,3 -2,2 -1,0 -1,1 -1,1 1,1 2,0 2,0 1,-1 1,-2 1,-3 0,0 0,0 0,0 -1,0 -1,0 -2,0 0,0 0,0 0,0 -1,1 -1,2 -1,3 0,1 1,1 1,0l0 0z"/>
   <path class="fil0 str0" d="M129 305c1,0 2,1 2,1 0,0 0,0 0,0 1,0 2,-1 2,-2 0,-1 0,-2 -1,-2 -1,-1 -1,-1 -2,0 -1,0 -1,1 -1,2 0,1 1,1 1,0 0,0 0,-1 0,-1 0,-1 1,-1 1,-1 0,0 0,1 1,1 0,0 1,0 1,1 -1,1 -1,1 -2,1 0,0 0,0 1,0 -1,0 -1,0 -2,-1 -1,0 -1,1 -1,1l0 0z"/>
   <path class="fil0 str0" d="M143 302c-1,0 -1,-1 -1,-2 0,0 0,0 0,0 0,0 1,0 1,1 1,1 1,1 1,2 0,0 0,0 0,-1 -1,0 -1,0 -2,0 -1,0 -1,0 0,0 0,1 1,1 2,1 0,0 0,0 0,0 0,-1 0,-1 0,-2 0,0 0,-1 0,-1 0,0 -2,0 -2,-1 0,0 -1,1 -1,1 0,1 1,2 1,3 0,0 1,0 1,-1l0 0z"/>
   <path class="fil0 str0" d="M132 311c1,0 1,-1 1,-2 0,1 0,1 0,1 1,0 1,1 2,2 0,0 0,0 0,-1 -1,1 -1,1 -2,2 1,0 1,0 1,0 -1,-1 -1,-2 -2,-3 -1,0 -1,1 -1,1 1,1 2,1 2,2 0,0 1,0 1,0 0,0 1,-1 1,-1 0,0 0,0 0,-1 0,-1 -1,-1 -2,-2 0,0 0,0 0,0 -1,1 -1,1 -2,1 0,1 1,1 1,1l0 0z"/>
   <path class="fil0 str0" d="M136 298c0,0 0,1 0,1 0,0 0,1 1,0 0,0 0,0 0,0 0,-1 0,-1 -1,-1 0,-1 -1,0 0,0l0 0z"/>
   <path class="fil0 str0" d="M125 306c0,1 0,1 0,1 1,1 1,0 1,0 0,-1 0,-1 0,-1 -1,-1 -1,0 -1,0l0 0z"/>
   <path class="fil0 str0" d="M124 321c0,0 1,0 1,0 0,-1 0,-1 -1,-1 0,0 0,1 -1,1 0,0 1,1 1,0l0 0z"/>
   <path class="fil0 str0" d="M127 314c1,1 1,1 1,1 1,1 1,0 1,0 0,-1 -1,-1 -1,-1 0,-1 -1,0 -1,0l0 0z"/>
   <path class="fil0 str0" d="M139 309c0,-1 1,-1 1,-2 0,0 -1,0 -1,0 0,0 0,1 -1,1 0,1 1,1 1,1l0 0z"/>
   <path class="fil0 str0" d="M142 297c0,0 1,0 1,0 1,0 1,0 0,-1 0,0 -1,0 -1,0 -1,0 -1,1 0,1l0 0z"/>
   <path class="fil0 str0" d="M148 300c0,0 0,-1 0,-1 0,-1 -1,0 -1,0 0,1 0,1 0,2 0,0 1,0 1,-1l0 0z"/>
   <path class="fil0 str0" d="M128 301c0,0 0,0 1,-1 0,0 0,0 0,0 0,0 -1,0 -1,0 0,0 0,0 -1,0 0,0 0,1 0,1 1,0 1,0 1,0l0 0z"/>
   <path class="fil0 str0" d="M132 322c5,5 10,11 16,16 0,0 1,-1 0,-1 -5,-5 -11,-10 -16,-16 0,0 -1,0 0,1l0 0z"/>
   <path class="fil0 str0" d="M136 318c5,6 10,12 16,18 0,0 1,-1 0,-1 -5,-6 -10,-12 -16,-18 0,0 -1,0 0,1l0 0z"/>
   <path class="fil0 str0" d="M140 314c5,6 11,12 16,18 0,0 1,0 1,0 -6,-7 -11,-13 -17,-19 0,0 -1,1 0,1l0 0z"/>
   <path class="fil0 str0" d="M143 311c6,6 11,12 16,18 0,1 1,0 1,0 -6,-6 -11,-13 -16,-19 -1,0 -1,1 -1,1l0 0z"/>
   <path class="fil0 str0" d="M147 307c4,7 9,13 14,19 0,1 1,0 1,0 -5,-6 -10,-13 -15,-19 0,-1 -1,0 0,0l0 0z"/>
  </g>
  <g id="_1868891652400">
   <path class="fil0 str0" d="M132 206c14,-3 30,-2 39,10 10,12 7,27 -5,37 -12,10 -28,15 -44,12 -6,-2 -14,-4 -18,-9 -6,-6 -7,-14 -6,-22 4,-16 19,-25 34,-28 0,0 0,-2 -1,-2 -14,4 -29,12 -33,27 -5,15 4,29 18,33 17,6 34,2 48,-8 12,-8 18,-22 12,-35 -8,-17 -28,-20 -45,-17 -1,1 0,2 1,2z"/>
   <path class="fil0 str0" d="M137 217c-4,2 -16,4 -17,11 -1,6 9,5 13,4 5,-1 15,-2 15,-9 0,-6 -7,-7 -11,-6 -1,0 0,2 1,1 2,0 6,-1 8,2 2,2 0,6 -3,8 -3,2 -7,2 -11,3 -2,1 -4,1 -7,1 -6,-2 -3,-7 1,-9 4,-2 8,-3 12,-5 0,0 0,-1 -1,-1l0 0z"/>
   <path class="fil0 str0" d="M97 235c0,5 -1,9 3,13 2,3 6,4 10,2 5,-3 6,1 9,2 2,0 1,0 3,0 2,0 4,0 6,0 5,1 7,2 11,-2 2,-3 3,-6 8,-5 1,0 2,1 4,0 1,0 2,-1 3,-1 4,-1 9,1 13,-3 0,-1 1,-2 1,-2 1,-3 1,-4 2,-7 0,-1 1,-1 1,-2 0,-2 -1,-4 0,-6 0,-2 2,-3 2,-5 0,-2 -1,-5 -3,-6 0,-1 -1,0 -1,1 3,3 2,5 1,9 -1,2 0,5 -1,7 -1,2 -2,3 -2,5 -1,2 0,4 -2,6 -1,1 -3,1 -4,1 -2,1 -5,0 -7,0 -1,1 -1,1 -2,2 -2,0 -4,0 -6,-1 -3,0 -4,1 -6,3 -1,1 -2,3 -3,4 -3,3 -6,1 -10,0 -2,0 -4,0 -6,0 -3,0 -4,-2 -6,-3 -3,-2 -5,2 -8,3 -4,1 -7,-3 -8,-7 -1,-2 -1,-5 -1,-8 0,-1 -1,-1 -1,0l0 0z"/>
   <path class="fil0 str0" d="M107 236c1,-1 2,-1 3,-2 0,0 -1,-1 -1,-1 -1,1 -2,1 -2,2 -1,0 -1,1 0,1l0 0z"/>
   <path class="fil0 str0" d="M111 226c1,0 1,-1 2,-1 1,0 0,-2 0,-1 -2,0 -2,1 -3,2 0,0 0,0 1,1 0,0 0,-1 0,-1l0 0z"/>
   <path class="fil0 str0" d="M118 216c1,1 2,1 2,2 1,0 2,-1 1,-2 -1,0 -1,-1 -2,-1 -1,-1 -1,1 -1,1l0 0z"/>
   <path class="fil0 str0" d="M133 213c0,-1 0,-2 0,-3 0,0 -1,0 -1,0 0,1 0,2 0,3 0,1 1,1 1,0l0 0z"/>
   <path class="fil0 str0" d="M143 212c1,0 1,-1 1,-1 1,-1 0,-2 -1,-1 0,0 0,1 -1,1 0,1 1,2 1,1l0 0z"/>
   <path class="fil0 str0" d="M150 215c1,0 2,0 3,-1 1,0 1,-1 0,-1 -1,0 -2,1 -4,1 -1,0 0,1 1,1l0 0z"/>
   <path class="fil0 str0" d="M159 223c0,-1 1,-2 1,-2 0,-1 0,-1 0,-1 0,0 0,0 -1,0 0,1 -1,1 -1,2 -1,1 1,2 1,1l0 0z"/>
   <path class="fil0 str0" d="M158 231c0,0 1,0 2,0 1,0 1,-1 0,-1 0,-1 -1,-1 -2,-1 -1,1 -1,2 0,2l0 0z"/>
   <path class="fil0 str0" d="M152 237c0,-1 1,-1 1,-2 0,-1 -1,-1 -1,0 -1,0 -1,1 -1,2 0,1 1,1 1,0l0 0z"/>
   <path class="fil0 str0" d="M136 238c1,0 2,0 3,0 1,1 2,-1 1,-1 -1,0 -2,-1 -4,-1 0,0 0,2 0,2l0 0z"/>
   <path class="fil0 str0" d="M133 246c0,0 1,-1 1,-1 1,-1 0,-2 -1,-1 -1,0 -1,1 -1,2 0,1 1,1 1,0l0 0z"/>
   <path class="fil0 str0" d="M119 243c1,0 2,-1 2,-1 1,0 0,-1 0,-1 -1,0 -2,1 -3,1 -1,0 0,1 1,1l0 0z"/>
   <path class="fil0 str0" d="M116 234c1,1 1,1 2,2 0,0 1,0 1,0 0,-1 0,-1 0,-1 -1,-1 -2,-1 -2,-2 -1,0 -1,0 -1,0 -1,1 0,1 0,1l0 0z"/>
   <path class="fil0 str0" d="M159 212c1,0 1,0 2,1 0,1 2,0 1,0 -1,-2 -2,-2 -3,-3 -1,0 -1,1 0,2l0 0z"/>
  </g>
  <g id="_1868891656816">
   <path class="fil0 str0" d="M312 287c9,5 17,14 16,25 0,11 -10,17 -20,17 -12,0 -23,-6 -30,-15 -3,-4 -5,-9 -5,-14 0,-5 3,-11 7,-14 10,-7 23,-4 32,1 1,0 1,-1 0,-1 -9,-5 -21,-8 -31,-2 -10,6 -12,17 -6,27 6,11 17,17 30,19 10,1 20,-3 23,-14 4,-13 -5,-24 -16,-30 0,0 -1,1 0,1z"/>
   <path class="fil0 str0" d="M309 296c-3,-2 -10,-6 -14,-3 -4,3 2,8 5,9 3,2 9,6 13,2 3,-3 -1,-7 -4,-8 0,-1 -1,0 0,1 2,1 4,2 4,4 0,3 -3,4 -5,3 -3,0 -6,-2 -8,-3 -2,-1 -3,-2 -4,-3 -3,-4 2,-5 5,-5 2,1 5,3 8,4 1,0 1,-1 0,-1l0 0z"/>
   <path class="fil0 str0" d="M279 286c-2,2 -5,5 -5,8 0,3 2,6 5,6 4,1 3,3 4,6 0,1 0,0 1,1 1,1 3,2 4,3 2,3 3,4 6,4 3,-1 5,-1 7,1 1,1 1,2 2,3 1,0 1,0 2,0 3,2 5,6 9,5 1,0 1,0 2,-1 1,-1 2,-1 4,-2 1,-1 1,0 1,-1 2,-1 2,-2 3,-3 1,-1 3,-1 4,-2 1,-1 1,-3 1,-4 0,-1 -1,-1 -1,0 0,3 -1,3 -4,5 -1,1 -2,2 -4,3 -1,1 -2,1 -3,2 -1,1 -2,2 -4,2 -1,0 -2,0 -3,-1 -2,-1 -2,-3 -4,-3 0,-1 -1,-1 -2,-1 -1,-1 -2,-2 -3,-3 -1,-1 -2,-2 -4,-2 -1,1 -3,1 -4,1 -3,0 -4,-2 -5,-4 -1,-1 -2,-2 -4,-4 -1,-1 0,-2 -1,-4 -1,-2 -3,-1 -6,-2 -2,-2 -2,-5 -1,-8 1,-2 2,-3 4,-5 0,0 -1,-1 -1,0l0 0z"/>
   <path class="fil0 str0" d="M284 291c1,0 1,1 2,0 1,0 1,-1 0,-1 0,1 -1,0 -2,0 0,0 -1,1 0,1l0 0z"/>
   <path class="fil0 str0" d="M291 288c1,0 1,0 2,0 0,0 1,-1 0,-1 -1,0 -2,0 -2,0 -1,0 -1,1 0,1 0,0 0,0 0,0l0 0z"/>
   <path class="fil0 str0" d="M300 286c0,1 0,1 0,2 0,0 1,0 1,-1 0,0 0,-1 0,-1 0,-1 -1,-1 -1,0l0 0z"/>
   <path class="fil0 str0" d="M309 291c1,0 1,0 2,-1 0,0 -1,-1 -1,0 -1,0 -1,0 -1,1 -1,0 0,1 0,0l0 0z"/>
   <path class="fil0 str0" d="M315 296c1,0 1,0 1,0 1,0 1,-1 0,-1 0,0 0,0 -1,0 -1,0 -1,1 0,1l0 0z"/>
   <path class="fil0 str0" d="M317 301c1,0 2,1 2,1 1,0 1,0 1,-1 -1,0 -2,-1 -2,-1 -1,0 -1,0 -1,1l0 0z"/>
   <path class="fil0 str0" d="M318 309c1,0 1,0 2,0 0,0 1,0 1,-1 0,0 -1,0 -1,0 -1,0 -1,0 -2,1 -1,0 0,1 0,0l0 0z"/>
   <path class="fil0 str0" d="M314 313c0,0 1,1 1,1 0,1 1,0 1,0 -1,-1 -1,-1 -2,-2 0,0 -1,1 0,1l0 0z"/>
   <path class="fil0 str0" d="M308 314c0,-1 1,-1 1,-1 1,0 0,-1 0,-1 -1,0 -1,1 -2,1 0,1 0,1 1,1l0 0z"/>
   <path class="fil0 str0" d="M299 306c1,1 1,1 1,2 1,1 1,0 1,0 0,-1 -1,-2 -1,-2 -1,-1 -1,0 -1,0l0 0z"/>
   <path class="fil0 str0" d="M293 310c0,-1 1,-1 1,-1 1,0 1,-1 0,-1 -1,0 -1,0 -2,1 0,0 1,1 1,1l0 0z"/>
   <path class="fil0 str0" d="M287 301c1,0 1,0 2,0 0,1 1,0 0,0 -1,-1 -1,-1 -2,-1 0,0 -1,1 0,1l0 0z"/>
   <path class="fil0 str0" d="M290 295c0,0 0,1 0,1 0,1 0,1 1,1 0,0 0,-1 0,-1 0,0 0,-1 0,-2 -1,0 -1,0 -1,0 0,0 0,0 0,1l0 0z"/>
   <path class="fil0 str0" d="M324 303c0,1 0,1 0,2 0,1 1,1 1,0 0,-1 0,-1 0,-2 -1,-1 -2,0 -1,0l0 0z"/>
  </g>
  <g id="_1868891662160">
   <path class="fil0 str0" d="M273 11c10,0 22,2 27,12 6,10 2,20 -7,26 -10,6 -22,8 -33,4 -4,-2 -9,-4 -12,-9 -3,-4 -4,-10 -2,-16 4,-11 16,-16 27,-17 1,0 1,-1 0,-1 -11,1 -22,6 -27,16 -5,10 0,21 10,26 11,6 24,5 35,-1 9,-5 16,-14 12,-24 -4,-13 -18,-17 -30,-17 -1,0 -1,1 0,1z"/>
   <path class="fil0 str0" d="M276 20c-4,1 -12,1 -13,6 -2,5 6,5 8,5 4,-1 11,-1 12,-6 1,-4 -4,-5 -7,-5 -1,0 -1,1 0,1 2,0 5,0 6,2 1,2 -1,4 -3,5 -2,2 -6,2 -8,2 -2,0 -4,0 -5,-1 -4,-1 -2,-5 1,-6 3,-1 6,-1 9,-2 1,0 0,-1 0,-1l0 0z"/>
   <path class="fil0 str0" d="M245 29c-1,3 -1,7 1,9 1,3 4,4 7,3 4,-2 4,1 7,2 0,1 0,1 1,1 2,0 3,0 5,0 3,2 5,2 8,0 2,-2 3,-4 6,-3 1,0 2,1 3,1 1,0 1,-1 2,-1 4,0 7,2 10,-1 0,0 1,-1 1,-1 1,-2 1,-3 2,-5 0,-1 1,0 1,-1 0,-2 0,-3 0,-4 1,-2 2,-3 2,-4 1,-2 0,-3 -1,-5 0,0 -1,1 -1,1 2,2 1,4 0,6 -1,2 -1,4 -2,6 0,1 -1,2 -1,3 -1,1 -1,3 -2,4 -1,0 -3,1 -4,1 -1,0 -3,-1 -4,-1 -1,0 -2,1 -2,1 -2,0 -3,-1 -4,-1 -2,-1 -4,0 -5,1 -1,1 -2,2 -3,3 -2,1 -4,0 -6,-1 -2,-1 -4,0 -5,-1 -2,0 -2,-2 -4,-3 -2,-1 -4,1 -6,1 -3,1 -5,-2 -6,-5 0,-2 1,-4 1,-6 0,0 -1,-1 -1,0l0 0z"/>
   <path class="fil0 str0" d="M252 31c1,-1 2,-1 2,-1 1,-1 0,-2 0,-1 -1,0 -1,0 -2,1 -1,0 0,1 0,1l0 0z"/>
   <path class="fil0 str0" d="M257 24c0,0 0,-1 1,-1 0,0 0,-1 0,-1 -1,0 -2,1 -2,2 0,0 0,0 0,0 0,0 0,0 1,0l0 0z"/>
   <path class="fil0 str0" d="M262 17c1,1 1,1 2,2 0,0 1,-1 0,-1 0,0 -1,-1 -1,-1 0,-1 -1,0 -1,0l0 0z"/>
   <path class="fil0 str0" d="M273 17c1,-1 1,-2 1,-2 0,-1 -1,-1 -1,0 0,0 0,1 0,1 -1,1 0,1 0,1l0 0z"/>
   <path class="fil0 str0" d="M281 17c0,0 0,-1 1,-1 0,0 0,-1 -1,-1 0,1 -1,1 -1,1 0,1 0,1 1,1l0 0z"/>
   <path class="fil0 str0" d="M285 20c1,0 2,0 3,0 0,0 0,-1 0,-1 -1,0 -2,0 -3,0 -1,0 -1,1 0,1l0 0z"/>
   <path class="fil0 str0" d="M291 26c0,0 1,-1 1,-1 0,0 0,0 0,-1 0,0 0,0 0,0 -1,1 -1,1 -2,2 0,0 1,1 1,0l0 0z"/>
   <path class="fil0 str0" d="M289 32c1,0 1,0 2,0 1,1 1,0 0,0 0,-1 -1,-1 -2,-1 0,0 0,1 0,1l0 0z"/>
   <path class="fil0 str0" d="M285 36c0,-1 0,-1 0,-1 1,-1 0,-1 0,-1 -1,1 -1,1 -1,2 0,0 1,1 1,0l0 0z"/>
   <path class="fil0 str0" d="M273 35c1,0 2,0 2,0 1,1 1,0 1,0 -1,-1 -2,-1 -3,-1 0,0 0,1 0,1l0 0z"/>
   <path class="fil0 str0" d="M270 41c0,-1 0,-1 1,-1 0,-1 0,-2 -1,-1 0,0 -1,1 -1,2 0,0 1,0 1,0l0 0z"/>
   <path class="fil0 str0" d="M260 37c1,0 1,0 2,-1 1,0 0,-1 0,0 -1,0 -2,0 -2,0 -1,0 0,1 0,1l0 0z"/>
   <path class="fil0 str0" d="M259 30c0,1 1,1 1,2 0,0 1,0 1,0 0,-1 0,-1 0,-1 -1,-1 -1,-1 -2,-1 0,-1 0,-1 0,0 0,0 0,0 0,0l0 0z"/>
   <path class="fil0 str0" d="M292 18c1,1 1,1 1,2 1,0 2,0 1,-1 0,-1 -1,-1 -2,-2 0,0 -1,1 0,1l0 0z"/>
  </g>
  <path class="fil0 str0" d="M160 391c0,-1 1,-1 1,-1 1,0 1,-1 0,-1 -2,0 -3,0 -5,0 3,-1 7,-2 10,-3 1,0 1,-1 0,-1 -2,0 -3,0 -5,0 -4,0 0,-2 1,-2 3,-1 5,-1 8,-2 0,0 0,-1 -1,-1 -3,0 -6,0 -9,-1 4,-1 8,-1 11,-2 0,0 0,-1 0,-1 -3,0 -6,0 -9,0 4,-2 8,-1 12,-2 0,0 0,-1 0,-1 -3,0 -7,0 -10,-1 4,-1 8,-1 12,-2 0,0 0,0 -1,-1 -2,0 -5,0 -8,-1 1,0 2,0 3,0 3,1 6,2 8,1 0,1 0,1 -1,2 -4,6 -9,13 -13,20 -1,0 -3,0 -4,0zm-4 -1c1,0 2,0 3,0 -1,0 -1,0 -2,0 0,0 -1,0 -1,0zm1 13c-1,0 -3,0 -4,0 1,-1 1,-1 2,-2 0,0 0,0 -1,0 0,-1 -1,-1 -2,-1 1,0 2,0 3,-1 1,0 1,-1 0,-1 -1,0 -3,0 -4,0 2,0 4,-1 6,-1 1,-1 1,-1 0,-2 -2,0 -4,0 -6,0 3,-1 6,-1 8,-2 1,0 1,-1 0,-1 -2,0 -4,0 -6,0 1,0 3,0 4,-1 2,1 4,1 6,1 -2,3 -4,7 -6,11zm-5 -1c-7,-1 -13,-5 -15,-12 2,-3 5,-7 7,-10 1,5 6,9 11,11 -2,0 -3,0 -5,1 0,0 0,1 0,1 1,0 2,0 3,0 -1,1 -3,1 -4,2 -1,0 0,1 0,1 2,0 3,0 5,0 -2,1 -4,1 -5,2 -1,0 -1,1 0,1 1,0 2,0 3,0 0,1 -1,1 -2,1 0,0 0,1 0,1 1,0 2,0 3,1 -1,0 -1,0 -1,0zm3 -41c1,-1 2,-3 3,-5 2,5 6,9 10,11 -1,0 -2,0 -3,1 0,0 0,1 0,1 2,1 4,1 5,1 -2,0 -5,0 -7,1 -1,0 -1,1 -1,1 2,1 4,1 5,2 -2,0 -4,0 -7,1 0,1 0,1 1,1 1,1 3,1 4,1 -2,0 -4,1 -6,2 -1,0 -1,1 0,1 2,1 4,1 6,1 -2,1 -6,1 -7,3 -1,0 -1,1 0,1 1,1 3,1 5,1 -3,1 -7,1 -10,3 0,0 0,0 0,0 -4,-2 -8,-6 -8,-11l0 0c3,-5 7,-11 10,-17zm18 6c-1,0 -2,0 -3,0 0,0 0,0 -1,-1 1,1 2,1 4,1zm0 -29c1,3 3,5 5,7 3,2 7,3 11,2 1,8 -5,15 -10,21l0 0c-2,0 -4,0 -6,0 1,0 3,-1 4,-1 1,0 1,-1 0,-1 -2,0 -5,0 -7,-1 3,0 7,0 10,-1 0,0 0,-1 0,-1 -3,0 -6,0 -8,-1 3,-1 6,-1 9,-1 1,0 1,-1 0,-1 -3,-1 -6,-1 -9,-1 3,-2 7,-1 11,-2 0,0 0,-1 0,-1 -3,0 -6,0 -9,-1 4,-1 8,0 12,-2 0,0 0,-1 -1,-1 -2,0 -4,0 -6,-1 3,-1 6,-1 8,-1 1,0 1,-1 0,-1 -1,0 -2,0 -3,0 0,0 1,0 1,0 0,0 1,-1 0,-1 -2,-1 -4,-1 -6,0 -1,0 -1,0 0,1 1,0 2,0 3,0 -2,1 -3,1 -5,2 0,0 0,1 0,1 2,0 4,1 6,1 -3,1 -7,0 -10,1 -1,0 -1,1 0,1 1,1 3,1 5,2 -3,0 -5,0 -7,1 -1,1 -1,1 0,1 2,1 4,1 6,1 -2,1 -5,1 -7,2 0,0 0,1 0,1 1,0 2,1 3,1 -2,0 -4,0 -6,1 0,0 0,0 0,0 -4,-2 -7,-6 -8,-10 3,-7 7,-13 14,-17zm5 -1c0,1 2,3 3,4 3,2 6,3 9,2 2,3 -2,4 -4,3 -3,0 -5,0 -7,-2 -1,-1 -2,-2 -3,-4 -1,-1 -2,-1 -2,-2 0,-2 3,-1 4,-1zm2 -2c1,0 2,-1 3,-2 3,-1 5,-3 6,-5 1,1 2,2 3,2 0,1 -1,1 -1,2 -1,1 -1,3 -2,5 0,1 0,2 0,3 0,2 1,2 -2,2 -3,0 -5,-2 -7,-4 -2,-2 -1,-2 0,-3zm13 -12c3,1 1,4 0,6l-1 0c-1,0 -1,-1 -2,-2l0 0c1,-1 2,-3 3,-4zm-28 68c4,-7 9,-14 14,-21 5,-6 12,-14 11,-23 2,-1 2,-3 0,-5l0 0c0,-3 0,-5 1,-8 1,-3 3,-4 4,-7 1,-2 1,-5 -2,-5 -1,0 -1,0 -1,0 -2,3 -4,6 -7,9 -2,1 -4,3 -6,4 0,0 -1,0 -1,1l0 0c-1,-1 -4,-1 -5,1l0 0c-9,4 -13,14 -18,22 -6,10 -12,20 -19,31l0 0c0,0 0,0 0,0 3,9 12,14 21,14 1,0 1,-1 1,-1 2,-4 4,-8 7,-11 0,0 0,-1 0,-1z"/>
  <path class="fil0 str0" d="M24 202c1,-1 1,-1 1,-2 0,0 0,0 -1,0 -1,1 -1,2 -2,3 1,-3 2,-5 3,-8 0,0 0,0 -1,0 0,1 -1,2 -2,3 -2,2 -1,-1 -1,-2 1,-2 2,-3 3,-5 0,0 0,0 -1,0 -1,1 -3,3 -4,5 0,-3 2,-5 3,-8 0,0 0,0 0,0 -2,2 -3,3 -5,5 1,-3 4,-5 5,-8 0,0 0,0 -1,0 -1,1 -3,4 -5,5 1,-3 3,-5 5,-7 0,-1 0,-1 -1,-1 -1,2 -3,3 -5,5 1,-1 1,-2 2,-3 2,0 3,-2 5,-4 0,1 0,1 0,2 1,6 3,11 5,17 -1,1 -2,2 -3,3zm-2 1c1,0 1,-1 2,-1 -1,0 -1,0 -1,1 0,0 0,0 -1,0zm8 6c-1,1 -1,1 -2,2 0,0 0,-1 0,-1 0,-1 0,-1 -1,-1 0,1 0,1 -1,2 1,-1 1,-2 1,-3 0,0 0,0 0,0 -1,1 -2,1 -3,2 1,-1 2,-3 3,-4 0,-1 -1,-1 -1,-1 -1,1 -2,3 -3,4 1,-2 2,-4 3,-6 0,-1 0,-1 -1,-1 -1,2 -2,3 -3,4 1,-1 1,-2 2,-3 1,-1 2,-2 3,-3 1,3 2,6 3,9zm-3 3c-4,3 -9,4 -14,2 -1,-3 -2,-6 -2,-9 3,2 8,1 11,-1 0,1 -1,2 -1,4 -1,0 0,0 0,0 1,0 1,-1 2,-2 -1,1 -1,2 -1,4 -1,0 0,0 0,0 1,-1 2,-2 3,-2 -1,1 -1,2 -2,3 0,1 1,1 1,1 1,-1 1,-1 2,-2 0,0 -1,1 -1,2 0,0 1,0 1,0 0,0 1,-1 1,-1 0,0 0,0 0,1zm-21 -22c-1,-2 -1,-3 -2,-4 4,1 8,0 11,-1 0,1 -1,2 -1,2 0,1 0,1 1,1 1,-1 2,-2 3,-3 -1,2 -2,4 -3,5 0,1 0,1 0,1 2,0 3,-1 3,-2 -1,1 -1,3 -2,5 0,0 0,0 1,0 1,-1 2,-1 2,-2 0,1 -1,3 -1,4 0,1 0,1 0,1 2,-1 3,-2 4,-3 -1,1 -3,3 -2,6 0,0 0,0 0,0 2,-1 2,-1 3,-2 -1,2 -2,4 -3,6 0,0 0,0 0,0 -3,2 -7,2 -10,0l0 0c-1,-5 -3,-9 -4,-14zm11 -8c0,1 0,1 -1,2 0,0 0,0 -1,0 1,0 2,-1 2,-2zm-16 -14c2,1 5,1 7,0 2,0 5,-2 6,-4 5,3 6,10 7,15l0 0c-1,2 -2,3 -3,4 1,-1 1,-2 2,-3 0,-1 -1,-1 -1,-1 -1,2 -2,3 -4,4 1,-2 3,-4 4,-6 0,0 0,-1 0,0 -2,1 -3,3 -5,4 1,-2 3,-4 4,-6 0,-1 0,-1 0,-1 -2,2 -4,3 -6,5 1,-3 4,-5 5,-7 0,0 0,-1 -1,0 -1,1 -3,3 -5,4 2,-3 4,-5 5,-8 0,0 -1,0 -1,0 -1,1 -2,2 -3,3 0,-2 2,-3 3,-5 0,-1 0,-1 -1,-1 0,1 -1,1 -1,2 0,0 0,0 0,0 0,-1 0,-1 -1,-1 -1,1 -2,2 -2,3 -1,1 0,1 0,1 1,0 1,-1 2,-1 -1,1 -1,2 -2,3 0,1 1,1 1,1 1,-1 2,-2 3,-3 -1,2 -3,4 -4,6 0,1 1,1 1,1 1,-1 2,-2 3,-3 -1,2 -2,4 -3,5 0,1 1,1 1,1 2,-1 3,-2 4,-3 -1,1 -2,3 -3,4 0,1 1,1 1,1 1,0 1,-1 2,-1 -1,1 -2,2 -2,4 0,0 0,0 0,0 -4,1 -7,1 -10,0 -2,-6 -4,-11 -3,-17zm2 -3c1,1 3,0 4,0 2,-1 4,-2 5,-4 3,0 1,3 0,4 -1,1 -3,2 -5,3 -1,0 -2,0 -3,0 -1,0 -2,0 -2,-1 -1,0 0,-2 1,-2zm0 -2c1,-1 1,-2 1,-3 0,-2 0,-4 -1,-6 1,0 2,0 3,0 0,0 0,1 1,1 0,1 1,2 1,3 1,1 2,2 2,2 1,1 2,1 1,2 -2,2 -4,2 -6,2 -2,0 -2,0 -2,-1zm-1 -13c2,-2 3,1 4,3l0 0c-1,0 -2,0 -3,0l0 0c0,-1 0,-2 -1,-3zm25 49c-1,-6 -3,-12 -5,-18 -1,-7 -2,-14 -8,-18 1,-2 0,-3 -2,-3l0 1c-2,-2 -3,-3 -4,-5 -1,-2 -1,-4 -2,-5 -1,-3 -2,-4 -4,-2 -1,0 -1,0 0,1 0,2 1,5 1,8 0,2 0,3 -1,5 0,0 0,1 0,1l0 0c-1,1 -2,2 -1,4l0 0c-2,7 1,14 3,20 3,9 6,18 9,26l0 0c0,1 0,1 0,1 6,3 14,0 18,-6 0,0 0,0 0,0 -1,-3 -3,-7 -4,-10 0,0 0,0 0,0z"/>
  <path class="fil0 str0" d="M172 140c0,1 0,2 1,2 0,1 0,1 1,0 0,-2 0,-3 0,-5 1,3 1,7 2,10 0,0 1,0 1,0 0,-2 0,-3 0,-5 1,-3 2,0 2,2 1,2 1,4 1,6 0,1 1,1 1,0 1,-3 0,-5 1,-8 2,3 1,7 2,10 0,0 1,0 1,0 0,-3 0,-6 1,-8 1,3 0,7 1,11 0,0 0,0 1,0 0,-3 0,-6 1,-9 1,3 0,7 1,11 0,0 1,0 1,0 0,-3 0,-6 1,-8 0,1 0,2 0,3 -1,2 -1,5 -1,7 -1,0 -1,-1 -2,-1 -5,-5 -11,-9 -17,-14 0,-1 0,-2 0,-4zm1 -3c0,1 0,2 0,3 0,-1 0,-1 0,-2 0,0 0,0 0,-1zm-12 0c0,-1 0,-2 0,-3 1,0 1,1 1,1 1,0 1,0 1,0 0,-1 0,-1 0,-2 1,1 1,2 1,3 1,0 1,0 1,0 0,-2 0,-3 1,-4 0,2 0,4 1,6 0,0 1,0 1,0 0,-2 0,-4 1,-6 0,3 0,6 1,8 0,1 1,1 1,0 0,-2 0,-4 0,-6 0,1 0,3 1,4 -1,2 -1,4 -1,6 -3,-3 -7,-5 -10,-7zm1 -5c1,-6 6,-11 12,-12 3,2 6,4 9,7 -5,0 -9,4 -11,9 0,-1 0,-3 0,-4 -1,-1 -1,-1 -1,0 -1,1 -1,2 -1,3 0,-2 0,-3 -1,-5 0,0 -1,0 -1,0 0,2 -1,3 -1,5 0,-2 0,-4 -1,-5 0,-1 -1,-1 -1,0 0,1 0,2 0,3 -1,-1 -1,-1 -1,-2 0,0 -1,0 -1,0 0,1 0,2 -1,2 0,0 0,0 0,-1zm37 6c2,1 3,2 5,3 -4,2 -8,5 -11,9 0,-1 0,-2 0,-3 0,-1 -1,0 -1,0 -1,1 -1,3 -2,5 0,-3 0,-5 0,-7 0,-1 -1,-1 -1,-1 -1,2 -1,3 -2,5 0,-3 0,-5 -1,-7 0,0 -1,0 -1,0 0,2 -1,3 -1,4 0,-2 0,-4 -1,-6 0,0 -1,0 -1,1 -1,1 -1,3 -1,5 -1,-2 -1,-5 -3,-7 0,0 0,0 -1,0 0,1 -1,3 -1,5 0,-3 -1,-6 -2,-9 0,0 0,0 0,0 2,-4 6,-8 10,-7l1 0c4,3 9,7 14,10zm-6 16c0,-1 0,-1 0,-2 1,0 1,-1 1,-1 0,1 0,2 -1,3zm27 3c-3,0 -5,2 -7,4 -2,2 -3,6 -3,9 -7,1 -13,-5 -18,-10l0 0c-1,-2 0,-4 0,-6 0,2 0,3 1,4 0,1 1,1 1,0 0,-2 0,-4 1,-7 0,4 0,7 1,10 0,0 0,0 0,0 1,-3 0,-5 1,-7 1,2 1,6 1,9 0,0 1,0 1,0 1,-3 1,-6 2,-9 1,3 0,7 1,10 0,1 0,1 0,0 1,-2 1,-5 2,-7 1,3 0,7 1,10 1,0 1,0 1,0 1,-2 1,-4 1,-6 1,2 1,5 1,8 0,0 1,0 1,0 0,-1 0,-2 0,-3 0,0 0,0 0,0 0,1 1,1 1,1 1,-2 1,-4 1,-6 0,0 -1,-1 -1,0 -1,1 -1,2 -1,3 0,-2 -1,-3 -1,-5 0,0 -1,0 -1,0 -1,2 -1,4 -1,6 -1,-4 0,-7 -1,-10 0,0 -1,0 -1,0 -1,1 -1,3 -2,5 1,-3 1,-5 -1,-7 0,-1 0,0 -1,0 0,2 -1,4 -1,6 0,-2 0,-5 -1,-7 0,0 -1,0 -1,0 0,1 -1,2 -1,2 0,-1 0,-3 -1,-5 0,0 0,0 0,0 3,-3 6,-6 10,-7 6,4 12,8 15,15zm1 4c-2,0 -4,2 -5,3 -1,2 -2,5 -2,7 -2,3 -3,-2 -3,-3 1,-3 1,-5 3,-7 1,-1 2,-2 4,-3 0,0 1,-1 2,-1 2,0 1,3 1,4zm1 2c0,1 1,2 2,3 1,2 3,4 4,6 -1,0 -2,1 -2,2 -1,0 -1,0 -2,-1 -1,0 -2,-1 -4,-2 -1,0 -2,0 -3,0 -2,0 -2,0 -2,-2 0,-2 2,-5 4,-6 2,-2 2,-1 3,0zm11 13c-1,3 -4,1 -6,-1l0 0c0,-1 1,-2 2,-2l0 0c1,1 2,2 4,3zm-62 -31c6,5 13,10 19,15 6,5 12,12 21,11 0,2 2,3 4,1l0 0c3,0 5,0 8,2 2,1 3,2 5,3 3,2 5,2 6,-2 0,0 0,0 -1,0 -2,-2 -5,-5 -7,-8 -2,-1 -3,-3 -4,-5 0,0 0,-1 0,-1l0 0c0,-1 0,-4 -1,-4l0 -1c-3,-8 -12,-12 -19,-17 -9,-7 -19,-13 -28,-20l0 0c0,0 0,0 0,0 -8,2 -14,10 -14,18 0,1 0,1 1,1 3,2 6,5 10,7 0,0 0,0 0,0z"/>
  <path class="fil0 str0" d="M168 46c1,0 1,0 2,0 0,0 0,0 0,-1 -1,0 -3,0 -4,-1 3,0 5,1 8,0 0,0 0,-1 0,-1 -1,0 -2,0 -4,-1 -2,0 1,-1 2,-1 2,0 3,0 5,0 1,0 1,0 0,-1 -2,0 -4,0 -6,-2 2,0 5,1 8,0 0,0 0,0 0,0 -2,-1 -4,-1 -6,-2 3,0 6,1 8,1 1,0 1,-1 1,-1 -3,-1 -5,-1 -7,-2 3,0 6,0 8,1 1,0 1,-1 0,-1 -2,-1 -4,-1 -6,-3 1,0 2,1 3,1 2,1 4,2 6,2 -1,0 -1,1 -1,1 -5,4 -9,8 -14,12 -1,0 -2,0 -3,-1zm-2 -1c0,0 1,1 2,1 -1,0 -1,0 -1,0 -1,0 -1,-1 -1,-1zm-2 10c-1,0 -2,-1 -2,-1 0,0 0,0 1,0 0,-1 0,-1 0,-1 -1,0 -1,0 -2,-1 1,0 2,0 3,0 0,0 0,-1 0,-1 -1,0 -2,0 -3,0 1,-1 3,0 5,-1 0,0 0,0 0,0 -2,-1 -3,-1 -5,-2 2,0 5,0 7,0 0,0 0,0 0,0 -2,-1 -3,-1 -5,-2 1,0 2,1 3,1 2,0 3,1 5,1 -2,2 -5,5 -7,7zm-4 -1c-4,-2 -8,-7 -8,-12 2,-2 4,-4 7,-6 -1,4 2,7 6,10 -1,0 -2,0 -4,0 0,0 0,0 0,0 1,1 2,1 2,1 -1,0 -2,0 -3,1 0,0 -1,0 0,0 1,1 2,1 3,2 -1,0 -3,0 -4,0 0,0 0,1 0,1 1,0 2,0 3,1 -1,0 -2,0 -2,0 -1,0 -1,0 0,1 0,0 1,0 2,0 -1,0 -1,1 -2,1zm10 -30c1,-1 2,-2 3,-3 1,4 3,7 6,10 -1,0 -2,0 -3,0 0,0 0,0 0,0 1,1 2,2 4,2 -2,0 -4,0 -6,0 0,0 -1,0 0,1 0,0 2,1 3,1 -2,0 -4,0 -5,0 -1,1 -1,1 -1,1 1,1 3,1 4,2 -2,-1 -4,-1 -5,0 -1,0 -1,1 0,1 1,1 3,1 4,1 -2,0 -4,0 -6,1 0,1 0,1 0,1 1,1 2,1 3,2 -2,0 -4,-1 -7,0 0,0 0,0 0,0 -3,-2 -5,-6 -4,-9l0 0c3,-4 6,-7 10,-11zm12 7c-1,0 -1,0 -2,0 0,0 0,0 -1,-1 1,1 2,1 3,1zm5 -20c0,2 2,4 3,5 2,2 4,4 7,4 -1,6 -6,10 -11,13l0 0c-1,0 -3,0 -4,-1 1,0 2,0 3,0 1,0 1,0 0,-1 -1,0 -3,-1 -5,-1 3,0 5,0 8,0 0,0 0,0 0,0 -2,-1 -4,-1 -6,-2 2,0 5,0 7,0 1,0 1,0 0,0 -2,-1 -4,-2 -6,-3 3,0 5,1 8,1 0,0 0,-1 0,-1 -2,-1 -4,-1 -6,-2 3,0 6,1 9,0 0,0 0,0 0,0 -2,-1 -3,-1 -5,-2 2,0 4,0 7,0 0,0 0,0 0,0 -1,-1 -2,-1 -3,-1 1,0 1,0 1,0 0,0 1,0 0,-1 -1,0 -3,0 -4,-1 -1,0 -1,1 -1,1 1,1 2,1 3,1 -2,0 -3,0 -4,0 -1,0 -1,1 0,1 1,1 2,1 4,2 -3,0 -5,-1 -8,-1 0,0 0,1 0,1 1,1 2,1 3,2 -1,-1 -3,-1 -5,0 0,0 0,0 0,0 1,1 3,2 4,2 -1,0 -3,0 -5,0 0,0 0,1 0,1 0,0 1,1 2,1 -2,0 -3,0 -5,0 0,0 0,0 0,0 -2,-2 -4,-6 -4,-9 4,-4 8,-8 13,-9zm4 -1c0,2 1,3 2,4 1,2 3,3 5,3 2,2 -2,2 -3,2 -2,-1 -3,-2 -5,-3 0,-1 -1,-2 -2,-4 0,0 0,-1 0,-2 0,-1 2,0 3,0zm2 0c1,0 2,-1 2,-1 2,-1 4,-2 6,-3 0,1 0,1 1,2 0,0 -1,1 -1,1 -1,1 -1,2 -2,3 0,1 0,2 -1,3 0,1 0,1 -1,1 -2,0 -4,-2 -5,-4 -1,-2 0,-2 1,-2zm11 -7c2,1 0,3 -1,5l0 -1c-1,0 -2,-1 -2,-2l0 0c1,-1 2,-1 3,-2zm-32 45c4,-5 9,-9 14,-13 5,-4 11,-8 12,-15 1,-1 2,-2 1,-3l0 0c0,-3 1,-5 2,-7 1,-1 3,-2 4,-4 1,-1 1,-3 -1,-4 0,0 0,0 0,0 -3,2 -5,4 -7,5 -2,1 -3,2 -5,2 0,0 -1,0 -1,1l0 -1c-1,0 -3,0 -4,1l0 0c-7,1 -11,7 -16,12 -7,7 -13,14 -20,20l0 0c0,0 0,0 0,0 1,7 7,13 13,14 1,0 1,-1 1,-1 2,-2 4,-5 7,-7 0,0 0,0 0,0z"/>
  <g id="_1868891668144">
   <path class="fil0 str0" d="M191 256c-12,12 -24,23 -35,36 0,1 0,1 0,1 3,2 6,2 9,1 5,0 9,0 14,-1 10,-1 19,-2 29,-3 1,0 1,-2 0,-2 -8,1 -16,3 -24,3 -4,1 -8,1 -13,2 -2,0 -4,0 -6,0 -1,0 -7,1 -7,-1 1,-2 3,-4 4,-5 1,-1 3,-3 4,-4 3,-3 5,-6 8,-9 6,-6 12,-12 17,-17 1,-1 0,-2 0,-1l0 0z"/>
   <path class="fil0 str0" d="M191 257c12,6 23,18 17,32 0,0 1,1 1,0 7,-14 -5,-27 -18,-33 0,-1 -1,1 0,1l0 0z"/>
   <path class="fil0 str0" d="M190 256c2,-2 4,-3 6,-4 0,1 1,1 2,1 1,1 2,2 2,2 2,1 4,3 5,4 3,3 6,7 7,11 2,3 2,7 2,11 1,2 0,4 0,6 -1,3 -3,3 -6,2 0,-1 -1,0 0,1 2,1 4,1 6,1 0,0 1,0 1,-1 2,-11 -1,-23 -9,-31 -3,-3 -9,-10 -14,-9 -3,1 -5,4 -3,6 1,1 2,0 1,0l0 0z"/>
   <path class="fil0 str0" d="M156 293c0,2 3,4 6,5 2,0 5,-1 7,-1 4,0 7,0 10,0 12,-1 24,-3 35,-6 1,0 1,-2 0,-1 -9,2 -19,4 -28,5 -5,0 -10,1 -14,1 -4,0 -14,2 -15,-3 0,-1 -1,-1 -1,0l0 0z"/>
   <path class="fil0 str0" d="M196 279c0,1 0,1 -1,2 0,0 0,0 1,1 1,0 3,1 4,1 1,0 1,-1 1,-1 -1,-1 2,-2 2,-3 1,0 1,-1 1,-2 0,-1 -2,-2 -4,-2 -1,0 -3,0 -4,1 -1,1 0,3 1,3 1,0 1,-1 0,-1 0,-1 0,-2 1,-2 0,0 1,0 1,0 1,0 1,0 2,0 0,0 1,0 1,1 2,1 0,2 0,2 -2,1 -3,2 -2,3 0,0 0,0 0,-1 -1,0 -2,0 -4,0 0,0 0,0 0,0 1,0 1,-1 2,-1 0,-1 -1,-1 -2,-1l0 0z"/>
   <path class="fil0 str0" d="M190 269c-1,-1 -1,-1 -1,-2 -1,0 -1,0 -1,0 -1,1 -2,3 -3,4 0,0 0,1 1,1 1,0 1,2 1,3 1,1 1,1 2,1 2,0 3,-1 4,-3 0,-1 1,-3 0,-4 -1,-1 -3,-1 -3,0 -1,1 0,1 1,1 0,-1 1,-1 1,0 0,1 0,1 0,1 0,1 0,1 0,2 -1,0 -1,1 -1,2 -1,0 -2,-1 -3,-1 0,0 0,0 0,-1 0,-1 -1,-2 -2,-2 0,0 0,0 0,1 1,-2 2,-3 3,-4 -1,0 -1,0 -1,0 0,0 0,1 1,1 0,1 1,0 1,0l0 0z"/>
   <path class="fil0 str0" d="M193 263c-1,-1 -3,0 -3,1 1,2 3,2 4,2 1,-1 2,-2 1,-3 -1,-2 -3,-1 -4,-1 -1,1 0,2 1,1 0,0 1,0 2,0 0,0 1,1 0,1 0,1 -1,1 -2,1 0,0 0,-1 0,-1 -1,0 0,-1 0,0 0,0 1,-1 1,-1l0 0z"/>
   <path class="fil0 str0" d="M172 282c-1,0 -2,1 -2,3 0,0 1,1 2,1 1,0 1,0 2,0 0,-1 1,-1 1,-1 1,1 1,1 1,1 1,0 2,-1 2,-2 1,-3 -1,-6 -4,-6 -2,0 -4,3 -2,5 1,0 2,-1 1,-1 -1,-1 0,-2 0,-2 1,-1 2,0 3,0 0,0 1,1 1,2 0,0 0,2 0,2 -1,1 -2,0 -2,0 0,0 -1,0 -1,0 -1,0 -1,1 -2,1 -1,-1 0,-1 0,-2 1,0 1,-1 0,-1l0 0z"/>
   <path class="fil0 str0" d="M184 282c1,1 1,-1 0,-1 -1,0 -1,1 0,1l0 0z"/>
   <path class="fil0 str0" d="M198 270c0,0 1,-1 0,-1 -1,0 -1,1 0,1l0 0z"/>
   <path class="fil0 str0" d="M180 289c1,0 1,-1 0,-2 -1,0 -1,2 0,2l0 0z"/>
   <path class="fil0 str0" d="M198 286c1,1 1,-1 0,-1 -1,0 -1,1 0,1l0 0z"/>
   <path class="fil0 str0" d="M205 285c1,0 1,-1 0,-1 -1,0 -1,1 0,1l0 0z"/>
   <path class="fil0 str0" d="M184 270c0,-1 0,-1 0,-1 0,0 -1,-1 -1,0 -1,0 -1,0 -1,0 0,1 1,1 2,1l0 0z"/>
   <path class="fil0 str0" d="M204 273c1,0 1,-1 1,-1 -1,0 -1,1 -1,1l0 0z"/>
   <path class="fil0 str0" d="M194 285c-1,0 -2,1 -2,2 0,1 1,2 2,2 1,0 3,-1 3,-2 0,-1 -1,-2 -2,-2 -1,0 -1,1 0,1 0,0 1,0 1,1 -1,0 -1,0 -2,0 0,0 -1,0 -1,0 0,-1 1,-1 1,-1 1,0 1,-1 0,-1l0 0z"/>
   <path class="fil0 str0" d="M198 268c0,0 -2,1 -1,3 1,1 2,1 3,0 1,0 2,-2 2,-3 0,-1 -2,-1 -3,-1 -1,0 0,1 1,1 0,0 1,0 1,1 0,0 -1,1 -1,1 -1,0 -1,1 -2,0 0,0 1,-1 1,-1 1,-1 0,-2 -1,-1l0 0z"/>
   <path class="fil0 str0" d="M204 282c-1,1 -2,2 -1,3 1,1 2,1 3,1 1,-1 2,-2 2,-3 0,-1 -2,-2 -3,-1 -1,0 0,1 0,1 1,0 2,0 1,1 0,0 0,0 -1,1 0,0 -1,0 -1,0 -1,-1 0,-1 1,-2 0,0 0,-1 -1,-1l0 0z"/>
   <path class="fil0 str0" d="M183 285c-1,0 -2,0 -3,1 0,1 1,2 2,2 1,1 3,0 3,0 1,-2 0,-3 -1,-3 -1,-1 -1,0 0,1 0,0 1,1 0,1 0,0 -1,0 -2,0 0,0 -1,-1 0,-1 0,0 1,0 1,0 1,0 1,-1 0,-1l0 0z"/>
   <path class="fil0 str0" d="M182 275c0,-1 -1,-2 -2,-1 -1,1 0,3 1,4 0,0 2,1 3,0 1,-1 0,-3 -1,-4 -1,0 -1,1 -1,1 0,1 1,1 1,2 0,0 -1,0 -1,0 -1,0 -1,-1 -1,-1 0,0 0,-1 0,-1 0,0 0,0 0,0 0,1 2,0 1,0l0 0z"/>
   <path class="fil0 str0" d="M166 287c-1,0 -2,1 -1,2 0,1 1,2 2,2 1,0 2,-1 2,-2 0,-2 -1,-2 -2,-2 -1,-1 -1,1 0,1 0,0 1,0 1,0 0,1 0,1 -1,1 0,1 -1,0 -1,0 0,0 0,-1 0,-1 1,0 1,-1 0,-1l0 0z"/>
   <path class="fil0 str0" d="M190 281c0,0 0,0 0,0 0,-1 -1,-1 -1,0 0,0 0,0 0,0 0,1 1,1 1,0l0 0z"/>
   <path class="fil0 str0" d="M207 274c0,0 0,0 0,0 0,-1 -1,-1 -1,0 -1,0 -1,0 -1,0 0,1 1,1 2,0l0 0z"/>
   <path class="fil0 str0" d="M176 289c0,0 0,0 0,0 0,-1 -1,-1 -1,-1 0,1 0,1 0,1 0,0 1,1 1,0l0 0z"/>
   <path class="fil0 str0" d="M200 287c0,0 0,-1 0,-1 0,0 -1,-1 -1,0 0,0 0,0 0,0 0,1 1,1 1,1l0 0z"/>
   <path class="fil0 str0" d="M184 282c0,-1 0,-1 0,-1 0,0 -1,-1 -1,0 0,0 0,0 0,0 -1,1 1,1 1,1l0 0z"/>
  </g>
  <g id="_1868891675408">
   <path class="fil0 str0" d="M271 350c-7,-5 -14,-11 -21,-16 0,0 0,0 1,-1 1,4 2,8 3,11 1,3 1,4 0,6 -2,8 -4,15 -7,23 0,0 -1,0 -1,-1 3,-7 5,-14 7,-21 1,-1 1,-3 1,-3 0,-1 -1,-3 -1,-4 -1,-3 -2,-7 -3,-10 -1,-1 0,-1 0,-1 7,5 14,11 21,17 1,0 0,1 0,0l0 0z"/>
   <path class="fil0 str0" d="M272 350c-3,8 -5,16 -7,23 0,0 -1,1 -1,0 -4,-4 -9,-7 -14,-11 0,-1 0,-2 1,-1 3,3 7,6 11,9 1,1 1,2 2,2 0,0 1,1 1,1 -1,0 0,-4 0,-5 2,-6 4,-12 6,-18 0,-1 1,0 1,0l0 0z"/>
   <path class="fil0 str0" d="M254 349c-5,-1 -11,-3 -16,-5 -5,-2 -10,-4 -14,-7 -4,-4 -6,-10 -1,-13 4,-3 8,-3 12,-4 6,0 13,1 19,2 10,2 24,7 29,16 2,4 2,8 -2,10 -3,2 -7,3 -10,2 -1,0 0,-1 0,-1 3,1 7,0 9,-2 5,-2 4,-7 1,-10 -7,-8 -17,-12 -26,-14 -9,-2 -21,-4 -29,1 -7,3 -6,8 -1,12 4,4 9,6 14,8 5,2 10,3 15,4 1,0 1,1 0,1l0 0z"/>
   <path class="fil0 str0" d="M276 369c-3,3 -7,4 -11,5 -1,0 -1,-1 -1,-1 4,-1 9,-2 12,-5 0,0 1,0 0,1l0 0z"/>
   <path class="fil0 str0" d="M284 345c-3,8 -5,16 -8,24 0,0 -1,0 0,-1 2,-8 5,-15 7,-23 0,-1 1,0 1,0l0 0z"/>
   <path class="fil0 str0" d="M246 373c-12,-1 -26,-7 -34,-16 0,-1 0,-1 1,-1 8,10 21,15 33,16 1,0 1,1 0,1l0 0z"/>
   <path class="fil0 str0" d="M221 328c-3,10 -5,19 -8,29 0,0 -1,0 -1,-1 3,-9 5,-19 8,-28 0,-1 1,0 1,0l0 0z"/>
   <path class="fil0 str0" d="M245 341c0,0 -1,-1 -1,-1 -1,-1 0,-1 0,-1 1,1 2,1 2,2 0,1 0,1 -1,0l0 0z"/>
   <path class="fil0 str0" d="M236 336c-1,0 -2,-1 -2,-1 -1,0 -1,-1 0,-1 1,0 1,1 2,1 1,0 0,1 0,1l0 0z"/>
   <path class="fil0 str0" d="M242 332c-1,0 -1,0 -2,-1 -1,0 0,-1 0,-1 1,1 2,1 2,1 1,1 0,2 0,1l0 0z"/>
   <path class="fil0 str0" d="M232 328c-1,0 -2,0 -2,1 -1,0 -1,-1 -1,-1 1,0 2,-1 2,-1 1,-1 1,0 1,1l0 0z"/>
   <path class="fil0 str0" d="M250 327c-1,0 -2,0 -2,-1 -1,0 -1,-1 0,0 0,0 1,0 2,0 0,0 0,1 0,1l0 0z"/>
   <path class="fil0 str0" d="M258 332c0,0 -1,-1 -1,-2 0,0 1,-1 1,0 0,1 1,1 1,2 0,1 -1,1 -1,0l0 0z"/>
   <path class="fil0 str0" d="M269 332c-1,0 -1,1 -2,1 0,0 0,0 0,0 -1,0 0,-1 0,-1 0,0 1,0 2,-1 0,0 1,1 0,1l0 0z"/>
   <path class="fil0 str0" d="M273 339c0,0 -1,0 -2,-1 0,0 0,-1 0,0 1,0 2,0 3,1 0,0 0,1 -1,0l0 0z"/>
   <path class="fil0 str0" d="M271 345c-1,-1 -1,-2 -1,-2 0,0 0,-1 0,-1 0,0 0,0 0,0 1,1 1,2 1,2 1,0 0,1 0,1 0,0 0,0 0,0l0 0z"/>
   <path class="fil0 str0" d="M264 338c0,-1 -1,-1 -1,-1 -1,0 0,-1 0,-1 1,0 1,1 2,1 0,0 0,1 -1,1l0 0z"/>
   <path class="fil0 str0" d="M248 367c-1,-3 -3,-2 -5,-2 -2,0 -2,-1 -3,-2 -1,-1 -2,-2 -4,-2 -1,0 -1,0 -2,0 -2,0 -3,-1 -5,-2 -1,0 -3,0 -4,0 -1,-1 -1,-2 -2,-2 -1,-2 -3,-1 -4,-3 -1,-1 -2,-4 -5,-3 0,1 -1,0 0,0 1,-1 2,-1 3,0 0,0 1,0 1,1 0,0 1,1 1,1 1,1 2,1 3,2 1,0 1,1 2,1 3,3 4,1 6,2 2,1 2,1 3,2 2,0 3,0 4,0 1,0 2,1 3,2 1,0 1,1 2,1 1,1 2,1 4,1 0,0 0,0 1,0 1,0 2,1 2,2 0,1 0,1 -1,1l0 0z"/>
   <path class="fil0 str0" d="M278 364c-2,-1 -2,1 -4,1 0,0 0,0 -1,0 -1,0 -1,1 -2,1 0,1 0,1 -1,1 0,0 0,0 -1,0 -1,0 -2,0 -3,1 0,1 -1,0 0,0 1,-1 1,-2 3,-2 0,0 1,0 2,-1 0,0 0,0 0,0 0,-1 1,-1 1,-1 0,-1 1,-1 1,0 1,0 1,0 1,0 1,0 1,-1 1,-1 1,0 2,-1 3,0 1,0 0,1 0,1l0 0z"/>
   <path class="fil0 str0" d="M251 360c-7,0 -14,-2 -20,-4 -6,-3 -12,-6 -15,-12 -1,0 0,-1 0,0 4,5 9,8 16,11 5,2 12,4 19,4 0,0 0,0 0,1l0 0z"/>
   <path class="fil0 str0" d="M251 357c-12,-1 -26,-5 -35,-15 0,0 1,-1 1,0 9,10 22,13 34,14 1,1 1,1 0,1l0 0z"/>
   <path class="fil0 str0" d="M280 358c-3,3 -8,4 -12,4 0,0 -1,-1 0,-1 4,0 9,-1 11,-3 1,-1 1,0 1,0l0 0z"/>
   <path class="fil0 str0" d="M281 356c-4,2 -8,4 -12,3 -1,0 -1,-1 0,-1 4,1 8,-1 11,-3 1,0 1,1 1,1l0 0z"/>
   <path class="fil0 str0" d="M278 363c3,2 7,5 7,9 1,2 0,5 -2,7 -5,3 -12,4 -17,4 -11,1 -22,-2 -33,-5 -5,-2 -11,-4 -16,-7 -5,-2 -9,-4 -12,-8 -2,-3 -4,-6 -2,-10 2,-3 7,-4 11,-4 1,0 1,1 0,1 -5,0 -14,3 -10,10 3,5 7,7 12,10 11,5 22,9 34,11 8,1 16,2 24,0 3,0 7,-2 9,-5 4,-5 -1,-9 -5,-12 -1,0 0,-1 0,-1l0 0z"/>
  </g>
 </g>
</svg>
