<?xml version="1.0" encoding="UTF-8"?>
<!DOCTYPE svg PUBLIC "-//W3C//DTD SVG 1.1//EN" "http://www.w3.org/Graphics/SVG/1.1/DTD/svg11.dtd">
<!-- Creator: CorelDRAW X8 -->
<svg xmlns="http://www.w3.org/2000/svg" xml:space="preserve" width="400px" height="400px" version="1.1" style="shape-rendering:geometricPrecision; text-rendering:geometricPrecision; image-rendering:optimizeQuality; fill-rule:evenodd; clip-rule:evenodd"
viewBox="0 0 400 400"
 xmlns:xlink="http://www.w3.org/1999/xlink">
 <defs>
  <style type="text/css">
   <![CDATA[
    .fil0 {fill:#666666;fill-rule:nonzero}
   ]]>
  </style>
 </defs>
 <g id="Camada_x0020_1">
  <metadata id="CorelCorpID_0Corel-Layer"/>
  <g id="_2433067969568">
   <path class="fil0" d="M57 117c-1,4 -3,6 -5,8 -3,2 -5,2 -8,2 -2,0 -5,0 -7,-2 -2,-3 -3,-5 -3,-8 0,-3 1,-6 3,-10 1,-3 4,-6 6,-9 3,-2 5,-4 8,-6 2,-1 4,-1 6,-1 2,0 4,0 5,1 0,1 1,2 1,4 0,3 -1,6 -5,10 -2,2 -6,5 -11,6l1 -2c4,-2 7,-3 9,-6 3,-3 4,-6 4,-8 0,-1 0,-2 -1,-3 -1,-1 -2,-1 -3,-1 -1,0 -3,0 -5,2 -1,1 -4,3 -5,4 -4,3 -6,6 -8,9 -2,4 -2,7 -2,10 0,2 0,5 1,6 2,1 4,2 6,2 3,0 4,0 7,-2 1,-1 3,-3 5,-6l1 0 0 0z"/>
   <path id="_1" class="fil0" d="M71 123c0,0 0,1 0,1 0,0 0,0 0,0 0,0 0,0 0,1 0,0 0,0 0,0 1,0 1,-1 3,-2 2,-1 3,-3 6,-5l0 2 -1 1c-6,5 -9,6 -10,6 -1,0 -1,0 -1,0 -1,0 -1,0 -1,0 0,0 0,-1 1,-1 0,0 0,-1 0,-2l2 -3c-2,2 -3,4 -4,5 -2,1 -3,1 -4,1 -1,0 -3,0 -4,-1 -1,-1 -1,-3 -1,-4 0,-1 0,-3 1,-4 0,-1 1,-2 3,-3 1,-3 3,-4 6,-5 2,-1 4,-2 6,-2 1,0 2,0 3,0 1,1 1,1 1,2l0 2c0,-1 0,-1 -1,-1 -1,-1 -2,-1 -3,-1 -1,0 -4,1 -6,2 -2,0 -4,2 -5,4 0,1 -1,1 -2,2 0,2 -1,3 -1,4 0,0 1,2 1,2 1,1 2,2 2,2 1,0 3,-1 4,-3 1,-1 5,-6 8,-11l2 0 -5 11 0 0z"/>
   <path id="_2" class="fil0" d="M93 118l0 2c0,1 -1,2 -2,2 -5,4 -8,5 -9,5 0,0 -1,0 -1,0 0,0 0,0 0,-1 0,0 0,0 0,-1 0,-1 0,-1 1,-3l1 -5c0,1 0,2 -1,2 -1,1 -2,2 -3,2l0 -2c2,-2 3,-2 4,-3 1,-1 2,-2 2,-3l8 -21c0,-1 0,-2 1,-2 0,-1 0,-1 1,-1 0,0 0,0 1,0 0,1 0,1 0,2 0,0 0,1 -1,2 0,1 -1,3 -2,5 0,2 -1,4 -2,5 -1,3 -1,4 -1,4l-6 16c0,0 -1,1 -1,1 0,0 0,0 0,0 0,0 0,0 0,1 1,0 1,0 1,0 0,0 1,-1 3,-2 1,-1 3,-3 6,-5l0 0z"/>
   <path id="_3" class="fil0" d="M110 118l0 2c-4,3 -7,6 -8,7 -2,0 -4,0 -5,0 -2,0 -3,0 -4,-1 -1,-1 -1,-2 -1,-4 0,-2 0,-3 1,-5 0,-1 1,-3 2,-4 2,-1 3,-2 5,-3 2,-1 3,-2 4,-2 2,0 3,0 3,1 1,1 1,1 1,2 0,0 0,1 0,1 0,0 0,0 0,1l-2 4 -2 -1 2 -4c0,0 0,0 0,0 0,0 0,0 0,0 0,-1 0,-1 0,-1 -1,-1 -1,-1 -2,-1 -1,0 -2,1 -4,2 -1,0 -2,1 -3,3 -1,1 -2,2 -3,3 0,1 0,3 0,4 0,1 0,2 1,3 0,1 1,1 3,1 1,0 5,-3 10,-7l2 -1 0 0z"/>
   <path id="_4" class="fil0" d="M125 123c-1,0 -1,0 -1,1 0,0 0,0 0,0 0,0 0,0 0,0 0,0 0,1 1,1 0,0 1,-1 3,-2 1,-1 3,-3 6,-5l0 2c-4,3 -6,5 -8,6 -2,1 -2,1 -3,1 -1,0 -1,0 -1,0 0,0 -1,0 -1,0 0,-1 1,-1 1,-1 0,-1 0,-1 0,-2l5 -10c-4,4 -8,8 -11,10 -3,3 -4,3 -6,3 0,0 0,0 -1,0 0,0 0,0 0,-1 0,0 0,0 0,-1 0,0 0,0 1,-1l3 -6c0,0 -1,1 -2,2 0,0 -1,1 -2,1l0 -2c2,-2 3,-2 4,-3 1,-1 1,-2 2,-3l3 -4 1 0 -6 13c0,0 0,0 0,1 0,0 0,0 0,0 0,0 0,1 0,1 0,0 0,0 0,0 0,0 3,-2 6,-4 4,-3 7,-7 10,-11l3 0 -7 14 0 0z"/>
   <path id="_5" class="fil0" d="M147 118l0 2c-1,1 -2,2 -3,2 -5,4 -7,5 -8,5 -1,0 -1,0 -2,0 0,0 0,0 0,-1 0,0 0,0 0,-1 0,-1 1,-1 1,-3l2 -5c-1,1 -1,2 -2,2 -1,1 -1,2 -2,2l0 -2c1,-2 3,-2 4,-3 1,-1 2,-2 2,-3l7 -21c1,-1 1,-2 2,-2 0,-1 0,-1 1,-1 0,0 0,0 0,0 0,1 0,1 0,2 0,0 0,1 0,2 0,1 -1,3 -2,5 0,2 -1,4 -2,5 -1,3 -1,4 -1,4l-6 16c0,0 0,1 -1,1 0,0 0,0 0,0 0,0 0,0 1,1 0,0 0,0 0,0 0,0 1,-1 2,-2 2,-1 4,-3 7,-5l0 0z"/>
   <path id="_6" class="fil0" d="M159 123c0,0 0,1 0,1 0,0 0,0 0,0 0,0 0,0 0,1 0,0 0,0 0,0 0,0 2,-1 4,-2 1,-1 3,-3 6,-5l0 2 -1 1c-6,5 -9,6 -11,6 0,0 0,0 -1,0 0,0 0,0 0,0 0,0 0,-1 0,-1 0,0 1,-1 1,-2l2 -3c-2,2 -4,4 -5,5 -1,1 -2,1 -4,1 -1,0 -2,0 -3,-1 -1,-1 -1,-3 -1,-4 0,-1 0,-3 1,-4 0,-1 1,-2 2,-3 1,-3 4,-4 6,-5 2,-1 4,-2 7,-2 1,0 2,0 2,0 1,1 1,1 2,2l0 2c-1,-1 -2,-1 -2,-1 0,-1 -1,-1 -2,-1 -3,0 -4,1 -7,2 -1,0 -3,2 -5,4 -1,1 -1,1 -1,2 -1,2 -1,3 -1,4 0,0 0,2 1,2 0,1 0,2 1,2 2,0 3,-1 4,-3 2,-1 5,-6 9,-11l1 0 -5 11 0 0z"/>
   <path id="_7" class="fil0" d="M182 117c3,-5 5,-10 7,-14 1,-4 2,-8 2,-11 -1,3 -3,6 -5,10 -1,5 -3,10 -4,15l0 0zm11 1l0 2 -2 2c-5,4 -8,5 -10,5 -1,0 -1,0 -1,0 0,-1 0,-2 0,-3l0 -1c-2,2 -4,3 -5,4 0,0 -2,0 -3,0 -1,0 -2,0 -3,-1 -1,-1 -1,-3 -1,-4 0,-5 1,-7 4,-10 3,-3 6,-4 10,-4l0 0c3,-6 4,-11 6,-14 2,-3 3,-5 4,-5 1,0 1,0 1,1 1,0 1,1 1,2 0,1 -1,3 -1,5 -1,3 -2,5 -3,8 -1,3 -3,7 -4,9 -1,3 -3,5 -5,7 0,1 0,1 0,1 0,0 0,0 0,1 0,1 0,1 0,2 1,0 1,0 1,0 1,0 4,-2 8,-5l3 -2 0 0zm-13 2c0,-1 0,-3 0,-4 0,-2 1,-4 2,-6l0 0c-3,0 -6,1 -8,3 -3,3 -4,5 -4,8 0,1 0,2 0,3 1,1 2,2 3,2 1,0 2,-1 2,-2 1,-1 3,-2 5,-4l0 0z"/>
   <path id="_8" class="fil0" d="M204 120c1,-2 1,-3 1,-3 1,-2 1,-3 1,-3 0,-1 0,-1 0,-1 0,0 -1,-1 -1,-1 0,0 0,1 -1,2 0,2 -1,3 -1,3 0,1 0,1 1,2 0,0 0,1 0,1zm7 -2l0 2c-1,2 -2,2 -3,2 -2,1 -3,1 -3,1 0,0 0,0 0,0 -1,0 -1,0 -1,0 -1,2 -3,3 -4,4 -1,0 -2,0 -3,0 -2,0 -3,0 -4,-1 -1,-1 -1,-3 -1,-4 0,-3 0,-5 2,-7 1,-2 2,-3 4,-5 2,-1 2,-1 3,-2 1,0 2,-1 3,-1 0,0 0,0 0,1 1,0 1,0 1,0 0,1 -1,1 -2,2 -2,0 -3,1 -3,2 -2,0 -3,2 -5,4 0,1 -1,4 -1,6 0,0 1,1 1,2 0,1 1,2 2,2 1,0 2,-1 3,-1 0,-1 1,-2 3,-3 -1,-1 -1,-1 -2,-2 0,-1 0,-2 0,-3 0,-1 1,-3 2,-5 1,0 2,-1 3,-1 0,0 1,0 2,1 0,0 0,0 0,1 0,1 0,3 -1,4 0,1 -1,3 -2,5l0 0c1,0 1,-1 2,-1 1,-1 3,-2 4,-3z"/>
   <path id="_9" class="fil0" d="M220 123c0,0 0,1 0,1 0,0 0,0 0,0 0,0 0,0 0,1 0,0 0,0 0,0 1,0 1,-1 3,-2 2,-1 3,-3 6,-5l0 2 -1 2c-6,4 -9,5 -10,5 -1,0 -1,0 -1,0 -1,0 -1,0 -1,0 0,-1 0,-1 1,-1 0,-1 0,-1 0,-2l4 -9c0,-1 1,-1 1,-2 1,-1 1,-1 1,-1 0,-1 -1,-1 -2,-1 -1,0 -1,0 -2,0 -1,1 -3,4 -3,6 -2,1 -4,2 -5,4l0 -2c0,-2 2,-2 3,-4 2,-2 2,-3 3,-5 0,0 -1,0 -1,-1 0,0 0,0 0,-1 0,-1 0,-1 1,-1 0,0 0,-1 1,-1 1,0 1,1 1,1 1,0 1,0 1,0 0,1 0,1 0,1 0,0 0,0 0,1 0,0 1,0 1,0 0,0 0,0 0,0 1,0 3,0 3,0 1,1 1,2 1,3 0,0 0,0 0,0 0,1 0,2 -1,3l-4 8 0 0z"/>
   <path id="_10" class="fil0" d="M242 123c-1,0 -1,1 -1,1 0,0 0,0 0,0 0,0 0,0 0,1 0,0 1,0 1,0 0,0 1,-1 3,-2 1,-1 4,-3 6,-5l0 2 0 1c-6,5 -10,6 -11,6 0,0 -1,0 -1,0 0,0 0,0 0,0 0,0 0,-1 0,-1 0,0 0,-1 0,-2l2 -3c-2,2 -3,4 -5,5 0,1 -2,1 -3,1 -2,0 -2,0 -3,-1 -1,-1 -2,-3 -2,-4 0,-1 1,-3 1,-4 1,-1 2,-2 2,-3 2,-3 4,-4 6,-5 3,-1 5,-2 7,-2 1,0 2,0 2,0 1,1 2,1 3,2l0 2c-1,-1 -2,-1 -3,-1 0,-1 -1,-1 -2,-1 -2,0 -3,1 -6,2 -2,0 -4,2 -5,4 -1,1 -2,1 -2,2 0,2 0,3 0,4 0,0 0,2 0,2 0,1 1,2 2,2 1,0 3,-1 4,-3 2,-1 4,-6 8,-11l2 0 -5 11 0 0z"/>
   <path class="fil0" d="M40 136l0 2c1,0 2,0 2,1 0,1 0,2 0,2 -1,1 -1,2 -2,2 -1,1 -2,1 -2,1 -1,0 -1,0 -1,0 0,0 0,-1 0,-1 1,0 1,1 1,1 1,0 1,-1 2,-1 0,0 1,-1 1,-1 0,-1 0,-2 0,-2 0,-1 0,-2 -2,-2l0 0c-1,3 -1,4 -2,5l-2 5 0 1c0,0 0,0 -1,0l0 0 0 0c1,-1 2,-4 3,-8l0 0 0 0c0,0 1,0 1,-1 0,0 0,-1 1,-2l0 0 0 0c-1,0 -1,0 -2,0l0 1 0 0 0 -1 0 0 1 0 1 0c0,0 0,0 0,0l1 -2 0 0 0 0z"/>
   <path id="_1_0" class="fil0" d="M47 143l0 0c0,1 0,1 -2,2 0,-1 1,-2 2,-3 -1,1 -2,1 -3,2 -1,0 -2,1 -2,1 0,0 0,-1 0,-1 0,-1 0,-2 0,-3 1,-1 2,-2 4,-3 1,0 2,0 4,0 0,0 0,0 0,0 0,0 0,0 0,0 -1,0 -1,0 -2,0 -1,0 -3,1 -4,2 -1,1 -2,3 -2,3 0,0 0,1 1,1 0,0 0,-1 1,-1 1,0 1,-1 2,-1 1,-1 1,-3 1,-4 0,0 0,1 0,1 0,1 0,2 0,3 0,0 0,-1 0,-1l0 0c0,2 0,2 0,2 0,0 0,0 0,0 0,0 0,0 0,0z"/>
   <path id="_2_1" class="fil0" d="M54 138l0 0c0,0 0,0 -1,0 0,0 -1,0 -1,2 -1,0 -1,1 -1,2 -1,0 -1,1 -2,2l0 0c0,0 -1,0 -1,1l0 -1 1 -1c1,-3 1,-4 1,-4 0,-1 0,-1 0,-1 0,0 0,0 -1,1l0 -1c1,0 2,0 3,0 0,0 0,0 0,0 0,0 0,0 -1,2l1 -1c0,-1 1,-1 2,-1 0,0 0,0 0,0z"/>
   <path id="_3_2" class="fil0" d="M59 143l0 0c-1,1 -2,1 -2,2 0,-1 0,-2 0,-3 0,1 -1,1 -2,2 -1,0 -1,1 -2,1 -1,0 -1,-1 -1,-1 0,-1 1,-2 2,-3 1,-1 2,-2 3,-3 1,0 2,0 4,0 0,0 0,0 0,0 0,0 0,0 0,0 0,0 -1,0 -1,0 -2,0 -3,1 -5,2 -1,1 -2,3 -2,3 0,0 1,1 1,1 0,0 1,-1 2,-1 0,0 1,-1 1,-1 0,-1 1,-3 1,-4 0,0 0,1 0,1 0,1 0,2 -1,3 1,0 1,-1 1,-1l0 0c0,2 -1,2 -1,2 0,0 0,0 1,0 0,0 0,0 1,0z"/>
   <path class="fil0" d="M93 136l0 9 -18 1 0 11 17 0 0 9 -14 0c-1,0 -1,0 -4,0 0,5 0,9 0,14 0,3 0,5 1,7l-12 0 1 -40c0,-3 0,-6 1,-10l28 -1 0 0z"/>
   <path id="_1_3" class="fil0" d="M124 176l0 9c-4,2 -9,2 -15,2 -6,0 -10,-2 -11,-4 -2,-2 -3,-6 -3,-12 0,-1 1,-5 1,-11 1,-6 1,-11 1,-16 1,-3 0,-6 0,-7l27 -1 -1 9c-9,0 -14,1 -16,1l0 11c6,0 11,-1 14,-1l0 10 -15 0 0 3c0,3 0,4 1,5 0,2 1,3 2,3 5,0 9,-1 15,-1l0 0z"/>
   <path id="_2_4" class="fil0" d="M155 172c0,4 -1,7 -3,10 -3,3 -7,5 -11,5 -3,0 -8,-2 -13,-6l4 -8c3,3 7,5 9,5 3,0 3,-2 3,-6 0,-2 0,-3 0,-4 -1,-1 -2,-2 -5,-4 -5,-1 -7,-4 -9,-7 -1,-2 -2,-5 -2,-9 0,-3 1,-6 3,-9 3,-2 6,-3 10,-3 3,0 7,2 8,4 2,2 4,4 5,8l-9 5c0,-3 -1,-5 -1,-6 -1,-2 -2,-2 -3,-2 -2,0 -2,1 -2,3 0,2 0,4 0,5 1,0 2,1 4,2 5,3 8,5 10,8 1,3 2,5 2,9l0 0z"/>
   <path id="_3_5" class="fil0" d="M187 147c-2,-1 -6,-1 -8,-1l-1 17c0,5 0,12 0,24l-10 -1c0,-3 0,-8 1,-17l0 -23 -10 0 0 -10c4,0 7,1 11,1l17 0 0 10 0 0z"/>
   <path id="_4_6" class="fil0" d="M221 185l-9 2c-1,-4 -2,-8 -2,-11l-10 1 0 1c0,2 0,6 -1,9l-9 -3c0,0 0,-2 2,-6l10 -35c1,-5 3,-7 4,-7 1,0 3,2 4,8l2 11c4,13 7,24 9,30l0 0zm-13 -17c-1,-1 -1,-2 -1,-4l-2 -8c0,-2 0,-3 0,-3 0,0 0,0 0,3l-3 12c1,0 3,0 4,0l2 0 0 0z"/>
   <path id="_5_7" class="fil0" d="M251 172c0,4 -1,7 -4,10 -2,3 -6,5 -11,5 -3,0 -8,-2 -13,-6l5 -8c3,3 6,5 8,5 3,0 4,-2 4,-6 0,-2 0,-3 -1,-4 0,-1 -2,-2 -3,-4 -5,-1 -9,-4 -10,-7 -2,-2 -3,-5 -3,-9 0,-3 2,-6 4,-9 3,-2 5,-3 9,-3 4,0 7,2 10,4 0,2 2,4 5,8l-10 5c0,-3 -1,-5 -2,-6 0,-2 -1,-2 -3,-2 -1,0 -2,1 -2,3 0,2 1,4 2,5 0,0 1,1 2,2 5,3 8,5 10,8 2,3 3,5 3,9l0 0z"/>
  </g>
 </g>
</svg>
