<?xml version="1.0" encoding="UTF-8"?>
<!DOCTYPE svg PUBLIC "-//W3C//DTD SVG 1.1//EN" "http://www.w3.org/Graphics/SVG/1.1/DTD/svg11.dtd">
<!-- Creator: CorelDRAW X8 -->
<svg xmlns="http://www.w3.org/2000/svg" xml:space="preserve" width="290px" height="131px" version="1.1" style="shape-rendering:geometricPrecision; text-rendering:geometricPrecision; image-rendering:optimizeQuality; fill-rule:evenodd; clip-rule:evenodd"
viewBox="0 0 260 117"
 xmlns:xlink="http://www.w3.org/1999/xlink">
 <defs>
  <style type="text/css">
   <![CDATA[
    .fil0 {fill:white;fill-rule:nonzero}
   ]]>
  </style>
 </defs>
 <g id="Camada_x0020_1">
  <metadata id="CorelCorpID_0Corel-Layer"/>
  <g id="_2433067969568">
   <path class="fil0" d="M28 34c-2,4 -4,7 -7,9 -3,2 -6,3 -9,3 -3,0 -6,-1 -9,-3 -2,-3 -3,-6 -3,-9 0,-4 1,-8 3,-12 2,-4 5,-8 8,-11 3,-3 6,-5 9,-7 3,-2 5,-2 7,-2 3,0 5,0 6,1 1,2 2,3 2,5 0,4 -2,8 -6,12 -3,3 -8,6 -13,8l1 -3c4,-2 8,-4 11,-7 3,-4 4,-7 4,-10 0,-1 0,-2 -1,-3 -1,-1 -2,-1 -4,-1 -1,0 -3,0 -5,2 -2,1 -5,3 -7,5 -4,3 -7,7 -9,11 -2,4 -3,8 -3,11 0,3 1,6 2,8 2,1 4,2 7,2 3,0 5,0 8,-2 2,-2 4,-4 6,-8l2 1z"/>
   <path id="1" class="fil0" d="M44 41c0,0 0,1 0,1 0,0 0,0 0,0 0,0 0,0 0,1 0,0 0,0 0,0 1,0 2,-1 4,-2 2,-2 4,-4 7,-6l0 2 -1 1c-7,6 -11,8 -12,8 -1,0 -1,0 -1,0 -1,0 -1,-1 -1,-1 0,0 0,-1 1,-1 0,0 0,-1 0,-2l2 -4c-2,3 -4,5 -5,6 -2,2 -3,2 -5,2 -1,0 -3,0 -4,-2 -1,-1 -1,-3 -1,-5 0,-1 0,-3 1,-4 0,-2 1,-3 3,-4 2,-3 4,-5 7,-6 3,-1 5,-2 8,-2 1,0 2,0 3,0 1,1 2,1 2,2l0 2c-1,-1 -1,-1 -2,-1 -1,-1 -2,-1 -3,-1 -2,0 -5,1 -7,2 -3,1 -5,3 -6,5 -1,1 -2,2 -3,3 0,2 -1,3 -1,4 0,1 1,3 1,3 1,1 2,2 3,2 1,0 3,-1 4,-3 2,-2 6,-7 10,-13l2 0 -6 13z"/>
   <path id="2" class="fil0" d="M71 35l0 2c-1,1 -2,2 -3,3 -6,4 -9,6 -11,6 0,0 -1,0 -1,0 0,0 0,-1 0,-2 0,0 0,0 0,-1 0,-1 0,-1 1,-3l2 -6c-1,1 -1,2 -2,2 -1,1 -2,2 -3,2l0 -2c2,-2 3,-3 5,-4 1,-1 2,-2 2,-3l9 -25c1,-2 1,-3 2,-3 0,-1 0,-1 1,-1 0,0 0,0 1,0 0,1 0,1 0,2 0,0 0,1 -1,3 0,1 -1,3 -2,6 -1,2 -2,4 -3,6 -1,3 -1,4 -1,4l-7 20c0,0 -1,1 -1,1 0,0 0,0 0,0 0,0 0,0 0,1 1,0 1,0 1,0 0,0 1,-1 3,-2 2,-2 4,-4 8,-6z"/>
   <path id="3" class="fil0" d="M91 35l0 2c-5,4 -8,7 -10,8 -2,1 -4,1 -6,1 -2,0 -3,0 -4,-2 -2,-1 -2,-2 -2,-5 0,-2 0,-3 1,-5 1,-2 2,-4 3,-5 2,-2 4,-3 6,-4 2,-1 4,-2 5,-2 2,0 3,0 3,1 1,1 2,1 2,2 0,0 -1,1 -1,1 0,1 0,1 0,2l-2 4 -2 -1 2 -4c0,0 0,-1 0,-1 0,0 0,0 0,0 0,-1 0,-1 0,-1 -1,-1 -1,-1 -2,-1 -1,0 -3,1 -5,2 -1,1 -3,2 -4,4 -1,1 -2,3 -3,4 0,1 0,3 0,4 0,2 0,3 1,4 0,1 1,1 3,1 2,0 7,-3 13,-8l2 -1z"/>
   <path id="4" class="fil0" d="M109 41c-1,0 -1,0 -1,1 0,0 0,0 0,0 0,0 0,0 0,0 0,0 0,1 1,1 0,0 1,-1 3,-2 1,-2 4,-4 7,-6l0 2c-4,4 -7,6 -9,7 -2,2 -3,2 -4,2 -1,0 -1,0 -1,0 0,-1 -1,-1 -1,-1 0,-1 1,-1 1,-1 0,-1 0,-1 0,-2l6 -12c-5,5 -9,9 -13,12 -3,3 -5,4 -7,4 0,0 0,0 -1,0 0,0 0,-1 0,-2 0,0 0,0 0,-1 0,0 0,0 1,-1l3 -7c0,0 -1,1 -2,2 0,0 -1,1 -2,1l0 -2c2,-2 3,-3 5,-4 1,-1 1,-2 2,-3l3 -5 2 0 -8 16c0,0 0,0 0,1 0,0 0,0 0,0 0,0 0,1 0,1 0,0 0,0 1,0 0,0 3,-2 7,-5 4,-4 8,-8 12,-13l3 0 -8 17z"/>
   <path id="5" class="fil0" d="M135 35l0 2c-1,1 -2,2 -3,3 -6,4 -9,6 -10,6 -1,0 -1,0 -2,0 0,0 0,-1 0,-2 0,0 0,0 0,-1 0,-1 1,-1 1,-3l2 -6c-1,1 -1,2 -2,2 -1,1 -2,2 -3,2l0 -2c2,-2 4,-3 5,-4 1,-1 2,-2 2,-3l9 -25c1,-2 1,-3 2,-3 0,-1 0,-1 1,-1 0,0 0,0 1,0 0,1 0,1 0,2 0,0 0,1 -1,3 0,1 -1,3 -2,6 0,2 -1,4 -2,6 -2,3 -2,4 -2,4l-7 20c0,0 0,1 -1,1 0,0 0,0 0,0 0,0 0,0 1,1 0,0 0,0 0,0 0,0 1,-1 3,-2 2,-2 5,-4 8,-6z"/>
   <path id="6" class="fil0" d="M150 41c0,0 0,1 0,1 0,0 0,0 0,0 0,0 0,0 0,1 0,0 0,0 0,0 0,0 2,-1 4,-2 1,-2 4,-4 7,-6l0 2 -1 1c-7,6 -11,8 -13,8 0,0 0,0 -1,0 0,0 0,-1 0,-1 0,0 0,-1 0,-1 0,0 1,-1 1,-2l2 -4c-2,3 -4,5 -5,6 -2,2 -3,2 -5,2 -2,0 -3,0 -4,-2 -1,-1 -1,-3 -1,-5 0,-1 0,-3 1,-4 0,-2 1,-3 2,-4 2,-3 5,-5 8,-6 2,-1 5,-2 8,-2 1,0 2,0 3,0 1,1 1,1 2,2l0 2c-1,-1 -2,-1 -3,-1 0,-1 -1,-1 -2,-1 -3,0 -5,1 -8,2 -2,1 -4,3 -6,5 -1,1 -1,2 -2,3 -1,2 -1,3 -1,4 0,1 0,3 1,3 1,1 1,2 2,2 2,0 3,-1 5,-3 2,-2 5,-7 10,-13l2 0 -6 13z"/>
   <path id="7" class="fil0" d="M177 33c3,-5 6,-11 8,-16 2,-5 3,-10 3,-13 -2,3 -4,7 -6,12 -2,5 -4,11 -5,17zm13 2l0 2 -2 2c-6,5 -10,7 -12,7 -1,0 -1,0 -2,-1 0,-1 0,-2 0,-3l0 -1c-2,2 -4,3 -5,4 -1,1 -3,1 -4,1 -1,0 -3,0 -4,-2 -1,-1 -1,-3 -1,-5 0,-5 1,-8 5,-12 3,-3 7,-4 12,-4l0 0c3,-7 5,-13 7,-17 2,-4 4,-6 5,-6 1,0 1,0 1,1 1,0 1,1 1,2 0,2 -1,4 -1,7 -1,3 -2,6 -4,9 -1,4 -3,8 -4,11 -2,3 -4,6 -6,8 0,1 0,1 0,2 0,0 0,0 0,1 0,1 0,1 0,2 1,0 1,0 1,0 1,0 5,-2 10,-6l3 -2zm-16 2c0,-1 0,-3 1,-5 0,-2 1,-4 2,-7l0 0c-4,0 -7,1 -10,4 -3,3 -5,6 -5,9 0,2 1,3 1,4 1,1 2,2 3,2 1,0 2,-1 3,-2 1,-1 3,-3 5,-5z"/>
   <path id="8" class="fil0" d="M203 37c1,-2 2,-3 2,-4 1,-2 1,-3 1,-3 0,-1 0,-1 0,-1 0,0 -1,-1 -1,-1 -1,0 -1,1 -2,2 0,2 -1,3 -1,4 0,1 0,1 1,2 0,0 0,1 0,1zm9 -2l0 2c-2,2 -3,2 -4,3 -2,1 -3,1 -3,1 -1,0 -1,0 -1,0 -1,0 -1,0 -1,0 -1,2 -3,3 -4,4 -2,1 -3,1 -4,1 -2,0 -4,0 -5,-2 -1,-1 -1,-3 -1,-5 0,-3 0,-5 2,-8 1,-2 3,-4 5,-6 2,-1 3,-1 4,-2 1,0 2,-1 3,-1 0,0 0,0 0,1 1,0 1,0 1,0 0,1 -1,1 -2,2 -2,0 -3,1 -3,2 -3,1 -4,3 -6,5 -1,2 -2,5 -2,7 0,1 1,2 1,3 1,1 2,2 3,2 1,0 2,-1 3,-1 1,-1 2,-2 4,-4 -1,-1 -1,-1 -2,-2 0,-1 0,-2 0,-3 0,-2 1,-4 2,-6 1,-1 2,-2 4,-2 0,0 1,0 2,1 0,0 0,1 0,2 0,1 0,3 -1,5 0,1 -1,3 -2,5l0 0c1,0 1,-1 2,-1 1,-1 3,-2 5,-3z"/>
   <path id="9" class="fil0" d="M222 41c0,0 0,1 0,1 0,0 0,0 0,0 0,0 0,0 0,1 0,0 0,0 0,0 1,0 2,-1 4,-2 2,-2 4,-4 7,-6l0 2 -1 2c-7,5 -11,7 -12,7 -1,0 -1,0 -1,0 -1,0 -1,-1 -1,-1 0,-1 0,-1 1,-1 0,-1 0,-1 0,-2l5 -11c0,-1 1,-1 1,-2 1,-1 1,-2 1,-2 0,-1 -1,-1 -3,-1 -1,0 -1,0 -2,0 -1,2 -3,5 -4,7 -2,2 -4,3 -6,5l0 -2c1,-2 3,-3 4,-5 2,-2 3,-4 4,-6 0,0 -1,0 -1,-1 0,0 0,0 0,-1 0,-1 0,-1 1,-2 0,0 0,-1 1,-1 1,0 1,1 1,1 1,0 1,1 1,1 0,1 0,1 0,1 0,0 0,0 0,1 0,0 1,0 1,0 0,0 1,0 1,0 1,0 3,0 3,0 1,1 1,2 1,3 0,0 0,0 0,1 0,1 0,2 -1,3l-5 10z"/>
   <path id="10" class="fil0" d="M249 41c-1,0 -1,1 -1,1 0,0 0,0 0,0 0,0 0,0 0,1 0,0 1,0 1,0 0,0 1,-1 3,-2 2,-2 5,-4 8,-6l0 2 -1 1c-7,6 -12,8 -13,8 0,0 -1,0 -1,0 0,0 0,-1 0,-1 0,0 0,-1 0,-1 0,0 0,-1 0,-2l2 -4c-2,3 -3,5 -5,6 -1,2 -3,2 -4,2 -2,0 -3,0 -4,-2 -1,-1 -2,-3 -2,-5 0,-1 1,-3 1,-4 1,-2 2,-3 3,-4 2,-3 4,-5 7,-6 3,-1 6,-2 8,-2 1,0 2,0 3,0 1,1 2,1 3,2l0 2c-1,-1 -2,-1 -3,-1 -1,-1 -2,-1 -3,-1 -2,0 -4,1 -7,2 -3,1 -5,3 -6,5 -1,1 -2,2 -2,3 -1,2 -1,3 -1,4 0,1 0,3 1,3 0,1 1,2 2,2 1,0 3,-1 5,-3 2,-2 5,-7 9,-13l3 0 -6 13z"/>
   <path class="fil0" d="M7 56l0 2c1,0 2,1 2,2 0,1 0,2 0,2 -1,1 -1,2 -2,3 -1,1 -2,1 -2,1 -1,0 -1,0 -1,0 0,0 0,-1 0,-1 1,0 1,1 1,1 1,0 1,-1 2,-2 0,0 1,-1 1,-1 0,-1 0,-2 0,-2 0,-1 0,-2 -2,-2l0 0c-1,3 -1,4 -2,5l-3 7 0 1c0,0 0,0 -1,0l0 0 0 0c1,-2 2,-5 4,-10l0 0 0 0c0,0 1,0 1,-1 0,0 0,-1 1,-2l0 0 0 0c-1,0 -1,0 -2,0l0 1 -1 0 1 -2 0 0 1 0 1 0c0,0 0,0 0,0l1 -2 0 0z"/>
   <path id="1" class="fil0" d="M16 65l0 0c0,1 -1,1 -3,2 0,-1 1,-2 2,-4 -1,1 -2,2 -3,3 -1,0 -2,1 -2,1 -1,0 -1,-1 -1,-1 0,-1 0,-3 1,-4 1,-1 2,-2 4,-3 1,-1 3,-1 5,-1 0,0 0,0 0,0 0,0 0,0 0,1 -1,0 -1,0 -2,0 -2,0 -4,1 -5,2 -1,1 -2,3 -2,4 0,0 0,1 1,1 0,0 0,-1 1,-1 1,-1 1,-2 2,-2 1,-1 1,-3 1,-4 1,0 1,1 1,1 0,1 -1,2 -1,3 0,0 1,-1 1,-1l0 0c-1,2 -1,3 -1,3 0,0 0,0 0,0 0,0 1,0 1,0z"/>
   <path id="2" class="fil0" d="M24 58l0 1c0,0 0,0 -1,0 0,0 -1,0 -2,2 -1,0 -1,1 -1,2 -1,0 -1,1 -2,3l0 0c0,0 -1,0 -1,1l0 -1 1 -2c1,-3 1,-4 1,-4 0,-1 0,-1 0,-1 0,0 0,0 -1,1l0 -1c1,0 2,-1 3,-1 0,0 0,0 0,0 0,1 0,1 -1,3l1 -1c1,-1 2,-2 3,-2 0,0 0,0 0,0z"/>
   <path id="3" class="fil0" d="M30 65l0 0c-1,1 -2,1 -3,2 0,-1 0,-2 1,-4 -1,1 -2,2 -3,3 -1,0 -1,1 -2,1 -1,0 -1,-1 -1,-1 0,-1 1,-3 2,-4 1,-1 2,-2 3,-3 2,-1 3,-1 5,-1 0,0 0,0 0,0 0,0 0,0 0,1 0,0 -1,0 -1,0 -2,0 -4,1 -6,2 -1,1 -2,3 -2,4 0,0 1,1 1,1 0,0 1,-1 2,-1 0,-1 1,-2 1,-2 1,-1 2,-3 2,-4 0,0 0,1 0,1 0,1 0,2 -1,3 1,0 1,-1 1,-1l0 0c0,2 -1,3 -1,3 0,0 0,0 1,0 0,0 0,0 1,0z"/>
   <path class="fil0" d="M71 56l0 11 -22 1 0 13 20 0 0 11 -16 0c-1,0 -2,0 -5,0 0,6 0,11 0,17 0,3 0,6 1,8l-14 0 1 -48c0,-3 0,-7 1,-12l34 -1z"/>
   <path id="1" class="fil0" d="M107 104l0 11c-4,2 -10,2 -17,2 -7,0 -12,-2 -14,-5 -2,-2 -3,-7 -3,-14 0,-1 1,-6 1,-13 1,-7 1,-13 1,-19 1,-4 0,-7 0,-9l32 -1 -1 11c-10,0 -16,1 -19,1l0 13c7,0 13,-1 17,-1l0 12 -18 0 0 4c0,3 0,5 1,6 0,2 1,3 3,3 6,0 11,-1 17,-1z"/>
   <path id="2" class="fil0" d="M145 99c0,5 -1,9 -4,12 -4,4 -8,6 -13,6 -4,0 -10,-2 -16,-7l5 -10c4,4 8,6 11,6 3,0 4,-2 4,-7 0,-2 0,-3 -1,-5 -1,-1 -2,-2 -5,-4 -6,-2 -9,-5 -11,-9 -2,-2 -3,-6 -3,-10 0,-4 1,-8 4,-11 3,-3 7,-4 12,-4 4,0 8,2 10,5 2,2 4,5 6,10l-11 5c0,-3 -1,-6 -2,-7 -1,-2 -2,-2 -3,-2 -2,0 -3,1 -3,4 0,2 0,4 1,5 1,1 2,2 4,3 6,3 10,6 12,9 2,4 3,7 3,11z"/>
   <path id="3" class="fil0" d="M183 69c-3,-1 -7,-1 -10,-1l-1 20c0,6 0,15 0,29l-12 -1c0,-4 0,-10 1,-20l0 -28 -12 0 1 -12c4,0 8,1 13,1l20 0 0 12z"/>
   <path id="4" class="fil0" d="M223 115l-10 2c-2,-5 -3,-9 -3,-13l-11 1 0 1c0,3 -1,7 -2,11l-11 -3c0,0 1,-3 3,-8l12 -42c1,-5 3,-8 5,-8 1,0 3,3 4,10l3 13c4,16 8,28 10,36zm-15 -21c-1,-1 -1,-2 -1,-4l-2 -10c0,-2 0,-3 0,-4 0,0 -1,1 -1,4l-3 14c1,0 3,0 5,0l2 0z"/>
   <path id="5" class="fil0" d="M259 99c1,5 -1,9 -4,12 -3,4 -8,6 -13,6 -4,0 -10,-2 -16,-7l6 -10c4,4 7,6 10,6 3,0 4,-2 4,-7 0,-2 0,-3 -1,-5 0,-1 -2,-2 -4,-4 -6,-2 -10,-5 -12,-9 -2,-2 -3,-6 -3,-10 0,-4 2,-8 5,-11 3,-3 6,-4 11,-4 4,0 8,2 11,5 1,2 3,5 6,10l-11 5c-1,-3 -2,-6 -3,-7 0,-2 -1,-2 -3,-2 -2,0 -3,1 -3,4 0,2 1,4 2,5 0,1 2,2 3,3 6,3 10,6 12,9 2,4 3,7 3,11z"/>
  </g>
 </g>
</svg>
