<?xml version="1.0" encoding="UTF-8"?>
<!DOCTYPE svg PUBLIC "-//W3C//DTD SVG 1.1//EN" "http://www.w3.org/Graphics/SVG/1.1/DTD/svg11.dtd">
<!-- Creator: CorelDRAW X8 -->
<svg xmlns="http://www.w3.org/2000/svg" xml:space="preserve" width="400px" height="400px" version="1.1" style="shape-rendering:geometricPrecision; text-rendering:geometricPrecision; image-rendering:optimizeQuality; fill-rule:evenodd; clip-rule:evenodd"
viewBox="0 0 400 400"
 xmlns:xlink="http://www.w3.org/1999/xlink">
 <defs>
  <style type="text/css">
   <![CDATA[
    .fil0 {fill:#A3A3A3;fill-rule:nonzero}
    .fil1 {fill:#A3A3A3;fill-rule:nonzero}
    .fil2 {fill:#333333;fill-opacity:0.250980}
   ]]>
  </style>
 </defs>
 <g id="Camada_x0020_1">
  <metadata id="CorelCorpID_0Corel-Layer"/>
  <g id="_2397067212944">
   <g>
    <path class="fil0" d="M23 190l0 -19 7 0c1,0 2,0 3,0 1,0 2,1 3,2 1,0 2,2 2,3 1,1 1,3 1,4 0,2 0,3 -1,4 0,2 0,2 -1,3 -1,1 -1,2 -2,2 0,0 -1,1 -2,1 -1,0 -2,0 -3,0l-7 0zm2 -2l5 0c1,0 2,0 3,0 0,-1 1,-1 1,-1 1,-1 1,-2 2,-3 0,-1 0,-2 0,-4 0,-2 0,-3 -1,-4 0,-1 -1,-2 -2,-2 -1,-1 -2,-1 -4,-1l-4 0 0 15z"/>
    <polygon id="1" class="fil0" points="42,190 42,171 56,171 56,173 45,173 45,179 56,179 56,181 45,181 45,188 57,188 57,190 "/>
    <path id="2" class="fil0" d="M60 184l2 0c0,1 0,2 1,2 0,1 1,1 2,2 1,0 2,0 3,0 1,0 2,0 2,0 1,0 2,-1 2,-1 0,-1 1,-1 1,-2 0,-1 -1,-1 -1,-2 0,0 -1,0 -2,-1 0,0 -1,0 -3,-1 -2,0 -3,0 -4,-1 -1,0 -2,-1 -2,-2 0,0 -1,-1 -1,-2 0,-1 1,-2 1,-3 1,-1 2,-1 3,-2 1,0 2,0 3,0 2,0 3,0 4,0 1,1 2,1 2,2 1,1 1,2 1,3l-2 1c0,-2 -1,-3 -1,-3 -1,-1 -2,-1 -4,-1 -1,0 -2,0 -3,1 -1,0 -1,1 -1,2 0,0 0,1 1,1 0,1 1,1 3,2 2,0 4,1 5,1 1,1 2,1 2,2 1,1 1,2 1,3 0,1 0,2 -1,3 0,1 -1,1 -2,2 -2,0 -3,1 -4,1 -2,0 -3,-1 -5,-1 -1,-1 -2,-1 -2,-2 -1,-1 -1,-3 -1,-4z"/>
    <polygon id="3" class="fil0" points="79,190 79,171 93,171 93,173 81,173 81,179 92,179 92,181 81,181 81,188 93,188 93,190 "/>
    <polygon id="4" class="fil0" points="97,190 97,171 99,171 109,186 109,171 112,171 112,190 109,190 99,175 99,190 "/>
    <path id="5" class="fil0" d="M122 190l-8 -19 3 0 5 14c0,1 1,2 1,3 0,-1 1,-2 1,-3l5 -14 3 0 -8 19 -2 0z"/>
    <path id="6" class="fil0" d="M133 181c0,-3 1,-6 3,-8 2,-2 4,-2 7,-2 1,0 3,0 4,1 2,1 3,2 4,3 1,2 1,4 1,6 0,2 -1,3 -1,5 -1,1 -2,3 -4,3 -1,1 -3,2 -4,2 -2,0 -4,-1 -5,-2 -2,-1 -3,-2 -4,-3 0,-2 -1,-3 -1,-5zm3 0c0,2 1,4 2,5 1,2 3,2 5,2 2,0 3,0 4,-2 2,-1 2,-3 2,-5 0,-2 0,-3 -1,-4 0,-2 -1,-3 -2,-3 -1,-1 -2,-1 -3,-1 -2,0 -4,0 -5,2 -1,1 -2,3 -2,6z"/>
    <polygon id="7" class="fil0" points="155,190 155,171 158,171 158,188 167,188 167,190 "/>
    <path id="8" class="fil0" d="M174 190l-8 -19 3 0 5 14c0,1 1,2 1,3 0,-1 1,-2 1,-3l5 -14 3 0 -8 19 -2 0z"/>
    <polygon id="9" class="fil0" points="187,190 187,171 189,171 189,190 "/>
    <path id="10" class="fil0" d="M194 190l0 -19 6 0c2,0 3,0 4,0 1,0 2,1 3,2 1,0 2,2 2,3 1,1 1,3 1,4 0,2 0,3 -1,4 0,2 0,2 -1,3 -1,1 -1,2 -2,2 0,0 -1,1 -2,1 -1,0 -2,0 -3,0l-7 0zm2 -2l5 0c1,0 2,0 3,0 0,-1 1,-1 1,-1 1,-1 1,-2 2,-3 0,-1 0,-2 0,-4 0,-2 0,-3 -1,-4 0,-1 -1,-2 -2,-2 -1,-1 -2,-1 -4,-1l-4 0 0 15z"/>
    <path id="11" class="fil0" d="M213 181c0,-3 0,-6 2,-8 2,-2 4,-2 7,-2 2,0 3,0 5,1 1,1 2,2 3,3 1,2 1,4 1,6 0,2 0,3 -1,5 -1,1 -2,3 -3,3 -2,1 -3,2 -5,2 -2,0 -4,-1 -5,-2 -1,-1 -3,-2 -3,-3 -1,-2 -1,-3 -1,-5zm2 0c0,2 1,4 2,5 1,2 3,2 5,2 2,0 3,0 5,-2 1,-1 1,-3 1,-5 0,-2 0,-3 0,-4 -1,-2 -2,-3 -3,-3 -1,-1 -2,-1 -3,-1 -2,0 -4,0 -5,2 -1,1 -2,3 -2,6z"/>
    <path id="12" class="fil0" d="M242 190l0 -19 7 0c2,0 3,0 3,0 1,0 2,1 3,1 0,0 1,1 1,2 1,1 1,2 1,3 0,1 -1,3 -2,4 -1,1 -3,1 -6,1l-5 0 0 8 -2 0zm2 -10l5 0c2,0 3,0 4,-1 1,0 1,-1 1,-2 0,-1 0,-2 -1,-3 0,0 0,0 -1,-1 -1,0 -1,0 -3,0l-5 0 0 7z"/>
    <path id="13" class="fil0" d="M259 181c0,-3 1,-6 3,-8 2,-2 4,-2 6,-2 2,0 4,0 5,1 2,1 3,2 4,3 0,2 1,4 1,6 0,2 -1,3 -1,5 -1,1 -2,3 -4,3 -1,1 -3,2 -5,2 -1,0 -3,-1 -4,-2 -2,-1 -3,-2 -4,-3 0,-2 -1,-3 -1,-5zm3 0c0,2 0,4 2,5 1,2 3,2 4,2 2,0 4,0 5,-2 1,-1 2,-3 2,-5 0,-2 0,-3 -1,-4 0,-2 -1,-3 -2,-3 -1,-1 -2,-1 -4,-1 -1,0 -3,0 -4,2 -2,1 -2,3 -2,6z"/>
    <path id="14" class="fil0" d="M281 190l0 -19 9 0c1,0 3,0 4,0 0,1 1,1 2,2 0,1 1,2 1,3 0,2 -1,3 -2,4 -1,1 -2,1 -4,1 1,1 1,1 2,1 0,1 1,2 2,3l3 5 -3 0 -3 -4c0,-1 -1,-2 -1,-2 -1,-1 -1,-1 -2,-2 0,0 -1,0 -1,0 0,0 -1,0 -1,0l-3 0 0 8 -3 0zm3 -11l5 0c1,0 2,0 3,0 1,0 1,-1 1,-1 1,-1 1,-1 1,-2 0,-1 0,-1 -1,-2 -1,-1 -2,-1 -3,-1l-6 0 0 6z"/>
    <polygon class="fil1" points="164,205 164,195 165,195 165,204 169,204 169,205 "/>
    <path id="1" class="fil1" d="M174 197l-1 4 3 0 -2 -4zm0 -3l5 11 -1 0 -2 -3 -4 0 -1 3 -2 0 5 -11z"/>
    <path id="2" class="fil1" d="M180 195l1 0 0 6c0,1 0,2 1,3 0,0 1,0 2,0 1,0 2,0 2,0 1,-1 1,-2 1,-3l0 -6 1 0 0 6c0,2 0,3 -1,3 -1,1 -2,2 -3,2 -1,0 -2,-1 -3,-2 -1,0 -1,-1 -1,-3l0 -6z"/>
    <path id="3" class="fil1" d="M191 205l0 -10 2 0c1,0 1,0 2,0 0,0 0,0 1,0 0,0 0,1 0,1 1,1 1,1 1,2 0,0 -1,1 -1,2 -1,0 -1,0 -2,0l-1 0 5 5 -2 0 -4 -5 0 0 0 5 -1 0zm1 -9l0 3 1 0c1,0 2,0 2,0 0,0 0,-1 0,-1 0,-1 0,-2 0,-2 -1,0 -1,0 -2,0l-1 0z"/>
    <path id="4" class="fil1" d="M204 204c0,0 1,0 1,0 1,0 1,-1 2,-1 0,0 1,-1 1,-1 0,-1 0,-1 0,-2 0,-1 0,-1 0,-2 0,0 -1,-1 -1,-1 -1,-1 -1,-1 -2,-1 0,0 -1,0 -1,0 -1,0 -1,0 -2,0 0,0 -1,0 -1,1 -1,0 -1,1 -1,1 0,1 -1,1 -1,2 0,1 1,1 1,2 0,0 0,1 1,1 0,0 1,1 1,1 1,0 1,0 2,0zm5 -4c0,1 0,1 0,2 0,1 -1,1 -1,2 -1,0 -1,1 -2,1 -1,0 -1,1 -2,1 -1,0 -2,-1 -2,-1 -1,0 -2,-1 -2,-1 -1,-1 -1,-1 -1,-2 -1,-1 -1,-1 -1,-2 0,-1 0,-1 1,-2 0,-1 0,-1 1,-2 0,0 1,-1 2,-1 0,0 1,-1 2,-1 1,0 1,1 2,1 1,0 1,1 2,1 0,1 1,1 1,2 0,0 0,1 0,2z"/>
    <path id="5" class="fil1" d="M217 204l1 0c1,0 2,0 3,0 0,0 1,0 1,-1 0,0 1,-1 1,-1 0,-1 0,-1 0,-2 0,-1 0,-1 0,-2 0,-1 -1,-1 -1,-1 0,-1 -1,-1 -1,-1 -1,0 -2,0 -3,0l-1 0 0 8zm-1 1l0 -10 2 0c1,0 3,0 3,0 1,0 1,0 2,1 0,0 1,1 1,1 0,1 1,2 1,3 0,1 -1,2 -1,2 0,1 -1,2 -1,2 -1,1 -1,1 -2,1 0,0 -1,0 -3,0l0 0 -2 0z"/>
    <path id="6" class="fil1" d="M230 197l-2 4 3 0 -1 -4zm0 -3l5 11 -2 0 -1 -3 -4 0 -2 3 -1 0 5 -11z"/>
    <polygon id="7" class="fil1" points="241,206 237,198 236,205 235,205 237,194 241,203 244,194 247,205 245,205 244,198 "/>
    <path id="8" class="fil1" d="M252 197l-2 4 3 0 -1 -4zm0 -3l4 11 -1 0 -1 -3 -5 0 -1 3 -1 0 5 -11z"/>
    <path id="9" class="fil1" d="M266 197c-1,0 -1,-1 -2,-1 0,0 -1,0 -2,0 0,0 -1,0 -1,0 -1,0 -1,0 -2,1 0,0 0,1 -1,1 0,1 0,1 0,2 0,0 0,1 0,1 0,1 1,1 1,2 0,0 1,1 1,1 1,0 2,0 2,0 1,0 2,0 2,0 1,0 1,-1 2,-1l0 1c-1,1 -1,1 -2,1 0,0 -1,1 -2,1 0,0 -1,-1 -1,-1 -1,0 -1,0 -2,0 -1,-1 -1,-2 -2,-2 0,-1 0,-2 0,-3 0,-1 0,-2 0,-2 0,-1 1,-2 1,-2 1,-1 2,-1 2,-1 1,0 2,-1 2,-1 1,0 2,0 2,1 1,0 1,0 2,1l0 1z"/>
    <polygon id="10" class="fil1" points="268,205 268,195 274,195 274,196 269,196 269,199 274,199 274,200 269,200 269,204 274,204 274,205 "/>
    <polygon id="11" class="fil1" points="276,205 276,194 284,203 284,195 285,195 285,206 277,197 277,205 "/>
    <path id="12" class="fil1" d="M292 204c1,0 2,0 2,0 1,0 1,-1 2,-1 0,0 0,-1 0,-1 1,-1 1,-1 1,-2 0,-1 0,-1 -1,-2 0,0 0,-1 0,-1 -1,-1 -1,-1 -2,-1 0,0 -1,0 -2,0 0,0 -1,0 -1,0 -1,0 -1,0 -2,1 0,0 0,1 -1,1 0,1 0,1 0,2 0,1 0,1 0,2 1,0 1,1 1,1 1,0 1,1 2,1 0,0 1,0 1,0zm6 -4c0,1 0,1 0,2 -1,1 -1,1 -2,2 0,0 -1,1 -1,1 -1,0 -2,1 -3,1 0,0 -1,-1 -2,-1 0,0 -1,-1 -2,-1 0,-1 -1,-1 -1,-2 0,-1 0,-1 0,-2 0,-1 0,-1 0,-2 0,-1 1,-1 1,-2 1,0 2,-1 2,-1 1,0 2,-1 2,-1 1,0 2,1 3,1 0,0 1,1 1,1 1,1 1,1 2,2 0,0 0,1 0,2z"/>
   </g>
   <path class="fil2" d="M310 176l11 -7 0 -1 2 0 22 -13c2,-2 5,-2 6,-1l-26 16 0 30 4 7 10 0 0 -39 9 0c6,0 11,0 14,1l-8 -12c0,-1 -1,-2 -2,-2l1 -2c3,-1 7,0 9,3l22 35c2,3 0,8 -3,9l-35 22c-2,1 -5,1 -7,0l19 -11c-1,0 -3,0 -5,0l-11 0 -3 0 -7 0 5 9c0,0 1,1 2,2l-1 1c-4,2 -8,1 -9,-2l-6 -10 -2 0 0 -4 -14 -22c-2,-3 -1,-7 3,-9l0 0zm11 -3l-4 2c-3,2 -4,6 -2,9l6 9 0 -20 0 0zm55 20c-1,3 -2,6 -3,8 0,1 0,1 0,1l0 0c4,-2 4,-6 3,-9l0 0zm-32 14l5 0c5,0 10,-1 12,-1 3,-1 6,-3 7,-6 2,-3 3,-6 3,-10 0,-2 0,-4 0,-6l-5 -7c-2,-2 -4,-3 -6,-4 -3,0 -7,-1 -13,-1l-3 0 0 35 0 0z"/>
  </g>
 </g>
</svg>
